<?xml version="1.0" encoding="utf-8"?>
<!-- Generator: Adobe Illustrator 23.0.2, SVG Export Plug-In . SVG Version: 6.00 Build 0)  -->
<svg version="1.1" id="Layer_1" xmlns="http://www.w3.org/2000/svg" xmlns:xlink="http://www.w3.org/1999/xlink" x="0px" y="0px"
	 viewBox="0 0 50.7 125" style="enable-background:new 0 0 50.7 125;" xml:space="preserve">
<style type="text/css">
	.st0{fill:#FFFFFF;}
</style>
<title>finger-bones-right</title>
<path class="st0" d="M43,125c0.6-3.7,0-7.3,0.3-11c2.8,3.3,5.6,4.5,7.2-0.5c1.3-4.1-2.4-10.4-3.6-14.2c-3.1-9.5-7.3-19.5-8.9-29.3
	c-1.6-9.4-1.9-18.7-4.7-27.9c-2.7-8.9-7-23.7,1-31.2L33,6.3c-3.5,1.1-4.6-3.1-7.6-3s-8.2,4.7-10,6.7c-1.3-1.6-3.9,0.5-5.5,0.4
	c-3-0.2-6.6-0.8-9-2.9c0,13.2,1.7,26.4,2.2,39.7c0.4,9.9,4,18.9,6.2,28.4c2.6,11,5.6,21.4,12.7,30.1c2.6,3.2,4.1,7.3,6.9,10.2
	c3.6,3.6,9.1,6.1,13.3,9.2"/>
<path d="M42.2,125c-3.9-3-8.9-5.3-12.5-8.5c-3.3-3-4.9-7.6-7.7-11c-7.1-8.7-10.1-19.1-12.7-30.1C7,65.9,3.5,57,3.1,47.1
	C2.5,33.8,0.9,20.6,0.9,7.4c2.4,2.1,6,2.7,9,2.9c1.6,0.1,4.1-2,5.5-0.4c1.9-2.1,7-6.6,10-6.7s4,4.2,7.6,3l1.2,4.7
	c-7.5,7.1-4,21-1.5,29.6c2.9,9.8,3.5,19.4,5.2,29.5c1.6,9.5,5.8,18.8,8.5,28.1c1.3,4.3,4.3,9.3,3.9,14c-0.5,5.4-3.3,6.6-7.1,2
	c-0.2,3.7,0.4,7.3-0.3,11L42.2,125z M21.6,35.6c0,3.7-1.1,11,1,14.1c1.3,1.9,6.1,4.6,8.4,1.8c1.9-2.5-2.5-12.4-3-15.3
	c-1.1-5-1.5-10.2-1.2-15.3c0.4-4.4,4.8-9.5,2.3-13.6c-2-3.2-4.9-2.6-7.8-0.8c-4.9,3.1-3,5-1.6,9.8C21.3,22.6,21.4,29.1,21.6,35.6
	L21.6,35.6z M33.6,55.6c-7.6,0-8.5-0.4-6.4,7c1,3.7,3,18.2,5.7,20.6c5.1,4.6,3.5-3.7,3-6.7C34.5,69.6,33.7,62.6,33.6,55.6L33.6,55.6
	z M18.3,35.9c0.1-5.5,1.3-20.9-4-24.3c-1.6,4.5,1.6,15.1,1.5,20.3c-0.1,6.5-1.2,14.1,0.4,20.6c0.4,1.7,4.3,9,5.6,3.3
	c0.3-1.4-2.4-5.3-2.8-7.2C18.1,44.6,18.5,39.9,18.3,35.9z M32.3,90.2c1-3-9.9-30.9-12.1-29.1c-2.1,1.6,3.4,13.2,3.9,15.2
	C25.8,83.2,23.4,90.2,32.3,90.2L32.3,90.2z M7.7,54.4l0.4,0c1.3-8.3,0.7-17.6,0.2-25.9C8.2,26.2,7.1,9.4,4.4,11
	c-3.4,2,0.7,15,1,18.5C6.2,37.4,5.3,46.7,7.7,54.4L7.7,54.4z M13.4,31.9c-0.4-5.5,0.3-15.5-3-20.3c-2.6,2.9-0.5,21.1,2.2,23.9
	C13.4,34.5,13.7,33.2,13.4,31.9z M44.1,104l0.3-0.1c-0.7-2.4-3.3-20.1-7.8-16.9C34.5,88.4,42.7,102.2,44.1,104L44.1,104z M12,64.7
	l-0.4,0.1c0,2.4,1.1,17,4.6,17.2C20,82.2,12.8,66.4,12,64.7z M30.4,93.4l-0.4,0.1c-1.1,5.1,1.9,13.9,5,17.7l0.5-0.3
	C34.2,105.8,33.4,97.7,30.4,93.4L30.4,93.4z M12.7,36.8h-0.4c-1.2,4-2.7,19.5,1.5,21.7C15.7,53.2,13.2,42.6,12.7,36.8L12.7,36.8z
	 M35.8,97c0.6,4.6,1.7,10.1,4.6,13.8C41.5,108.3,38.4,99,35.8,97L35.8,97z M17.5,66.7L16.8,67c1.6,5.2,3,10.3,4.3,15.5l0.4-0.1
	C21.5,76.9,20.1,71.5,17.5,66.7L17.5,66.7z M27.1,103.2c0.6-2-1.4-7.8-2.9-8.5C23.6,95.6,25.8,102,27.1,103.2L27.1,103.2z
	 M38.1,113.6l-0.6,0.2c0-0.5,0.4,7.4,2.9,4.5C41.1,117.5,38.3,113.9,38.1,113.6L38.1,113.6z M20.8,84.5c0.3,2.2,0.2,5.3,1.8,7
	C23.6,89.3,22.2,86.4,20.8,84.5L20.8,84.5z M47.2,112.5c0.7-1.2-0.1-4.2-1.5-4.7C43.8,107.3,46.4,112.1,47.2,112.5L47.2,112.5z"/>
<path class="st0" d="M21.6,35.6c-0.2-6-0.1-12.3-1.7-18.1c-1.2-4.4-3.7-6.9,0.1-10.4c2.8-2.6,6.9-3.2,9,0.2
	c2.3,3.8-1.9,9.4-2.3,13.6c-0.3,5.1,0.1,10.3,1.2,15.3c0.6,3.2,4.9,11.7,3.2,14.4s-5.9,2.4-8,0C20.5,47.7,21.6,39.1,21.6,35.6z"/>
<path class="st0" d="M33.6,55.6c0.1,6.5,0.7,12.9,2,19.3c0.4,2.4,3.2,13.7-2.7,8.4c-0.9-0.8-2.1-8.8-2.4-9.8
	c-0.9-3.1-1.9-6.2-2.8-9.4C25.2,56.2,25,55.6,33.6,55.6z"/>
<path class="st0" d="M18.3,35.9c0.2,3.6,0.1,7.5,0.5,11.1c0.2,1.8,2.7,6.7,2.4,7.9c-1.3,5.2-4.1,1.6-5.1-2.4
	c-1.5-6-0.5-12.8-0.4-18.9c0.2-3.5,0.1-7-0.1-10.5c-0.4-3.5-2.6-8.1-1.4-11.5C19.6,15,18.5,30.4,18.3,35.9z"/>
<path class="st0" d="M32.4,90.2c-8.9,0-6.5-7-8.3-13.9c-0.6-2.3-6-14.1-3.9-15.2c3.2-1.7,5.9,8.5,6.4,10.1
	C27.6,74.4,33.1,87.9,32.4,90.2z"/>
<path class="st0" d="M7.7,54.4c-2.5-7.6-1.5-16.9-2.2-24.9C5.2,26,1.1,13,4.5,11c2.7-1.6,3.8,15.1,3.9,17.4c0.5,8.3,1,17.7-0.2,25.9
	L7.7,54.4z"/>
<path class="st0" d="M13.4,31.9c0.3,1.3,0,2.6-0.9,3.6c-2.7-2.8-4.7-21.1-2.2-23.9C13.8,16.4,13,26.3,13.4,31.9z"/>
<path class="st0" d="M44.1,104c-1.5-1.8-9.6-15.6-7.5-17.1c4.5-3.2,7.2,14.5,7.8,16.9L44.1,104z"/>
<path class="st0" d="M12,64.7c0.8,1.8,8,17.6,4.2,17.4c-3.5-0.2-4.6-14.9-4.6-17.2L12,64.7z"/>
<path class="st0" d="M30.3,93.4c3.1,4.3,3.9,12.4,5.1,17.5l-0.5,0.3c-3.1-3.9-6.2-12.6-5-17.7L30.3,93.4z"/>
<path class="st0" d="M12.6,36.8c0.5,5.8,3.1,16.4,1.1,21.7c-4.2-2.2-2.7-17.7-1.5-21.7L12.6,36.8z"/>
<path class="st0" d="M35.8,97c2.6,2,5.7,11.3,4.6,13.8C37.4,107.1,36.4,101.7,35.8,97z"/>
<path class="st0" d="M17.5,66.7c2.6,4.8,4,10.2,3.9,15.7L21,82.5c-1.2-5.3-2.7-10.4-4.3-15.5L17.5,66.7z"/>
<path class="st0" d="M27,103.2c-1.2-1.1-3.4-7.5-2.9-8.5C25.7,95.3,27.7,101.1,27,103.2z"/>
<path class="st0" d="M38.1,113.6c0.2,0.4,3,3.9,2.3,4.6c-2.5,2.9-2.9-5-2.9-4.5L38.1,113.6z"/>
<path class="st0" d="M20.7,84.5c1.4,1.8,2.9,4.8,1.8,7C21,89.8,21.1,86.7,20.7,84.5z"/>
<path class="st0" d="M47.1,112.5c-0.7-0.4-3.3-5.2-1.5-4.7C47.1,108.2,47.8,111.3,47.1,112.5z"/>
</svg>
