<svg id="Layer_1" data-name="Layer 1" xmlns="http://www.w3.org/2000/svg" viewBox="0 0 96.48 102.9"><title>foot-bone-left</title><path d="M258.42,359.71a22.79,22.79,0,0,1,3.82-9.47,29.68,29.68,0,0,0,1.55-3.21c.12-.25.34-.59.57-.63,1.8-.38,3.4-.46,4.81,1.3s3.51,1.81,5.53,2a2.2,2.2,0,0,0,.9-.26c.77-.29,1.53-.63,2.31-.89,1.36-.43,2.75-.81,4.12-1.23s2.85-1,4.32-1.34a10.56,10.56,0,0,1,5.42-.22c2.2.64,4.52.85,6.78,1.28a3.63,3.63,0,0,1,2.68,1.24,16.63,16.63,0,0,1,2.87,7.77,3.26,3.26,0,0,0,.56,1.66,27,27,0,0,0,2.6,2.29c.46.39,1,.72,1.43,1.1a1.26,1.26,0,0,1,.12,2.13,3.46,3.46,0,0,0-1.1,3.16,3.16,3.16,0,0,0,1,1.48c.67.63,1.67,1,2.14,1.72,1.08,1.67,1.93,3.48,2.87,5.24,2.16,4.07,5.21,7.42,8.31,10.78q10.94,11.85,21.55,24c4.53,5.15,9.08,10.34,11.14,17.11v1.2c-.25.44-.4,1-.78,1.3a4.12,4.12,0,0,0-1.38,3.42,9,9,0,0,1-1.73,5,3,3,0,0,1-3,1.54c-.82-.13-1.09.31-.9,1.08.07.31.17.61.25.92.3,1.19,0,1.5-1.18,1.23a5.17,5.17,0,0,0-4.11.69,4.2,4.2,0,0,1-2.5.49c-2.58-.26-4.56-1.77-6.48-3.39a36.71,36.71,0,0,0-3.46-2.76c-1.67-1.1-2.75-.78-4.58,1.09-1.18,1.21-1.17,1.55,0,3.45.23.37.46.74.67,1.13a2.28,2.28,0,0,1-.29,3,30.74,30.74,0,0,1-3.16,2.21h-1.2a23.3,23.3,0,0,1-8.95-4.61c-2.65-2.21-5.35-4.5-6.55-7.81a35.46,35.46,0,0,0-5.35-9.29c-1.19-1.59-2.27-3.28-3.37-4.94-.59-.89-1.11-1.81-1.69-2.71a19.4,19.4,0,0,1-1.94-3,39.65,39.65,0,0,1-1.64-5.37,28.94,28.94,0,0,0-3.68-9.55,8.74,8.74,0,0,0-1.92-1.92,33.08,33.08,0,0,1-2.8-1.94c-1.23-1.19-2.2-2.65-3.43-3.84s-2.48-2.64-4-3.11a9.4,9.4,0,0,1-4.84-3.65c-2.36-3.12-4.69-6.27-7.09-9.37a25.57,25.57,0,0,1-4.52-8.51c-.34-1.14-.59-2.3-.88-3.45m3.56-.82c-.24,5,2.81,8.23,6.23,11.24a.74.74,0,0,0,1.28-.2,8.07,8.07,0,0,0,1.13-4.8,10.47,10.47,0,0,1,0-3.06,13.58,13.58,0,0,0-.74-9.33,6.58,6.58,0,0,1-.58-2.18,2,2,0,0,1,.47-1.47,1.49,1.49,0,0,1,1.43,0,5.07,5.07,0,0,1,1.61,1.81,19.62,19.62,0,0,1,1.38,10.3,20.32,20.32,0,0,0-.12,3.21,1.49,1.49,0,0,0,2,1.5,7,7,0,0,0,2.15-.68c5.53-2.88,11.5-3.86,17.64-4.14a41.7,41.7,0,0,0,5.36-.48c2.55-.45,3.39-1.9,2.3-4.22a25.53,25.53,0,0,1-2.08-8.9,2.8,2.8,0,0,0-1.78-2.63c-4.17-1.55-8.32-3.43-12.92-2.66a57.38,57.38,0,0,0-6.88,1.87,23.25,23.25,0,0,1-3.17,1.15,21.62,21.62,0,0,1-4.55,0c-1.2-.09-2.44-.19-3.3-1.36-.58-.79-1.45-.48-2,.12a13.77,13.77,0,0,0-1.95,2.84A28.94,28.94,0,0,0,261.8,364.46Zm34.45,5.17c-1.34.32-2.63.69-4,.91a42.07,42.07,0,0,0-5.19.69,84.31,84.31,0,0,0-9.3,3.33,29,29,0,0,0-5.52,3.31,3.37,3.37,0,0,0-1.28,4.42,8.32,8.32,0,0,0,6.75,4.73,2.64,2.64,0,0,0,1.78-.83c.69-.66,1.06-1.69,1.8-2.24a23.29,23.29,0,0,1,9.26-4.28,29.77,29.77,0,0,0,9.13-3,7,7,0,0,1,2.4-.63,9.23,9.23,0,0,0,6.06-3,1.43,1.43,0,0,0,.22-1.27c-.14-.29-.74-.44-1.16-.48-1.07-.12-2.16,0-3.21-.2C301.44,370.67,298.88,370.14,296.25,369.63Zm1.47,22.75a20.05,20.05,0,0,1-3.08.46,2.09,2.09,0,0,0-2.26,2,13.86,13.86,0,0,0-.12,4.49c.62,3,1.53,6,2.39,9a47.11,47.11,0,0,0,2.07,6.21,5.64,5.64,0,0,0,8.62,1.9,1.84,1.84,0,0,0,.73-2.1c-.44-1.4-.89-2.8-1.26-4.22a48.17,48.17,0,0,1-1.25-12.21c0-3.95-.88-4.84-4.78-5.42C298.5,392.42,298.22,392.42,297.72,392.38ZM291.86,382a17.74,17.74,0,0,0-9.8,5.79,1.84,1.84,0,0,0-.14,1.56,16.23,16.23,0,0,0,4.67,6.27c.68.57,1.21.43,1.67-.28s1.09-1.57,1.56-2.41a6.67,6.67,0,0,1,5.07-3.39c1.21-.21,2.42-.45,3.61-.77s1.32-.69.55-1.65a17.1,17.1,0,0,0-5.91-4.77A7.91,7.91,0,0,0,291.86,382Zm32.68,49,.25-.19a8.11,8.11,0,0,0-.56-1.1,31.26,31.26,0,0,0-2-2.67c-1.94-2.17-3.94-4.3-5.91-6.45a31.15,31.15,0,0,1-6.85-11.39,21.64,21.64,0,0,0-1.3-2.65l-.33.14a3,3,0,0,0,0,.67c.93,3.29,1.82,6.59,2.82,9.86a77.73,77.73,0,0,0,3.08,9.13c1.31,2.93,3.94,4.64,7,5.59.7.22,1.58.26,1.76-.68.21-1.12.67-1,1.38-.53A3.51,3.51,0,0,0,324.54,431Zm-.78-37.22a10,10,0,0,0-1-2c-1.27-1.54-2.57-3.06-3.95-4.49a41.12,41.12,0,0,1-7.44-9.46c-1-2-1.83-2.11-3.5-1-1.3.84-1.38,1.54-.09,3.3s2.83,3.76,4.38,5.53a9.47,9.47,0,0,0,2.93,2.4,11.13,11.13,0,0,1,4.51,4.3,14.81,14.81,0,0,0,1.72,2.28,1.91,1.91,0,0,0,1.51.6C323.24,395.07,323.43,394.31,323.76,393.74Zm4.22,20.8.39-.31a5.84,5.84,0,0,0-.43-1.28c-.76-1.27-1.57-2.5-2.36-3.74-2.38-3.73-4.81-7.44-7.13-11.21-1.16-1.89-2.12-3.92-3.2-5.87a9.44,9.44,0,0,0-1.06-1.26,5.82,5.82,0,0,0-.31,4.94c1.47,3.51,3.25,6.89,5,10.28a7.73,7.73,0,0,0,1.71,1.82q2.75,2.55,5.54,5.07C326.73,413.52,327.36,414,328,414.54Zm-9.56,2.81c1.6.06,2.43-1.19,1.8-2.32-.86-1.53-1.83-3-2.7-4.52-1.92-3.34-3.82-6.7-5.72-10.05a7,7,0,0,0-.55-.92c-.59-.72-1.34-.64-1.44.26a6.73,6.73,0,0,0,.32,3.22,75.82,75.82,0,0,0,3.28,6.87c1.14,2.18,2.38,4.31,3.68,6.4A4.42,4.42,0,0,0,318.42,417.35ZM305,419.88a20.92,20.92,0,0,0-2.75.71c-1.15.46-1.2,1.19-.46,2.15,1.58,2.05,3.09,4.15,4.65,6.22.74,1,1.46,2,2.28,2.91.51.57,1.32.87,1.88.19a2.08,2.08,0,0,0,.16-1.67c-.9-2.76-1.91-5.47-2.85-8.21A2.84,2.84,0,0,0,305,419.88Zm18.25-21.41a12.16,12.16,0,0,0,.57,1.65,16.3,16.3,0,0,0,5.75,6.25c1.2.82,1.87.59,3.08-.9,1-1.21,1-1.74-.09-2.74-2.07-1.87-4.2-3.67-6.35-5.44a2.81,2.81,0,0,0-1.41-.55C323.72,396.61,323.19,397.16,323.21,398.47ZM319,444l.4-.15a24.25,24.25,0,0,0-.31-7,2.89,2.89,0,0,0-3.76-2.37,33.23,33.23,0,0,0-3.68,1c-1.39.45-1.53.91-.46,1.85C313.71,439.57,316.35,441.75,319,444Zm-12.64-56.88c1.29.11,1.81-.48,1.34-1.32a22.15,22.15,0,0,0-1.87-2.57c-.46-.61-1.19-1.14-1.35-1.82-.53-2.15-2.07-3-4.48-1.62-1,.61-1.3,1.24-.48,2.09a55.62,55.62,0,0,0,4.82,4.39A6.75,6.75,0,0,0,306.32,387.08Zm3.3,6.25c-.24-2-1.71-3.43-3.55-3.19-.3,0-.8.67-.74.9a47.28,47.28,0,0,0,1.47,4.5.8.8,0,0,0,1.5.21A19.5,19.5,0,0,0,309.62,393.33Zm12.22,27.39-.36.4c.29.28.57.59.89.85a8.82,8.82,0,0,1,1.32,1c.66.8,1.19,1.69,1.81,2.52a16.75,16.75,0,0,0,1.82,2.2,1.29,1.29,0,0,0,1.23-.07,1.2,1.2,0,0,0,.18-1.18A18.54,18.54,0,0,0,321.84,420.72Zm14.37,2.37c-.28-2.32-2.83-5.39-4.83-5.71A21.28,21.28,0,0,0,336.21,423.09Zm1.64-12.62a2.79,2.79,0,0,0,2.5,3A3.16,3.16,0,0,0,337.85,410.47Zm-9.78,9.45a2.63,2.63,0,0,0-2.24-2.45C325.57,418.87,326.47,419.9,328.07,419.92ZM334,432c-.67-.45-1.07-.93-1.42-.9s-.66.57-1,.89c.32.32.62.86,1,.89S333.33,432.46,334,432Z" transform="translate(-258.24 -345.42)"/><path d="M274.51,346.61c-2.45-.35-4.88-1-7.35-1.19-1-.06-1.62.22-1.72.08a7.51,7.51,0,0,0-.27.76,3.84,3.84,0,0,1,4,1.44c1.32,1.65,3.51,1.81,5.53,2a2.2,2.2,0,0,0,.9-.26c.77-.29,1.53-.63,2.31-.89,1.36-.43,2.75-.81,4.12-1.23,1.19-.37,2.36-.81,3.56-1.14A39.16,39.16,0,0,1,274.51,346.61Z" transform="translate(-258.24 -345.42)" fill="#fff"/><path d="M258.42,359.71a22,22,0,0,1,3-8.18c-.26.16-.51.31-.77.45a11,11,0,0,1-2.42.94" transform="translate(-258.24 -345.42)" fill="#fff"/><path d="M261.8,364.46a28.94,28.94,0,0,1,2.88-12,13.77,13.77,0,0,1,1.95-2.84c.52-.6,1.39-.91,2-.12.86,1.17,2.1,1.27,3.3,1.36a21.62,21.62,0,0,0,4.55,0,23.25,23.25,0,0,0,3.17-1.15,57.38,57.38,0,0,1,6.88-1.87c4.6-.77,8.75,1.11,12.92,2.66a2.8,2.8,0,0,1,1.78,2.63,25.53,25.53,0,0,0,2.08,8.9c1.09,2.32.25,3.77-2.3,4.22a41.7,41.7,0,0,1-5.36.48c-6.14.28-12.11,1.26-17.64,4.14a7,7,0,0,1-2.15.68,1.49,1.49,0,0,1-2-1.5,20.32,20.32,0,0,1,.12-3.21,19.62,19.62,0,0,0-1.38-10.3A5.07,5.07,0,0,0,271,354.7a1.49,1.49,0,0,0-1.43,0,2,2,0,0,0-.47,1.47,6.58,6.58,0,0,0,.58,2.18,13.58,13.58,0,0,1,.74,9.33,10.47,10.47,0,0,0,0,3.06,8.07,8.07,0,0,1-1.13,4.8.74.74,0,0,1-1.28.2C264.61,372.69,261.56,369.48,261.8,364.46Z" transform="translate(-258.24 -345.42)" fill="#fff"/><path d="M296.25,369.63c2.63.51,5.19,1,7.78,1.48,1.05.17,2.14.08,3.21.2.42,0,1,.19,1.16.48a1.43,1.43,0,0,1-.22,1.27,9.23,9.23,0,0,1-6.06,3,7,7,0,0,0-2.4.63,29.77,29.77,0,0,1-9.13,3,23.29,23.29,0,0,0-9.26,4.28c-.74.55-1.11,1.58-1.8,2.24a2.64,2.64,0,0,1-1.78.83,8.32,8.32,0,0,1-6.75-4.73,3.37,3.37,0,0,1,1.28-4.42,29,29,0,0,1,5.52-3.31,84.31,84.31,0,0,1,9.3-3.33,42.07,42.07,0,0,1,5.19-.69C293.62,370.32,294.91,370,296.25,369.63Z" transform="translate(-258.24 -345.42)" fill="#fff"/><path d="M297.72,392.38c.5,0,.78,0,1.06.08,3.9.58,4.77,1.47,4.78,5.42a48.17,48.17,0,0,0,1.25,12.21c.37,1.42.82,2.82,1.26,4.22a1.84,1.84,0,0,1-.73,2.1,5.64,5.64,0,0,1-8.62-1.9,47.11,47.11,0,0,1-2.07-6.21c-.86-3-1.77-5.94-2.39-9a13.86,13.86,0,0,1,.12-4.49,2.09,2.09,0,0,1,2.26-2A20.05,20.05,0,0,0,297.72,392.38Z" transform="translate(-258.24 -345.42)" fill="#fff"/><path d="M291.86,382a7.91,7.91,0,0,1,1.28.35,17.1,17.1,0,0,1,5.91,4.77c.77,1,.65,1.33-.55,1.65s-2.4.56-3.61.77a6.67,6.67,0,0,0-5.07,3.39c-.47.84-1,1.61-1.56,2.41s-1,.85-1.67.28a16.23,16.23,0,0,1-4.67-6.27,1.84,1.84,0,0,1,.14-1.56A17.74,17.74,0,0,1,291.86,382Z" transform="translate(-258.24 -345.42)" fill="#fff"/><path d="M324.54,431a3.51,3.51,0,0,1-.66-.27c-.71-.45-1.17-.59-1.38.53-.18.94-1.06.9-1.76.68-3.05-.95-5.68-2.66-7-5.59a77.73,77.73,0,0,1-3.08-9.13c-1-3.27-1.89-6.57-2.82-9.86a3,3,0,0,1,0-.67l.33-.14a21.64,21.64,0,0,1,1.3,2.65,31.15,31.15,0,0,0,6.85,11.39c2,2.15,4,4.28,5.91,6.45a31.26,31.26,0,0,1,2,2.67,8.11,8.11,0,0,1,.56,1.1Z" transform="translate(-258.24 -345.42)" fill="#fff"/><path d="M323.76,393.74c-.33.57-.52,1.33-.92,1.46a1.91,1.91,0,0,1-1.51-.6,14.81,14.81,0,0,1-1.72-2.28,11.13,11.13,0,0,0-4.51-4.3,9.47,9.47,0,0,1-2.93-2.4c-1.55-1.77-3-3.63-4.38-5.53s-1.21-2.46.09-3.3c1.67-1.08,2.47-.93,3.5,1a41.12,41.12,0,0,0,7.44,9.46c1.38,1.43,2.68,3,3.95,4.49A10,10,0,0,1,323.76,393.74Z" transform="translate(-258.24 -345.42)" fill="#fff"/><path d="M328,414.54c-.62-.52-1.25-1-1.85-1.56q-2.79-2.52-5.54-5.07a7.73,7.73,0,0,1-1.71-1.82c-1.75-3.39-3.53-6.77-5-10.28a5.82,5.82,0,0,1,.31-4.94,9.44,9.44,0,0,1,1.06,1.26c1.08,1.95,2,4,3.2,5.87,2.32,3.77,4.75,7.48,7.13,11.21.79,1.24,1.6,2.47,2.36,3.74a5.84,5.84,0,0,1,.43,1.28Z" transform="translate(-258.24 -345.42)" fill="#fff"/><path d="M318.42,417.35a4.42,4.42,0,0,1-1.33-1.06c-1.3-2.09-2.54-4.22-3.68-6.4a75.82,75.82,0,0,1-3.28-6.87,6.73,6.73,0,0,1-.32-3.22c.1-.9.85-1,1.44-.26a7,7,0,0,1,.55.92c1.9,3.35,3.8,6.71,5.72,10.05.87,1.52,1.84,3,2.7,4.52C320.85,416.16,320,417.41,318.42,417.35Z" transform="translate(-258.24 -345.42)" fill="#fff"/><path d="M305,419.88a2.84,2.84,0,0,1,2.91,2.3c.94,2.74,1.95,5.45,2.85,8.21a2.08,2.08,0,0,1-.16,1.67c-.56.68-1.37.38-1.88-.19-.82-.92-1.54-1.92-2.28-2.91-1.56-2.07-3.07-4.17-4.65-6.22-.74-1-.69-1.69.46-2.15A20.92,20.92,0,0,1,305,419.88Z" transform="translate(-258.24 -345.42)" fill="#fff"/><path d="M323.21,398.47c0-1.31.51-1.86,1.55-1.73a2.81,2.81,0,0,1,1.41.55c2.15,1.77,4.28,3.57,6.35,5.44,1.12,1,1.08,1.53.09,2.74-1.21,1.49-1.88,1.72-3.08.9a16.3,16.3,0,0,1-5.75-6.25A12.16,12.16,0,0,1,323.21,398.47Z" transform="translate(-258.24 -345.42)" fill="#fff"/><path d="M319,444c-2.61-2.21-5.25-4.39-7.81-6.65-1.07-.94-.93-1.4.46-1.85a33.23,33.23,0,0,1,3.68-1,2.89,2.89,0,0,1,3.76,2.37,24.25,24.25,0,0,1,.31,7Z" transform="translate(-258.24 -345.42)" fill="#fff"/><path d="M306.32,387.08a6.75,6.75,0,0,1-2-.85,55.62,55.62,0,0,1-4.82-4.39c-.82-.85-.57-1.48.48-2.09,2.41-1.41,4-.53,4.48,1.62.16.68.89,1.21,1.35,1.82a22.15,22.15,0,0,1,1.87,2.57C308.13,386.6,307.61,387.19,306.32,387.08Z" transform="translate(-258.24 -345.42)" fill="#fff"/><path d="M309.62,393.33a19.5,19.5,0,0,1-1.32,2.42.8.8,0,0,1-1.5-.21,47.28,47.28,0,0,1-1.47-4.5c-.06-.23.44-.86.74-.9C307.91,389.9,309.38,391.31,309.62,393.33Z" transform="translate(-258.24 -345.42)" fill="#fff"/><path d="M321.84,420.72a18.54,18.54,0,0,1,6.89,5.69,1.2,1.2,0,0,1-.18,1.18,1.29,1.29,0,0,1-1.23.07,16.75,16.75,0,0,1-1.82-2.2c-.62-.83-1.15-1.72-1.81-2.52a8.82,8.82,0,0,0-1.32-1c-.32-.26-.6-.57-.89-.85Z" transform="translate(-258.24 -345.42)" fill="#fff"/><path d="M336.21,423.09a21.28,21.28,0,0,1-4.83-5.71C333.38,417.7,335.93,420.77,336.21,423.09Z" transform="translate(-258.24 -345.42)" fill="#fff"/><path d="M337.85,410.47a3.16,3.16,0,0,1,2.5,3A2.79,2.79,0,0,1,337.85,410.47Z" transform="translate(-258.24 -345.42)" fill="#fff"/><path d="M328.07,419.92c-1.6,0-2.5-1.05-2.24-2.45A2.63,2.63,0,0,1,328.07,419.92Z" transform="translate(-258.24 -345.42)" fill="#fff"/><path d="M334,432c-.68.45-1.08.92-1.43.88s-.65-.57-1-.89c.32-.32.63-.86,1-.89S333.34,431.56,334,432Z" transform="translate(-258.24 -345.42)" fill="#fff"/></svg>