<svg id="Layer_1" data-name="Layer 1" xmlns="http://www.w3.org/2000/svg" viewBox="0 0 52.76 194.17"><title>forearm-bone-right</title><path d="M314.4,493.44c4.15-1.14.49-7.63,4.05-9.2,2.61-1.14,9.9,1.44,13.22,1.24,4.37-13.47-5.62-30-8.6-43.35a292.2,292.2,0,0,1-6.53-47.26c-.89-15.4-4.11-31.38-1-46.69,2.92-14.12,8.36-29.09,17.37-40.5-5.19-1.15-8.75-3.82-12.74-6.56-5-3.46-5.84-1-11.44-.72,1.6,9.44-18.93-.65-20.92-1-10.4-1.62-7.72,12.38-5.8,18.74,2.1,7,5.18,12.94,6.6,20.2,2.31,11.78,1.44,24.09,1.7,36,.5,23.4,2.35,46.72,2.52,70.15.08,10.68-1.88,24.68,1.88,34.85,3.34,9,11.46,10.4,19.4,14" transform="translate(-280.2 -299.27)" fill="#fff"/><path d="M314.16,493.44c-7.92-3.62-16.07-5.06-19.4-14-3.55-9.59-1.8-22.86-1.86-32.93-.16-24.07-2-48-2.54-72.07-.24-11.38.52-23.07-1.4-34.33-1.3-7.56-4.3-13.56-6.56-20.66-2-6.31-5.6-21.91,5.46-20,1.94.33,22.53,10.41,20.92,1,5.18-.3,6.55-2.55,11.44.72,4.07,2.71,7.4,5.38,12.74,6.56-9,11.41-14.45,26.38-17.37,40.5-3.16,15.31.06,31.3,1,46.69a292.2,292.2,0,0,0,6.53,47.26c3,13.44,13,29.82,8.6,43.35-3.7.22-11.31-2.81-13.92-.88C315.51,486.26,318.17,493.44,314.16,493.44Zm-15.37-88,.52,0c5.31,12.84,6.39,29.34,7.18,43.06A79.9,79.9,0,0,1,305,469.43c-1.12,5.54-4.59,13.24-.48,18.16,3.07,3.66,8.47,6.2,10.8,2.22,1.68-2.87-.73-4.55,2.58-6.4,2.92-1.63,5.34.76,8.07.54,9.7-.78-2.2-26.85-4-33.43-8.5-31.7-7.4-63.64-12.81-95.7-1.38-8.19-3.15-16.41-4.13-24.66-.63-5.29-2.09-15.33.92-20,5-7.77,2.12,9.36,2.18,11.87a125.3,125.3,0,0,0,3.45,24.69h.4c3.7-10,6.35-19.55,10.82-29.34,3.08-6.78,3.89-8.42-2.4-12.79-3.94-2.74-5.82-4.33-9.81-2.69s-5.44,4-10.42,3.45c-4-.42-10.66-5-14.13-2.65-6.52,4.41,4,26.88,5.27,32.68,5.13,23.77,2.14,49.74,3.75,73.93.85,12.73.58,25.21.31,38-.21,10.48-1.08,22.39,3.39,32.12,2.26-.49,4.05-11.43,4.51-13.54a67.74,67.74,0,0,0,1-21.91C303,431.8,297,417.44,298.79,405.41Z" transform="translate(-280.2 -299.27)"/><path d="M298.79,405.41c-1.82,12,4.17,26.42,5.52,38.52a67.74,67.74,0,0,1-.64,20.25c-.32,1.67-2.62,14.72-4.83,15.2-4.23-9.2-3.59-20.31-3.42-30.23.21-12.79.7-25.38-.16-38.15-1.68-24.76,1.28-51.29-3.87-75.63-1.45-6.84-11.12-25.46-6-31.92,2.9-3.67,9.69.89,13.47,1.53,5.45.92,6.86-1,11.5-2.67,1.76-.65,1.28-1.64,3.38-1.63,1.89,0,5.43,3,6.76,3.9,5.78,4,5.86,5,3,11.35-4.56,10.27-7.57,20.32-11.45,30.78h-.4A122.39,122.39,0,0,1,308.21,322c-.06-3.23,3-17-1.58-13-3.7,3.28-2,16.88-1.52,21.15,1,8.26,2.75,16.47,4.13,24.66,5.41,32.06,4.28,64,12.81,95.7,1.72,6.4,13.65,32.68,4,33.43-2.29.18-4.77-1.84-7.25-.86-4.32,1.71-1.45,3.37-3.4,6.72-2.21,3.78-7.91,1.23-10.8-2.22-4.16-5-.67-12.57.48-18.16a78,78,0,0,0,1.56-19.22c-.6-14.2-1.8-31.52-7.29-44.78Z" transform="translate(-280.2 -299.27)" fill="#fff"/></svg>