<svg id="Layer_1" data-name="Layer 1" xmlns="http://www.w3.org/2000/svg" viewBox="0 0 52.75 41.04"><title>hand-bone-right</title><path d="M295.92,417.12c-17.21,0-14.08-25.19-14.94-36.72,3.43,1.33,7,3.35,10.55,4.32,4.75,1.31,3.71,1.35,5.6-2.44,1.56-3.12-.34-4.79,3.72-5.52,1.87-.33,9.39,1.28,11.56,1.75a26.62,26.62,0,0,1,7.76,3.5c3.14,2.39,2.47,5.53,4.46,8.3,4,5.62,8.49,7.41,8.49,15.29-3.34.65-6.79,1.29-9.75,3.09-2.53,1.54-4,4.55-7.26,4.31-2.92-.22-3-3.25-6.26-2.92-3,.3-7.39,4.5-9.29,6.54C300.09,414.56,296.39,416.93,295.92,417.12Zm1.41-26.32.07.6c-4.83,1.13-6.17.26-6.7,4.93-.41,3.64,1.85,8.39,5.89,7.58,2.52-.5,3.31-4.33,5.64-5.28,1.75-.71,3.61.36,5.33.07,5.36-.88,5.45-3.5,9.29-7,3.53-3.25,6.38-3.58.39-7.68-3.36-2.3-10.6-5.46-14.72-5.39-4.39.09-6.15,2.44-3.08,6.79,2.79,3.94,8.63,4.29,12.44,6.64l-.12.53c-4.1,0-7.57-1.26-11.38-2.65-2.61-.94-12.29-6.08-14.59-5.13-2.79,1.14-1.58,4.27-1.34,7.81.19,2.73-.72,10.79,2.1,12.46,2.41-4.25,1.67-10.1,1.67-14.88C291.2,390.47,294.35,389.64,297.33,390.8Zm19.95,21.55c1.51-1.57,3-3.56,4.93-4.7,1.1-.65,6.08-1.34,6.76-2.35,2.55-3.8-1.42-10.21-5-11.92-6.26-3-7.55,2.59-9,7.76C313.5,406.74,313,408.2,317.28,412.35Zm-11.86-11.86,0,.3c-6.54-.27-10.1,13.65-2.58,12.72,2.34-.29,7.26-5.1,8.07-7.33C312.72,401.08,310,401.42,305.42,400.49Zm-9.2,12.15c-.55-4.42-6.85-11.95-7.69-4C288.09,412.77,296.09,419.27,296.22,412.64Z" transform="translate(-280.37 -376.08)"/><path d="M283.48,381.53c2.91,1.43,6.35,3.33,8.93,3.64,4.14.5,3,.76,4.72-2.89,1.46-3.16-.28-4.8,3.72-5.52a12.87,12.87,0,0,1,5.15,0c2.13.39,12.3,3.86,14.17,5.29,3.14,2.39,2.47,5.53,4.46,8.3s4.95,3.77,6.58,6.76a16.25,16.25,0,0,1,1.56,5.72,17.89,17.89,0,0,0,.35-2.86v-.26a4.14,4.14,0,0,1-1-1.24,32.48,32.48,0,0,0-3.83-6.16,19.62,19.62,0,0,1-3.14-4.89,6.5,6.5,0,0,0-3.14-3.81c-1.62-1.09-2.2-2.85-3.56-4-1.69-1.47-5.21-1.39-7.34-1.85a34.73,34.73,0,0,1-5.68-1.61" transform="translate(-280.37 -376.08)" fill="#fff"/><path d="M282.73,404.1c-1.25-6.47-1.22-13.58-1.55-20.31a3,3,0,0,0-.79,2.15c-.17,4.34.71,9.09,1,13.45s-.42,10.19,2.77,13.5c2.11,2.18,5.67,3.08,8.62,4.23h1.94C287,415,284.28,412.13,282.73,404.1Z" transform="translate(-280.37 -376.08)" fill="#fff"/><path d="M303.44,416.29c1.57-.15.68.37,1.37-.06s1-1.43,1.59-1.9c3.84-3.09,7.38-.21,11.52-.47,4.47-.29,6.37-4.77,9.91-6.74.8-.45,3.27-.68,5.29-.77v-.75c-3.34.65-6.79,1.29-9.75,3.09-2.53,1.54-4,4.55-7.26,4.31-2.92-.22-3-3.25-6.26-2.92-3,.3-7.39,4.5-9.28,6.54-.48-2.06-4.18.31-4.65.5h3.59A13.8,13.8,0,0,1,303.44,416.29Z" transform="translate(-280.37 -376.08)" fill="#fff"/><path d="M297.33,390.8c-3-1.16-6.13-.33-9.11-.63,0,4.8.77,10.59-1.67,14.88-2.6-1.54-1.79-8.11-2-10.55-.25-3.57-1.81-8.52,1.21-9.72,2.18-.88,10.6,3.63,12.89,4.48,4.36,1.64,8.36,3.3,13.08,3.3l.12-.53c-2.6-1.6-22.67-10.6-10.75-13.74,3.34-.88,11.56,3.18,14.55,4.83,6.78,3.76,5.42,4.64,1.17,8.55-3.19,2.92-3.76,5.89-8.09,7.06-2.11.57-4.36-1-6.53-.1s-2.73,3.69-4.76,4.64c-4.22,2-6.1-1.44-6.56-5.61-.64-5.79,1-5,6.49-6.26Z" transform="translate(-280.37 -376.08)" fill="#fff"/><path d="M317.28,412.35c-4.24-4.1-3.77-5.63-2.26-11.21,1.38-5.14,2.71-10.75,9-7.76,3.34,1.6,7.68,8.24,5,11.92-1,1.33-4.21,1.06-5.62,1.77C320.89,408.31,319.16,410.39,317.28,412.35Z" transform="translate(-280.37 -376.08)" fill="#fff"/><path d="M305.42,400.49c3.82.78,6.38.33,5.91,4.45-.32,2.75-6,8.28-8.53,8.57-7.53.86-4-13,2.58-12.72Z" transform="translate(-280.37 -376.08)" fill="#fff"/><path d="M296.22,412.64c-.13,6.63-8.13.13-7.69-4C289.37,400.69,295.67,408.22,296.22,412.64Z" transform="translate(-280.37 -376.08)" fill="#fff"/></svg>