<svg id="Layer_1" data-name="Layer 1" xmlns="http://www.w3.org/2000/svg" viewBox="0 0 105.05 292.81"><title>leg-bone-right</title><path d="M95.45,292.34c16.55-6.79,4.83-28.69.83-40.34a229.24,229.24,0,0,1-7.46-26.73c-1.86-8.78-2.29-16.88-6.95-24.63a.13.13,0,0,1,.11-.2l2.81-.23a.12.12,0,0,0,.12-.14c-1.94-18.33-5.53-36.77-9.16-54.84-4-19.86-12.84-38.22-14.37-58.59-.66-8.92-1.15-18.86,2.09-27.34,2.2-5.74,7.15-16.19,3.1-21.89C62,31,48.38,37.28,41.4,36.35,30.32,34.87,26.52,28,23.27,19.11a.14.14,0,0,0-.26,0C20.46,26.8,31.09,35.7,37.89,37c7.49,1.48,24.84-3.87,26.69,6.86.79,4.6-2.69,10.65-4,14.87a67.91,67.91,0,0,0-3.33,16.15C56.4,86.53,59,98.58,60.87,110c3.8,23,8,45.9,12.25,68.79,4.17,22.48,7.85,44.55,16.07,66,2.32,6-17.26,29.3,1.24,43.24.44.33.21,3.81,7.91,1.22,9.13-3.07,2.77-11.09,1.53-17.72-2-10.62-10.28-19.37-12.5-31.72-7.84-43.62-10.28-89.58-27.1-133.37C55.64,94.39,62.79,79,58.36,66.86c-1.49-4.07,7.27-15.24,6.11-19.29s1-5.38-2.82-8.47C58.21,36.34,37.89,37,30.93,34.29c-5.58-2.21-8.52-9.65-7.79-15.54.69-5.63,1.65-8.73-3.59-12.63C16,3.45,9.67,1.12,5.34,0a.14.14,0,0,0-.16.08C3.08,5.88,1,11.41,0,17.48M85,280.7a.1.1,0,0,0,0-.09c-.77-2.74-7-20.88-8.6-20.45-2.08.56,5.45,20,7.2,22.62a.13.13,0,0,0,.23,0Z" transform="translate(0)" fill="#fff"/><path d="M1.5,22.48C6.16,47,17.84,69,26.27,91.82c8.56,23.17,14.48,47,21.59,70.63,7.71,25.62,14.42,51.11,18,77.75,1.66,12.3,1.37,25.5,5.08,37.41,2,6.44,5.29,6.54,11,9.6,6,3.24,17.74,8.32,15.28,3.26Z" transform="translate(0)" fill="#fff"/><path d="M95.52,292.81c-4.46-2.66-8.91-3.32-13.57-5.6-7.37-3.61-9.75-4.25-11.82-12.68-3.32-13.48-3.16-27.92-5.31-41.63-4.58-29.22-14.28-57.31-22.26-85.68C35,120.37,23.84,95.05,14.73,68.7c-2.2-6.38-4-12.91-6.15-19.27C6.75,44,3.45,39.28,1.91,33.67-1.51,21.24,1,11.75,5.23,0,12,1.68,24,5.76,24.23,13.93c.26,8.75-1.14,22.27-6.89,28.92-3.8,4.39-4.56,4.13-3,10.32,1,3.85,2.68,7.49,3.8,11.22,3.09,10.36,6.62,20.69,10.6,30.85,8.43,21.55,17.56,43.09,21.91,64.89,4.52,22.63,12.7,44.91,17.18,67.59C70,238.37,70.77,249.28,72,260.05c.79,7,1.09,18.9,6.61,23.31,4,3.2,16.62,11.56,21,6.55,6.1-7-1.66-23.82-4.47-30.65-17.59-42.72-23.18-87.77-31.43-133-2.23-12.23-4.31-24.5-5.87-36.83-1.67-13.27.66-24.15,4.79-36.7,5.62-17.09-7.17-14.62-20.09-15.38-3.73-.22-8.85-.05-11.62-3.09C28.55,31.66,22,21.73,23.14,18.75c3,8.34,6.54,15.45,16.59,17.28,6.78,1.24,21.18-4.48,26.17.46S66.12,52.7,64,58.06c-3.57,9-3.34,19-2.63,28.58,1.49,19.8,10,37.56,14,56.82,3.87,18.67,7.55,37.79,9.55,56.74l-3.17.25c4.48,7.35,5,14.82,6.71,23.12a234,234,0,0,0,8.39,30.07c2.89,8.29,9.34,20.5,8,29.37C104.27,287,99.62,289.91,95.52,292.81ZM21.75,13.31c.27-5.72-9.61-12-14.29-9.14-6.52,4-4.34,20-2.72,25.72C6.46,36,10.11,47.73,16.8,39.16,21.47,33.18,20.62,20.77,21.75,13.31Zm47.43,121c-.33,3.69,10.18,62.82,11.43,64.1,0-12.67-3-25.39-4.79-37.78-.53-3.67-1.33-7.29-2.2-10.89C72.66,145.78,72.74,137,69.18,134.35Zm12.21,68.2c-.87,1.32-.4,4.57.86,5.91C83.2,206.2,82.77,203.24,81.39,202.55Z" transform="translate(0)"/><path d="M85.07,280.66,83.79,283c-1.5-1.81-9.45-22.23-7.33-22.8C78,259.75,84.28,277.8,85.07,280.66Z" transform="translate(0)"/><path d="M69.18,134.35c3.61,2.66,3.18,9.88,4,13.82,1.22,5.56,2.32,11,3.22,16.66,1.78,11.06,4.16,22.37,4.16,33.62C79.36,197.17,68.85,138,69.18,134.35Z" transform="translate(0)" fill="#fff"/><path d="M81.39,202.55c1.38.69,1.81,3.65.86,5.91C81,207.12,80.52,203.87,81.39,202.55Z" transform="translate(0)" fill="#fff"/></svg>