<svg id="Layer_1" data-name="Layer 1" xmlns="http://www.w3.org/2000/svg" viewBox="0 0 75.99 311.34"><title>leg-bone-left</title><path d="M289.2,240.24c-6.45,1.31-9,2.12-9.08,8.4-.06,5.4,1.75,11.62,3.26,16.71,3.79,12.79,4.67,24.72,4.57,38q-.27,39.74-1.58,79.47c-.83,26.61-1.12,53.39-2.91,79.95-.87,12.86-2.2,25.73-5.87,38.13-2,6.63-4.64,12.91-7.18,19.33S268.76,533,269.06,540c5.71,0,7.74,3.56,13.83,2.26,4.92-1.06,8.86-3.14,14-2.8,9.44.63,7.95,2.37,12.13,9.32,1.2,2-.24,3.08,2.94,2.71,1.68-.19,4.55-4.76,5.26-6,3.38-6,2.16-11.26,1.41-17.83-.87-7.56-1.21-15.21-1.57-22.81-.7-15.12-.77-30.33,0-45.45,3.21-62.63,15.5-124.17,27.6-185.56" transform="translate(-268.65 -240.24)" fill="#fff"/><path d="M344.64,273.84c-12.1,61.37-24.45,122.94-27.6,185.56-.76,15.12-.71,30.33,0,45.45.33,7,.63,14.06,1.35,21,.73,7.14,2.52,13-1.19,19.6-.94,1.65-3.32,5.78-5.26,6-3.22.37-1.53-.37-2.94-2.71-4-6.68-2.78-8.7-12.13-9.32-5.1-.33-9.12,1.76-14,2.8-5.94,1.26-8.11-2.26-13.83-2.26-.39-9-.73-14.64,2.71-22.9a149.83,149.83,0,0,0,7.6-22.8c3.53-14.89,4.23-30.51,4.79-45.75,1.17-32,2.27-64,3-96.07.34-15.76.69-31.51.81-47.27.05-7.13.31-14.33-.41-21.44-.83-8.06-3.7-15.14-5.53-22.9-1-4.41-3.87-14.48-.88-17.84,4.26-4.79,12.71-2.18,17.71-.9a110.5,110.5,0,0,0,19.52,3.25c6.49.57,12,4,18.39,5.41,1.37,3.82,2,7.53,3.29,11.3C341.5,266.48,344.64,268.84,344.64,273.84Zm-58.43-29.53a4.83,4.83,0,0,0-1.38-1.67c-4.45,7.35.81,22.33,3.45,29.72,3.62,10.15,4.25,22.05,3.38,32.83-1.92,23.86-1.41,47.88-2.48,71.81-2,44.3,4.25,93.66-12.14,135.75-2.59,6.65-9.73,22-1.18,27.7,3.82,2.57,7.51-.73,11.38-1.65,5.68-1.34,13.44,2.27,17.92-1.59,6.83-5.89,2.39-23.68,2-31.16-.63-12.08-.9-24.17-1.12-36.27a798,798,0,0,1,9.51-138.85c2.1-13.33,4.11-26.84,8.18-39.74,2.92-9.26,13.25-23.5,10.75-32.89-2.38-8.91-13.86-10.17-21.77-11.56C306.42,245.64,290,239,286.21,244.31Zm22.62,297c2.44,12.61,6.6-.27,6.36-6.8-.37-10-1.5-20.09-2.15-30.08-1.15-17.56-.26-36.08,1.25-53.77,3.32-39,9.77-77.3,15.47-116,2.8-19,8.13-38,10.22-57.06.3-2.77,1.38-9.16-2.26-9.41-2.15-.15-4.21,6.31-4.61,7.39-3,8-3,16.76-4.47,25.12-3.13,18-5.62,36.72-9.61,54.36-4.31,19.06-8.07,39.37-9.59,58.89-1.66,21.35-.42,43.29,0,64.67C309.84,499.25,314.49,521.39,308.83,541.27Zm8-196.4.31.07c3.92-16.26,7.92-34.36,9.38-51C323.88,296.63,316.29,337.65,316.85,344.87Z" transform="translate(-268.65 -240.24)"/><path d="M286.21,244.31c3.63-5.16,15.5.45,21.36,1.51,6.61,1.21,19.42,1.85,24.31,7,6.87,7.28.68,16.16-2.52,23.48a161,161,0,0,0-10.6,35.75c-8.49,46-13.29,93.51-13,140.32.16,22.91,1.1,45.7,2.46,68.56.26,4.35.74,12.95-3.1,16.25s-9.41.73-14.16,1.1c-4.06.31-9.41,4.17-13.24,3.18-5.37-1.39-5.9-9.59-5.47-13.89.95-9.62,6.69-18.9,9.28-28.18,3.26-11.65,4.21-23.69,5.13-35.71,1.75-22.68,1.09-45.5,1.74-68.22.75-26.34,1.2-52.75,2.25-79.08.54-13.49,2.58-27.35-1-40.68-2.36-8.83-10.31-24.12-4.88-33.09A4.83,4.83,0,0,1,286.21,244.31Z" transform="translate(-268.65 -240.24)" fill="#fff"/><path d="M308.83,541.27c5-17.6,1.18-35.66.79-53.89-.43-19.88-.73-39.78-.56-59.67.18-20.16,4.16-39.88,7.4-59.73,2.83-17.32,5.8-34.71,9.11-52.05,1.64-8.59,3.38-17.05,4.5-25.73.59-4.58,1.5-19.64,6.88-21.72,6.32-2.45,1.58,17.18,1,20.12-1.87,9.67-3.88,19.31-5.55,29-6.83,39.76-14.44,80.46-17.15,120.72-.66,9.82-1.54,19.54-1.67,29.39-.13,9.66-1.84,19.71-1.17,29.15.74,10.42,1.11,20.88,2.17,31.28.48,4.79,2.17,12.37-.78,16.64C310.12,550.15,309.59,545.18,308.83,541.27Z" transform="translate(-268.65 -240.24)" fill="#fff"/><path d="M316.85,344.87c-.56-7.22,7-48.24,9.69-50.94-1.46,16.65-5.46,34.75-9.38,51Z" transform="translate(-268.65 -240.24)" fill="#fff"/></svg>