<svg id="Layer_1" data-name="Layer 1" xmlns="http://www.w3.org/2000/svg" viewBox="0 0 52.52 54.74"><title>neck-bone</title><path d="M307.92,424.32c6.19-3.35,20.57,2,24.29-7.22s-8-21.25-1.71-30.17c-10.18,0-14.8-.72-22.71-7.06-4.88-3.92-9.55-10.29-16.39-10.29l.29.26c-.63,1.78-3,4.51-3.3,6.32-.38,2.34.9,3.75.81,6-.21,5.41-1.74,11.39-2.74,16.33-.38,1.85,0,4.9-.61,6.52-.7,1.92-3.25,3.5-4.31,5.48-2.92,5.44.26,9.13,5.66,12.17-1.78-5.46,15.57,1.36,16.4,1.68" transform="translate(-280.43 -369.58)" fill="#fff"/><path d="M305.28,378c3.55,2.63,7.56,6.78,11.81,8.26,4,1.39,9.23.68,13.41.68-4.47,6.34.84,17.76,1.45,24.64.46,5.34.45,6.39-4.5,9.07a27.76,27.76,0,0,1-11.68,3.23c-6.51.41-12.39.67-18.63-1.61-1.57-.58-11.5-4.4-9.94.38-4.5-2.54-8-6.27-6.35-11.07.88-2.55,3.89-3.88,4.83-6,.85-2,.34-5,.78-7.07.91-4.5,2.54-9.85,2.48-14.79,0-2.27-1.21-4.59-.79-6.78s2.74-4.81,3.54-7.06l-.29-.26c4.26,0,11.4,4,13.42,8-2-1.43-7.81-7.1-10.34-6.78-1.15.14-3.55,5.92-3.36,6.48C292.24,380.49,302.65,380.18,305.28,378Zm19.44,41.33c4.88-.06,6-7,3.56-10.46-3.14-4.49-7.27.09-11.59,1.28a29.66,29.66,0,0,1-15.25-.38c-4.39-1.16-8.72-4.17-13.23-2.37-3.92,1.55-7,6.3-3.4,9.5,2.27,2,7.91,1.91,10.85,2.76a39,39,0,0,0,13.73,1.88C314.81,421.26,319.36,418.66,324.72,419.32Zm-14.54-10c3.09-.74,17.71-4.47,18.14-7.62,1.12-8.28-18.85-4.75-23.09-5.41-3-.47-5.78-2.36-8.82-2-2,.22-8.84,4-8.66,6.6C288.07,405.68,306.31,408.85,310.18,409.28Zm15.94-18c0-3.31-1.72-2.51-4.07-3.38-4-1.48-7.6-2.67-11.51-4.39-6.38-2.81-17-4.48-19.63,3-2.12,6.1-.87,3.76,3.46,4.68,3.42.73,6.55,2.5,10,3C308.09,394.63,326.1,395.79,326.12,391.23Z" transform="translate(-280.43 -369.58)"/><path d="M305.28,378c-2,1.64-8,1.78-10.59,1.16-4.15-1-3.19.32-3-3.3C292.37,365.88,302,375,305.28,378Z" transform="translate(-280.43 -369.58)" fill="#fff"/><path d="M324.72,419.32c-4.87-.6-8.8,1.62-13.61,2.11a37.73,37.73,0,0,1-15.45-1.78c-2.74-.81-7.71-.67-10-2.11-4.7-2.92-1.69-8.31,2.59-10.15,4.05-1.75,8,.84,12,2,5.29,1.52,11.12,2.34,16.52.78,3.16-.91,8-5.38,11.21-2.6C331.24,410.48,329.64,419.26,324.72,419.32Z" transform="translate(-280.43 -369.58)" fill="#fff"/><path d="M310.18,409.28c-3.24-.36-21.76-3.49-22.6-7.91-.49-2.56,5.92-6.26,7.56-6.69,3.77-1,6.33,1,10.09,1.57,5.36.83,21.15-3.32,22.63,4.3C328.71,404.91,314.3,408.3,310.18,409.28ZM296.93,398.7c2.71,7,22.77,3.87,21.35,1.06C310.27,400.56,304.84,400.77,296.93,398.7Z" transform="translate(-280.43 -369.58)" fill="#fff"/><path d="M326.12,391.23c0,4.78-16.66,3.27-20.55,2.9-3.56-.34-6.33-2.2-9.78-2.74-5-.79-7.24,1.9-4.88-4.89,1.64-4.71,2.4-4.83,7.15-4.87,3.59,0,8.07-.18,11.45,1.18,3.93,1.57,6.87,3.76,11.12,4.88C323.35,388.41,326.13,387.36,326.12,391.23Z" transform="translate(-280.43 -369.58)" fill="#fff"/><path d="M296.93,398.7c7.91,2.07,13.34,1.86,21.35,1.06C319.72,402.62,299.62,405.67,296.93,398.7Z" transform="translate(-280.43 -369.58)"/></svg>