<svg id="Layer_1" data-name="Layer 1" xmlns="http://www.w3.org/2000/svg" viewBox="0 0 28.36 76.45"><title>thumb-bone-right</title><path d="M320.88,403.44c-2.43-6.6-4.28-14.18-6.41-21-2.47-7.86-2.4-17.46-7.63-24.05-4.3.8-18.13,4.28-13.26,11.37.75,1.08,2.76.8,3.75,1.75a15.61,15.61,0,0,1,3.67,5.24c2.14,4.36,2.74,8.89,4,13.5,2.14,7.6,6,15.21,6.43,23.23.31,5.24-6.11,18.75,1.74,21.36" transform="translate(-292.56 -358.43)" fill="#fff"/><path d="M313.2,434.88c-7.57-2.51-1.83-14.76-1.64-19.81.32-8.42-4.32-16.88-6.53-24.78-1.28-4.61-1.88-9.12-4-13.5-2.06-4.19-4.64-3.85-7.06-6.76-5.74-6.89,8.52-10.79,12.9-11.6,5.22,6.57,5.11,16.24,7.63,24.05,2.21,6.86,5.68,13.37,6.31,20.69C321.3,409.25,320.71,434.88,313.2,434.88Zm-19.31-68.63c8.9,4.65,10.7,10.09,13.31,19.53.64,2.29,1.05,8.46,3.44,9.67,4,2,3.67-2.75,3.57-4.7-.16-3.47-2.62-7.4-3.61-10.74-1.22-4.17-1.64-8.48-2.72-12.67C305.5,358.12,299.4,360.72,293.89,366.25ZM315,420.8c3.64-1.61,5.48-22,.87-22.65-5.1-.66-2.92,5.87-2.36,8.54C314.49,411.19,313.33,416.73,315,420.8Zm.86,5.85c-1.62-8.49-5.17,1.19-2.48,5.33C314.92,430.91,315.31,428.32,315.89,426.65Z" transform="translate(-292.56 -358.43)"/><path d="M314.64,434.88c6.2-2.54,5.46-21.53,6.24-27.36v27.36Z" transform="translate(-292.56 -358.43)" fill="#fff"/><path d="M293.89,366.25c5.51-5.53,11.61-8.13,14,1.09,1.08,4.19,1.5,8.5,2.72,12.67,1,3.34,3.45,7.27,3.61,10.74.1,1.95.42,6.72-3.57,4.7-2.39-1.21-2.8-7.38-3.44-9.67C304.59,376.34,302.79,370.9,293.89,366.25Z" transform="translate(-292.56 -358.43)" fill="#fff"/><path d="M315,420.8c-1.5-3.59-.39-8.64-1.1-12.61-.45-2.49-4-10.83,2-10C320.52,398.77,318.56,419.24,315,420.8Z" transform="translate(-292.56 -358.43)" fill="#fff"/><path d="M315.89,426.65c-.58,1.67-1,4.26-2.48,5.33C310.72,427.84,314.27,418.16,315.89,426.65Z" transform="translate(-292.56 -358.43)" fill="#fff"/></svg>