<?xml version="1.0" encoding="UTF-8" standalone="no"?>
<!-- Generator: Adobe Illustrator 19.0.0, SVG Export Plug-In . SVG Version: 6.00 Build 0)  -->

<svg
   version="1.1"
   id="Layer_1"
   x="0px"
   y="0px"
   viewBox="0 0 512 512"
   style="enable-background:new 0 0 512 512;"
   xml:space="preserve"
   sodipodi:docname="squirrel-facing-right.svg"
   inkscape:version="1.2.2 (b0a8486541, 2022-12-01)"
   xmlns:inkscape="http://www.inkscape.org/namespaces/inkscape"
   xmlns:sodipodi="http://sodipodi.sourceforge.net/DTD/sodipodi-0.dtd"
   xmlns="http://www.w3.org/2000/svg"
   xmlns:svg="http://www.w3.org/2000/svg"><defs
   id="defs9" /><sodipodi:namedview
   id="namedview7"
   pagecolor="#ffffff"
   bordercolor="#000000"
   borderopacity="0.25"
   inkscape:showpageshadow="2"
   inkscape:pageopacity="0.0"
   inkscape:pagecheckerboard="0"
   inkscape:deskcolor="#d1d1d1"
   showgrid="false"
   inkscape:zoom="1.3398435"
   inkscape:cx="256.00005"
   inkscape:cy="255.62687"
   inkscape:window-width="1128"
   inkscape:window-height="688"
   inkscape:window-x="0"
   inkscape:window-y="27"
   inkscape:window-maximized="1"
   inkscape:current-layer="Layer_1" />
<path
   d="M467.584,235.174c-7.012,0-12.716,5.705-12.716,12.716s5.705,12.716,12.716,12.716s12.716-5.705,12.716-12.716 C480.3,240.879,474.594,235.174,467.584,235.174z"
   id="path2" />
<path
   style="fill:#bc7545;fill-opacity:1"
   d="m 10.726809,291.05495 9.229804,-55.33035 36.995327,-16.70679 20.62186,0.51949 29.08658,16.09847 c 0,0 5.98903,6.43522 15.93085,13.99417 9.94182,7.55895 18.45507,14.52802 18.45507,14.52802 l 27.69389,12.98347 10.03512,-3.67448 44.7665,-59.08717 77.8547,-39.76842 51.89902,11.9519 30.97467,11.49518 53.62438,-6.04818 27.83368,11.73176 32.71307,34.26959 3.69561,25.36248 -4.43327,17.47673 -32.38767,7.43342 -29.02242,0.83293 -16.49544,13.95443 -17.72883,10.89892 -9.91559,7.01031 -7.28945,6.17589 -43.59931,-20.54841 -43.29859,6.75702 -30.69122,-13.06958 -12.75613,26.54332 -30.66081,6.24691 -21.3574,-24.20537 -17.78036,-5.3068 -32.39542,7.3212 -50.69267,-34.1302 -37.782392,-18.86289 -15.416684,10.2757 z"
   id="path903"
   sodipodi:nodetypes="cccccscccccccccccccccccccccccccccccc" /><g
   id="g847"><path
     d="M501.022,228.179c-2.808-4.213-13.205-15.174-24.208-24.777c-23.141-20.199-32.368-20.199-35.403-20.199 c-9.614,0-48.016,5.093-59.746,6.681c-8.843-5.134-33.975-17.371-72.578-17.371c-14.453,0-43.035,2.496-72.075,19.213 c-28.194,16.231-48.027,40.756-58.975,72.921c-1.569,1.226-5.028,3.405-9.99,3.617c-8.161,0.351-17.82-4.614-27.914-14.361 l-0.414-0.4c-11.361-10.97-26.921-25.995-44.951-35.253c-22.451-11.529-43.975-11.678-63.976-0.442 C-1.43,235.904-0.049,293.612,0.027,296.061c0.078,2.594,1.367,5.001,3.482,6.506c2.115,1.504,4.811,1.931,7.289,1.154 c14.553-4.566,23.983-13.107,32.303-20.642c8.862-8.025,15.86-14.363,27.138-14.363c14.307,0,31.639,14.06,45.566,25.357 c8.867,7.192,16.524,13.403,23.495,16.5c22.057,9.805,42.945,6.163,52.504,3.526l5.109,5.109 c2.162,2.39,19.094,20.277,41.405,20.277h8.836c0.006,0,0.011,0.001,0.018,0.001c0.006,0,0.01-0.001,0.016-0.001h26.516 c4.581,0,8.293-3.713,8.293-8.293s-3.712-8.293-8.293-8.293h-5.746c2.22-2.727,4.452-5.809,6.542-9.254 c6.195,1.878,19.509,5.217,35.852,5.217c10.324,0,21.854-1.342,33.552-5.221l49.939,24.97c0.048,0.024,0.098,0.04,0.147,0.063 c0.199,0.095,0.401,0.182,0.609,0.261c0.083,0.032,0.166,0.062,0.249,0.091c0.208,0.072,0.419,0.134,0.634,0.189 c0.083,0.021,0.165,0.045,0.249,0.064c0.223,0.05,0.451,0.088,0.681,0.119c0.075,0.01,0.149,0.025,0.224,0.034 c0.301,0.033,0.606,0.053,0.917,0.053h17.693c4.581,0,8.293-3.713,8.293-8.293s-3.712-8.293-8.293-8.293h-9.399v-3.096 c8.302-2.856,22.26-9.678,31.992-24.863c1.283,0.202,2.596,0.314,3.945,0.314h35.385c1.287,0,2.558-0.3,3.71-0.876 C512,278.815,512,273.069,512,269.266C512,262.677,505.776,235.31,501.022,228.179z M281.58,298.397 c1.425-4.336-0.92-9.012-5.254-10.457c-4.349-1.449-9.043,0.899-10.491,5.246c-5.34,16.019-16.894,26.226-21.373,29.715h-6.145 c-9.552,0-18.169-5.39-23.513-9.677c5.11-6.132,8.538-12.78,11.66-18.84c5.673-11.004,10.572-20.507,24.009-26.355 c36.322-15.81,68.82,0.945,77.902,6.436l6.168,24.673C312.361,305.171,290.968,300.93,281.58,298.397z M475.188,278.669h-33.406 c-6.341,0-13.681-7.821-19.04-13.533l-1.478-1.57c-3.15-3.325-8.401-3.467-11.725-0.317c-3.325,3.15-3.467,8.399-0.316,11.725 l1.423,1.513c3.399,3.621,7.374,7.853,11.978,11.382c-10.319,14.411-25.762,17.332-26.437,17.453 c-3.998,0.667-6.93,4.126-6.93,8.181v4.274l-37.664-18.831l-7.921-31.684c-0.482-1.926-1.638-3.616-3.26-4.761 c-1.849-1.307-45.865-31.745-96.558-9.678c-18.854,8.207-25.909,21.891-32.132,33.964c-2.733,5.302-5.364,10.399-8.897,14.882 l-2.874-2.874c-2.342-2.342-5.884-3.052-8.962-1.829c-0.218,0.086-22.148,8.59-44.952-1.545 c-4.964-2.206-12.161-8.045-19.782-14.226c-15.963-12.948-35.827-29.061-56.014-29.061c-17.673,0-28.144,9.484-38.271,18.656 c-4.808,4.352-9.448,8.557-14.929,11.95c1.47-17.266,6.817-42.009,21.877-50.467c34.736-19.508,67.562,12.192,89.283,33.167 l0.416,0.4c13.635,13.167,27.147,19.56,40.148,19c14.047-0.604,21.882-9.145,22.73-10.116c0.733-0.841,1.289-1.822,1.635-2.884 c9.487-29.154,27.036-51.27,52.163-65.734c18.768-10.805,42.022-17.001,63.798-17.001c40.083,0,63.673,14.668,66.232,16.34 c1.674,1.094,3.688,1.548,5.665,1.275c4.964-0.681,12.951-1.745,21.559-2.837c-4.426,10.92-2.218,23.921,6.625,32.764 c3.245,3.244,7.074,5.652,11.378,7.158c0.906,0.317,1.829,0.467,2.738,0.467c3.427,0,6.634-2.141,7.829-5.558 c1.512-4.324-0.767-9.054-5.091-10.566c-1.934-0.676-3.659-1.764-5.125-3.23c-5.319-5.318-5.319-13.969,0-19.287 c2.575-2.576,6-3.994,9.644-3.994c3.644,0,7.068,1.419,9.643,3.994c3.091,3.091,4.491,7.348,3.844,11.679 c-0.677,4.53,2.446,8.751,6.976,9.429c4.528,0.675,8.751-2.446,9.429-6.975c0.421-2.815,0.425-5.649,0.056-8.422 c1.693,1.369,3.493,2.877,5.419,4.559c10.822,9.447,19.757,19.146,21.294,21.451c2.155,3.505,6.853,21.881,7.969,29.491 C491.777,269.499,483.529,274.399,475.188,278.669z"
     id="path4" /></g>
</svg>
