<svg id="Layer_1" data-name="Layer 1" xmlns="http://www.w3.org/2000/svg" viewBox="0 0 273.7 362.23"><title>back-bone</title><path d="M232.71,475.32l0-.36c-4.63,0-11.25-3.57-14.65-6.5-1.93-1.66-5.94-5.22-3.86-7.78,2.61-3.22,5,1.7,7,3.38,6,5.14,9.93,6.31,15.74,1.72,3.87-3,9.88-14.77,14.95-14.59-.9,6.06-9.94,17.61-14.49,21.54l.13.37c3.8-.64,8-5.93,10.7-8.63-.48,1.25-4.19,8.09-2.58,9.39,1,.77,4.29-8,4.75-8.8a87.3,87.3,0,0,1,8.57-12.2c3-3.51,24.44-26.11,27.67-24.61,7,3.27-18.59,24.45-20.57,26.18-3.8,3.33-8.56,6.61-11.5,10.76-1.15,1.62-1.17,3.61-2.63,5.35-.87,1-2.51,1.6-3,2.65l.23.21c4.31-2.63,7.95-7.17,11.53-10.7,2.43-2.4,8.8-10.55,12.77-10.73,2-.1,3.84,4,6.11,5.46,2.88,1.91,2.9-.55,4.53,2.28,1,1.68,0,6.48,0,8.29-5.25-1.11-9.43-.23-9.89,6.06-.48,6.54,4.91,6.77,10.07,8-.31,3.48-.24,7.4-1.14,10.76-2,7.58.83,2-3.79,3.45-2.73.88-5.48-1.51-7.79,2.06-1.16,1.79-.85,5.83.36,7.59,2.91,4.25,7.63,1.78,9.56,6.15.57,1.27-.24,11.21-1.23,12.29-1.51,1.64-5.07.73-7.22,1.9s-5.76,5-4.86,7.87c1.09,3.48,3.77,3,7.06,3.57,5.3,1,10.59,4.45,2.8,7-3.05,1-5-1.85-7.28,1.7-1.68,2.64.32,5.23,1.59,7.08,1.37,2,12.34,8.07,6.29,9.24,2.4,10.21,13.1,12.85,22.11,13.78,4.3.44,33-.66,30.17-7.51-1.46-3.59-6.61-1.08-.78-5.25,3.78-2.71,10-2.93,11.69-8.24,1.48-4.68-1.86-8.07-6.39-8.43-3.39-.27-9.35,5.4-12.12,4-2.27-1.11-1.2-12,0-13.56,2.7-3.33,8.35-.18,11.87-3.41,3.17-2.89,2.24-7.14-1.26-9.23-4.25-2.52-8.81,2.94-11.86-.76-.9-1.1-3-11.42-2.24-12.62,1.85-3.07,8.24-.17,11.29-2.14,3.52-2.27,4-7.91,1.3-11.52-3.22-4.36-8.61-1.47-13.57-1.58,0-2.8-1.5-11.08.35-13.38,2.5-3.14,6.84-.87,9.51-4.91a6.93,6.93,0,0,0-1.34-9.35c-3.19-2.57-5-1.17-8.84.11-.42-3.3-1.94-7.35.17-9.24,2.51-2.26,5.91.72,7.26-4.85,1-4.28-1.22-5.27-4.39-6.75-.46-.22-9.44-2.9-4.7-5.76,3.16-1.89,21.19,13.07,23.7,15.27,7,6.15,8.66,18.38,17,22.42,1.4-5.47-.66-12.94-1.09-18.6,9,7.56,17.57,11.62,29,5.5,8.44-4.51,11.8-12.42,13.88-21.24,2.78-11.83,3.57-22.84,4.21-35s2-22.32-1.59-33.81c-1.35-4.27,0-6.48.17-10.94.17-5.36-2.58-10.08-2.22-15.3.77-10.9,5.18-23.1,9-33.31,1.81-4.87,5-9.22,6.76-14,1-2.73,2.79-6.44-2-3.72-2.93,1.66-6.13,11.86-7.31,15-1.94,5.09-2.58,10.81-5.68,15.38l-.32-.09c-.3-4.18-3.55-7-4.47-11s-.13-7.87-1.07-11.79c-1.83-7.65-7.42-13.18-8.71-20.82-1.33-7.9-3.1-12.06-7.89-18.34-2.46-3.23-2.37-4.72-3.65-8.55-.36-1.08-3.82-6-3.24-7,2.24-3.66,18.14,6,21.92,5.64,5.47-.51,5.2-3,11.37-.81,3.52,1.27,7.23,2.34,10.67,3.61,4.56,1.69,3.88,2.4,9.24,1.15a118.4,118.4,0,0,1,12.94-2.26c1.85-.21,3.68,2.14,5.16-1,1.24-2.64-5.37-8.89-7.27-10.28-8.45-6.23-18.2-8.9-27.79-12.47-7.48-2.79-15.29-2.91-23.41-4a87.18,87.18,0,0,0-15.74-.58c-3.87.18-9.53,1.66-12.47-.6-1.29-1-2.31-3.91-3.65-5.25a28,28,0,0,0-6.2-4.26c-3.55-2-10.65-2.42-13-5.64-1.78.72-3.88.76-4.81,2.73,4,3.17,9.72,2.51,14.41,4.52,4.25,1.82,9.24,5.23,11.64,9.26-5.63,3.35-14.76-1.9-20.33-3.06-6.8-1.41-14.41.76-14.51-8.85h-6.23c.79.62,2.3.37,3,1,1.14,1,1,3.5,1.67,4.82,1,2,4.47,4,5.05,5.46,2.5,6.25-4.28,13.28-10.34,14.16-6.79,1-18.29-3-18.07-11.28.11-4.4,1.41-2.3,3.16-4.84,2.12-3.09,2.33-5.31,2.61-9.17h5v-.43c-2.6-.38-5.79-2.16-8.29-2.23-3.1-.09-4.56,1.38-7.8,1-5.87-.74-8-4.45-14.06-1.81-6.25,2.7-9.9,8.45-17,8.68-6.36.21-13.44-1.86-20-1.93a271.59,271.59,0,0,0-38.67,2.14c-10.79,1.43-24.6,3.43-29.16,14.75,3.36-.94,4.32-2.88,7-4.38,4.56-2.59,10.29-4.08,15.33-5.36,11.48-2.9,23.32-3.9,35.12-4.15a175.32,175.32,0,0,1,36.31,2.61c6.28,1.21,24.19,5.23,26,13,.73,3.23-3.56,8.81-7.17,9.32-4.55.64-9.1-5.71-12.79-7.94-8.93-5.39-19.57-7.67-29.86-8.22-10.89-.58-22.62-1.29-33.41.64-2.53.46-20.66,3-14.6,7.53a9.63,9.63,0,0,1,6.59-2.3c-1.58,1.93-3.92,2.14-6.43,2.78l5.23,3c.48-3.85,11.34-3.35,13.89-3.23,5.48.28,7.67,1.92,11.23,6.11,2.77-1.44,22.95-10.36,25.11-5.49.55,1.26-9.66,16.16-11.19,17.81-4.53,4.87-9.72,6.95-11.07,14.26-.52,2.79.51,5.3-.87,7.94-1.21,2.34-4.7,4.26-6.37,6.31-5.2,6.35-5.95,13.33-6.67,21.21-2.55-1.35-5.67-10.44-7-13.07-2.41-4.7-6.11-9.91-6.55-15.3-4.84,4.53-.62,9.87,2.41,14.93,2,3.27,4.88,6.46,6.4,10,1.92,4.46,1.49,9.15,1.38,14.07-.24,10.38-3,20.13-3.53,30.33-.24,4.62-1.89,8.57-2.83,13.07-1.06,5-.34,10.21-1.46,15.19-2.07,9.22-5.24,17.12-2.72,26.76,1.48,5.66,1,7.81.56,13.68-.31,4.58.92,9.24,2.45,13.51C206.77,451.67,208.75,478.11,232.71,475.32Z" transform="translate(-169.77 -215.05)" fill="#fff" stroke="#231f20" stroke-miterlimit="10" stroke-width="0.75"/><path d="M232.71,475.32c-23.68,2.76-25.3-22.45-31.34-38.75-3.59-9.69-1-18.16-3-27.45-2.29-10.49-.09-17.76,2.2-28,1-4.5.43-9.18,1.21-13.72s2.84-8.53,3.17-13c.72-10,3.05-19.89,3.38-30.07.16-4.77.8-10.52-.82-15-1.21-3.34-4.12-6.84-6.07-9.89-3.25-5.09-8.36-11.07-3.24-15.86.43,5.29,4.18,10.68,6.55,15.3,1.64,3.19,4,11.47,7,13.07.72-7.88,1.47-14.86,6.67-21.21,1.67-2.05,5.16-4,6.37-6.31,1.38-2.64.35-5.15.87-7.94,1.35-7.31,6.54-9.39,11.07-14.26,1.53-1.65,11.74-16.55,11.19-17.81-2.16-4.88-22.39,4.08-25.11,5.49-3.5-4.11-5.73-5.86-11.23-6.11-2.74-.12-13.42-.55-13.89,3.23l-5.23-3c2.51-.64,4.85-.85,6.43-2.78a9.63,9.63,0,0,0-6.59,2.3c-6-4.45,11-6.82,13.32-7.27,10.7-2.06,22.14-1.47,33-1s22.09,2.57,31.57,8.3c3.6,2.17,7.38,7.7,11.58,7.89,3.89.19,9.18-5.76,8.38-9.27-1.79-7.84-19.61-11.82-26-13a172.12,172.12,0,0,0-34.37-2.64c-11.87.16-23.78,1-35.36,3.76-5.41,1.28-12.2,2.89-17,5.78-2.65,1.58-3.67,3.45-7,4.38,4.36-10.8,17.15-13,27.5-14.54a257.73,257.73,0,0,1,40.33-2.35c6.66.07,13.46,1.94,20,1.93,6.3,0,10.31-4.9,15.61-7.77,6.9-3.75,8.57-.17,15.46.9,3.34.52,4.59-1,7.8-1,2.6,0,5.64,1.84,8.29,2.23v.43h-5c-.23,3.16-.21,6.15-2.17,8.76-1.67,2.21-2.9.71-3.62,4-2,9.07,11.54,13.49,18.09,12.53,5.57-.81,13.4-7.83,10.49-14.06-.64-1.39-3.79-2.81-4.83-4.57-.79-1.34-.63-3.79-1.66-5s-2.11-.84-3.41-1.86h6.23c.1,9.78,7.64,7.33,14.51,8.85,5.73,1.27,14.64,6.45,20.33,3.06-2.41-4-7.4-7.43-11.64-9.26-4.69-2-10.39-1.35-14.41-4.52.93-2,3-2,4.81-2.73,2.19,3,9.72,3.83,13,5.64,4,2.2,6.13,5.7,9.32,8.31,1.2,1,1,1.71,2.41,2.44,1.82.92,6.85-.44,8.82-.55a92.4,92.4,0,0,1,15.78.25c18.66,2.17,37.16,5,52.93,16.72,2,1.45,8.19,7.06,7.71,9.67-.74,4-3.95,1.42-5.6,1.61-3.67.43-7.43,1.09-11.09,1.89-5.95,1.31-5.38,1.08-10.31-.39a99.22,99.22,0,0,1-10.27-3.47c-5.76-2.41-6.5-.82-12,.06-4,.65-20.35-8.94-22.51-5.42-.58.94,2.88,5.89,3.24,7,1.28,3.83,1.19,5.32,3.65,8.55,4.79,6.28,6.56,10.44,7.89,18.34,1.29,7.64,6.88,13.17,8.71,20.82.94,3.92.18,8,1.07,11.79s4.17,6.78,4.47,11l.32.09c2.85-4.21,3.54-9.38,5.22-14.09,1.18-3.34,4.43-13.77,7.36-15.72,3.41-2.27,3.83-1.55,3.33,1.92-.63,4.34-6,10.76-7.67,15.25-3.73,10.08-8.5,22.53-9,33.31-.2,4.61,1.87,8.82,2.16,13.45.33,5.14-1.49,8-.11,12.79s3,7.77,2.9,13c-.15,6.92-.94,13.9-1.31,20.81-.64,12.2-1.42,23.19-4.21,35-2,8.43-5,15.92-12.81,20.6-11.59,7-20.76,3-30.11-4.86.43,5.66,2.49,13.13,1.09,18.6-8-3.89-9.45-15.4-15.88-21.42-2.61-2.45-21.4-18.3-24.79-16.27-3.79,2.28,2.8,5.15,3.75,5.61,3.11,1.5,5.85,1.28,5.6,5.81-.33,6.26-5,3.52-7.52,5.94-2,1.89-.58,6-.17,9.24,3.58-1.19,5.73-2.58,8.8-.16a6.92,6.92,0,0,1,1.38,9.4c-2.47,3.74-7,1.67-9.25,4.33-1.94,2.31-.61,11.48-.61,14,4.36.1,9.71-2.36,13,.67,2.52,2.31,2.9,9.42.54,11.83-3.08,3.15-10.05-.62-12.11,2.24-1.23,1.71.37,11.46,1.81,13.12,2.87,3.29,6.72-1,10.54.31,4.31,1.46,6.29,6.35,2.58,9.68-3.24,2.91-9.05.16-11.57,2.73-1.37,1.39-2.8,13.24-.34,14.24,2.89,1.17,7.58-3.87,10.57-4.13,5-.43,9.63,3.24,7.94,8.51-1.47,4.57-6.66,5.54-10.25,7.59-.67.38-4.91,1.46-4.57,3.34.29,1.62,3.51,1.6,3.91,2.56,2.54,6.15-24.06,8.34-28.3,7.81-9.52-1.18-21.37-3-24-14.08,6.05-1.17-4.92-7.23-6.29-9.24-1.27-1.85-3.27-4.44-1.59-7.08,2.28-3.55,4.23-.7,7.28-1.7,7.91-2.61,2.51-6-2.8-7-3.29-.65-6-.07-7.06-3.57-.9-2.91,2.67-6.67,4.86-7.87s5.71-.26,7.22-1.9c1-1.08,1.8-11,1.23-12.29-1.92-4.31-6.69-2-9.56-6.15-1.21-1.76-1.52-5.8-.36-7.59,2.31-3.57,5.06-1.18,7.79-2.06,4.62-1.49,1.77,4.13,3.79-3.45.9-3.36.83-7.28,1.14-10.76-5.15-1.22-10.55-1.43-10.07-8,.47-6.38,4.58-7.18,9.89-6.06,0-1.44.69-7,0-8.29-1.05-1.83-1.75-.85-3.3-2-1.72-1.3-6-5.72-7.34-5.72-3.44,0-9.36,7.38-11.47,9.43-4,3.92-8,9.06-12.83,12l-.23-.21c.44-1,2.2-1.72,3-2.65,1.58-1.88,1.34-3.55,2.63-5.35,2.94-4.14,7.73-7.45,11.5-10.76,2.28-2,27.56-22.94,20.57-26.18-3.15-1.46-24.89,21.34-27.67,24.61a88.15,88.15,0,0,0-8.57,12.2c-.45.76-3.75,9.61-4.75,8.8-1.61-1.3,2.1-8.14,2.58-9.39-2.73,2.69-6.79,8-10.7,8.63l-.13-.37c4.58-4,13.59-15.49,14.49-21.54-4.82-.17-11,11-14.53,14-1.11.95-4.32,4.17-5.48,4.34-2.76.39-8.69-3.73-10.68-5.44-1.65-1.41-3.66-5.54-6.21-4.29-3.68,1.82.53,6.28,2.17,7.87,3.38,3.28,10.68,7.32,15.59,7.32Zm54.72-37.55c-.11,1.64.41,9.23-.83,10.29s-3.83-.38-5.2.51c-8.28,5.37,4.2,5.84,5.87,8.06,3,3.95-.61,13.08-3.56,14.51-2.8,1.35-2.7-3.07-5.91.53-2,2.2-1.37,4.66.22,6.58,1.41,1.7,5.32.73,6.82,2.19,2.22,2.15,1.4,5.79,1.26,8.63-.11,2,.3,7.92-1,9.45-1.94,2.27-2,.31-4.79.43-5.15.22-10.89,3.39-3.77,7.46,2,1.16,5.87-.2,7.51,1.62,1.48,1.64,0,7.4-.12,9.39s.59,7.68-.72,9.3c-1.83,2.25-3.2.06-5.86.56-4.4.83-9.58,4.79-4.22,7.82,3.5,2,12.62.09,12.09,7.09-.61,7.85-9.16,1.47-11.86,4.76-4.47,5.43,8.53,9.45,9.75,12.78,1.54,4.23-1.74,2.46-2.06,5.48-.21,1.89,3.49,4.82,5,5.84,11.07,7.4,31,5.46,42.17-.27-10.91-7.54,2.25-8.44,7.69-13,2.06-1.74,4.81-4.6,2.31-7.35-3.44-3.8-7.59,1.11-10.54,2.21-9.63,3.57-10.22-9-7.33-15.79,1.83-4.27,1.69-3.18,6.48-3.42,2.79-.14,9.47-.3,6.87-5.17-3.38-6.34-12.63,4.59-14.94-6.44-.5-2.36-2.62-7.73-2.08-10,1-4.44,5.48-3.42,9.07-4.38s6.64-1.2,4.48-6.39c-1.7-4.09-2.72-1.89-7.24-1.59-10.25.68-7.32-13.81-7.32-21.38,3.08.49,6.61,1.6,9.23-.75,3.2-2.86,2.12-4.85-1.61-5.81-8.82-2.28-18.06,5.17-27.19.75l.12-.35c7.48-1.43,17.89,3.43,17.89-7.56-1,.1-27.26,5.12-24.6-.75.19-.43,18.62,1.84,21.75-.72,1.8-1.48,1-4.22,2.36-5.41,2-1.75,5.35.29,7.51-1.59,5.56-4.84-5.11-7.82-8.59-8-2.52-.14-5.85,2.26-8.75,2.4-3.69.17-8.72-.19-11.9-2.21,1.32-.33,27-.83,20.55-6.52-1.59-1.4-9.11,1-11.36.83C295.94,442,292,440,287.43,437.77Zm11.33-106.83.17.61c-4.36,3-7.5.67-9.53,6.52-2.09,6.07.6,12.46,3.82,17.56,2.69,4.26,5,6.95,6.24,11.92s1.64,11.58,4.32,16c3.74,6.21,5.26,2.58,6.61-2.59a51.2,51.2,0,0,1,6-14.63c5.56-9,9.44-19.47,8.47-30.22-1.08-12-2.51-23.8-4.33-35.67-1.79-11.66-1.42-19.16,6.4-27.8,6.82-7.54,5.81-20.91-4.26-25.78-3.89-1.87-8.59,1.51-13,1.4-5.85-.15-10.55-3.27-15.28-6.35-2.38,2.09-2.84,6.52-5.44,8.92-3.87,3.58-7.22,1.58-8.23,6.64-1.64,8.3,10,18.7,14.08,25.15,6.26-3.14,16.41-5.94,22.53-1-.93,1.94-12.25.65-14.78,1-6.93,1-8.24,3.69-8,10.71s1,12-1,18.93c-2,6.77-2.17,11.95-1.83,19.12Zm-10.17,57.39a174,174,0,0,0-20.24,36.14c3-1.69,5.35-4.32,8-6.39s9.68-4.42,11.37-6.81c1.18-1.67,2.08-4-.53-4.77-2-.59-8.09,5-9.5,6l-1.29-1.5c3.36-2.8,6.65-5.59,9.78-8.59,2.73-2.61,2.1-5.52,4.35,2,1.5,5.07.59,8.47,0,13.5-.46,3.72-3.05,15.6-1.34,18.83,2.79,5.28,21.4,5.8,24.69.77,1.62-2.48-1.61-10.06-3.53-11.15-4.23-2.39-9.86,4.39-14-1.34,5.85.81,10.21-.23,15.78-2,5-1.55,5.16-1.76,10,2.16,9.59,7.81,18.27,17.07,27.34,25.49l.34-.22c-6.25-16.07-18.82-23.24-31.55-34.07-3.49-3-10.83-11.67-3-15.53,4.43-2.19,12.74,6.8,16.49,9.52l.28-.23c-2.6-5.45-5.23-17.93-13.26-16.12-1.18.26-1.81,3.11-3.08,2.61-2.26-.88-2.31-8-2.59-9.95-4.66,4.16-8.51,5.23-11.75-1.33-2.37-4.79-2.14-14.63-7.73-4.68-9.28,16.52,8.77,14.42,19.42,14.42-1.48,3.52-8.93,3.29-12,2.87s-11.19-5.4-13.6-4.12C286.35,391.67,288.21,390.21,288.59,388.33Zm.94-32.38c-7.35,7.66-14.75,15-23.68,20.9-3,2-18.48,8.1-10.12,11.94,2.61,1.2,8.51-3.28,10.41-1.29,2.87,3-2.58,9.21-4.55,11.11-3.48,3.35-8.32,3.42-11.82,6.29-1.49,1.23-5.25,6.58-3.32,8.5,2.69,2.66,17.09-7.27,19.43-8.75-1.56,7.59-11.29,10.34-15,16.46-2.75,4.54-4.66,8.27-8.94,12.72,18.43,1.68,27.31-22.75,35-35.12,4.53-7.34,9.69-15.84,15.61-22.17,3.55-3.79,5.61-3.72,4.37-9.09C295.87,363.09,292.51,359.11,289.53,356Zm79.6,94c0-6.15.77-7.47-4.6-10.26A42.41,42.41,0,0,1,354.34,433c-1.29-1.16-11.47-9.46-10.5-12.11,1.56-4.23,5,.59,6.86,1.77,14.73,9.46,51.31,3.27,49.43-19.14l-.35-.06c-9,11.95-35,22.89-48.24,12-6.62-5.46-8.65-15.53-13.91-22.3-5.49-7.07-11.42-19.21-19.8-23.18-2.82,6.58,6.81,16.58,9.66,22.45,3.71,7.63,7.46,15.33,11,23,3.33,7.21,5.58,15.54,9.64,22.34C352.59,445.2,361.43,447.21,369.13,450ZM366,243c13.59.62,28.69.53,41.07,7,4.71,2.45,8.95,8.68,13.88,10.19,4.26,1.31,13-1,16.81-2.5-6.88-11.62-24.71-17.41-37.16-20-13.78-2.9-28.76-3.23-42.78-2.18a165.53,165.53,0,0,0-22.28,3.17c-8.39,1.82-14.39,2.67-6.13,10.44,1.58,1.49,1.63,2.63,3.68,2.85,1.6.17,8.21-3.71,9.83-4.32C350.21,244.85,358.13,242.82,366,243ZM356.52,375c-2-3.78-3.12-3.62-6.09-5.88,2.53-3.26,13.29-2.43,17.09-3.11,6.63-1.17,14-3.12,19.67-6.91,10.89-7.23,14.51-24.12,7.71-35.2-3,4.91-2.08,9.31-3,14.86-1.05,6.35-4.59,10.34-10.06,13.47-10.92,6.23-29.93,6.24-41.7,2.59-3.64-1.12-8.86-6.21-12.28-4.94-10,3.71,2.17,11.63,4.6,13.75,4.91,4.28,7.81,8.28,14.28,10.15a53.73,53.73,0,0,0,23,1.56l0-.42C364.79,371.33,358.33,367.45,356.52,375Zm4.58,12.8c-1.68-6.88-2.59-8.67-9.58-10.23a82.28,82.28,0,0,1-11.22-3.08c-5.24-2-10.85-6.92-15.95-8.33s-4.32-.22-1.08,4.48c6.89,10,15.33,20.36,22.88,29.86,3.07,3.86,6,4.64,11.11,5.72,3.72.78,3.27.72,6.32-.17.74-.22.36-3.07,1.65-3s.82,3.15,1.41,3.47a11.66,11.66,0,0,0,2.87.95c4.73,1.44,14.19-1.62,18.61-3.36,10.73-4.23,16.19-12.72,12.69-24.05-4.41,7.49-6.92,12.07-15.13,15.68-7.26,3.19-15.29,5-23.22,3.79-5.21-.77-17.26-4.14-18.17-10.59C343.26,381.67,356.59,387.31,361.1,387.76ZM228.37,282.6c2.58,12.17,11.36,19,22.09,24.19,3.11,1.5,11.3,5.73,14.52,3.15,4.69-3.76.54-7.56-2.63-9-9.5-4.24-21.47-8.82-23.9-20.84-.71-3.53,2.74-15.85-3.52-13.33C230.11,268.75,228.36,278.46,228.37,282.6Zm164.12,31.79c-.18-3.19-1.26-16.45-5-18.22-5.22-2.48-1.28,5.7-.84,8.4,2.12,12.91-9.52,19.89-20.17,23.27-6.63,2.1-12.87-.44-12.65,7.64.09,3.24-.23,4.1,2.16,5.27,1.88.92,9.45-2,11.28-2.45C381,334.9,390.7,329,392.49,314.39Zm-171.3-21.22-.58-.32c-5.6,9.65-8.77,21.34-.37,30.58,4.77,5.24,23.76,19.05,31.59,16.46,2.89-1,4.43-4.82,3.22-7.28-1.71-3.48-14.73-7.43-18.59-9.73a32.45,32.45,0,0,1-11.28-10.31C220.56,305.61,222.3,301,221.19,293.17Zm20.55-28.91c-.13,9.37,8.12,15.66,15.58,19.71,3.6,2,7.14,4.44,11.16,3,3.73-1.35,5.12-4,2.7-7.29-2.13-2.87-8.76-4-11.84-5.93-3.36-2.09-7-5-8.71-8.62-4.15-8.72,6.85-13.88,4.28-21.24C247.52,246.63,242,256.63,241.74,264.26Zm14.54,99.36c-.24-4.55-3.13-4.21-6.85-5.43a66.36,66.36,0,0,1-18.5-8.89c-5-3.6-8.27-7.92-11.33-13.25s-3.39-12.28-6.33-17c-4.84,4.12-2.15,15.54-.3,20.59,1.08,2.94,3.17,7.23,6.39,8.36s3.39-1.43,5.57,1.23c0,0-1,2.5-.63,3.13.68,1.27,2.58,2,3.6,3a43.36,43.36,0,0,0,9.41,6.55C240.91,363.64,256.1,370.79,256.28,363.62Zm-17.6,70.75c0-9-3.18-6.49-11.38-8.47a28.55,28.55,0,0,1-13.93-7.45c-5.57-5.56-5.83-10.66-6.5-18-.15-1.65-.75-12.58-3.55-12.82-6.38-.55-.23,25.75,1.61,29.08C212.39,430.18,223.78,435.23,238.68,434.37Zm104-144.31c10-4,22.83-7.11,27.42-17.92,1.79-4.22,2.78-9.41.84-13.74-.86-1.94-9.13-12.55-11.31-11.37-1.79,1,4,7.74,4.46,8.78,2.42,5.37,1.58,9.81-2.55,13.87-3.64,3.58-8.83,5.37-13.43,7.3C340.93,280,341.57,282.21,342.67,290.06ZM210,340.31c-6.22,9.48-.94,26.18,6.25,33.88,4.6,4.92,11.28,8.44,17.43,10.92,3.39,1.38,14.56,6.31,17.23,3.12,5-5.93-5.18-5.74-7.51-6.23-6.67-1.39-13.13-5.76-18.15-10.1C220.71,368,216,363.64,213.52,358,211.26,353,213.21,344.42,210,340.31Zm172.33-51.58c.19-3.29-.6-16.29-5-17.85-5.36-1.91-3.28,6.65-2.65,9.35,3,13.08-3.13,17.54-14.77,22.13-4,1.59-9.74,1.74-8.81,7.24s5.48,2.67,9.76,1C369.44,307.41,384.15,300.15,382.34,288.73ZM206.26,362.82l-.41-.08c-4.23,12.56-.53,25.73,7.14,36.05,4.43,5.95,20.87,20.74,29.09,14.29,4-3.16,1.75-6.39-1.8-7.72C234,403,228,402.53,222.07,398.62,208,389.38,207.05,378.5,206.26,362.82Zm147.45,108,.48-.07c-1.11-13.14-9.75-19.95-18.63-28.83-3-3-17.59-20.09-20.35-15.24-1.85,3.24,4.53,12,6.64,14.17,3.46,3.52,8,5.38,12.11,8.05C342.81,454.71,348.46,461.86,353.71,470.83Zm-70.25-123c-3.47,1.49-6.24,3.57-9.48,5.49-3.54,2.1-8.36,3-11.64,5.18-4.57,3.08-5.65,6.29-1.56,9.27,7.14,5.17,13.76-1.33,18.74-5.77C282.88,359,292.87,350.42,283.46,347.82Zm114.36,11.5c-3.38,9.35-10,15-19.58,17.72-4.35,1.22-10.05.3-14,2-3,1.27-4.39,5.6-.29,8.7,4.89,3.71,22.7-4.58,26.78-8C396.81,374.58,398.69,367.05,397.82,359.32ZM254.3,452.68l.28.14c3.73-3.42,40.2-34.05,33.13-38.57-1.66-1.07-18.68,11.38-20.35,13.08-2.55,2.59-4,8.21-5.74,11.4C259.11,443.36,256.48,447.88,254.3,452.68Zm146.07-29.63-.3,0a6.28,6.28,0,0,0-.55-4c-3.19,1.35-3.07,4.89-4.57,7.66A33.77,33.77,0,0,1,388,435.1a19.8,19.8,0,0,1-9.06,4.76c-4.19,1-6.14-.29-7.15,3.55-2.76,10.57,11.9,4.67,16.08,2.36C397.65,440.38,398.88,433.4,400.37,423.05ZM256.89,340.9c3.35,0,39.37.79,31.21-10.55-2.56-3.56-11.71-.69-15.57,0C263.11,332,259.63,331.52,256.89,340.9Zm78.5-72.06c6.27-.59,12.07-3.19,16.07-8.19,2.6-3.25,9.54-16.66.1-12.72-3.65,1.53-3.3,4.1-5.87,6.39s-5.8,2.34-8.65,4.19C334.78,260,329.85,269.14,335.39,268.84ZM227.65,445.1c-6-2.44-12.69-4.31-17-9.36s-3.85-12.14-8.54-16.78c-2.17,7.88,2.36,22.61,8.83,27.9,1.2,1,5.19,3.37,6.4,3.62C221.8,451.39,223.73,448.51,227.65,445.1ZM352.44,327.83c5.78-1.15,11.93-2.15,17.37-4.5,9.7-4.2-.39-5.21-5.79-6.59-4.44-1.14-14.27-2.62-16.51,3.07C345.91,323.86,348.38,327.86,352.44,327.83Zm42.48,118.83-.6-.16c-4.95,8-10.18,14.26-20.35,14.54a14,14,0,0,1-10.58-3.69c-3.16-2.73-5.81-9-10.42-9.24.39,8.94,11.85,18.67,20.48,18.7C383.09,466.84,394.92,456.43,394.92,446.66Zm-49.67-105.6,0-.27c3.18,0,5.2.59,6.51-2.36.81-1.84.45-5.74-1.35-7.06-2.42-1.77-17.67-2.2-20.44-.88-3.16,1.51-3.45,5.33-.33,8C333.13,341.44,341.13,340.65,345.25,341.06Zm-77.31-28.38c5.11,1.42,12.23.82,17.42.21,3.37-.39,10.75-3.15,7-8.71-1.6-2.35-13.33-.59-16.15-.84C267.76,302.59,269.49,303.9,267.94,312.68Zm10.26,4.48v-.58c-6-1.64-14.21-3.56-20.46-2.69-1.73.24-17.59,5-17.5,7.37.28,7.71,15.1,1.84,17.44,1.06C264.4,320.07,271.63,319.35,278.2,317.16Zm47.1-10c0,5.36-.56,8.53,5.25,9.36,3.87.55,15.45.11,18-3C357.19,303,327.72,307,325.3,307.15ZM359,354.72l0-.23c-.72-.29-5.21-1.91-4.72-3.18.13-.33,14,2.41,16.27,2,11.22-2.23,5.3-5.65-1.63-8.32-3.18-1.22-16.1-3.89-18.09.17-.51,1.05,1.05,7.21,1.85,8.13C354.43,355.26,356.41,354.72,359,354.72Zm-18.18,75.34.25-.27c-1.29-4.29-18.71-29.5-23.48-26.17C308.94,409.65,336.86,427.77,340.78,430.06Zm71.64-172.22.24-.37c-8-11.41-36-14-48.55-11.37,2.86,3.37,6.18,3.23,10.13,3.69,5,.59,8.66,2.27,13.41,3.59,4.53,1.25,7.93-.87,12.62-.34C404.72,253.54,408.23,256.56,412.42,257.84Zm-152.2,94.21.13,0c0,11.06,24.34-9.23,24.45-8.78-.65-2.84-10-.53-12.33-.31C263.23,343.88,261.57,342.41,260.22,352.05Zm91.18,74.62-.21.43c8.88,9.6,20,13.08,32.34,7.66-4.53-4.38-7.86-5-14.13-5.27C362.94,429.23,357.61,427.84,351.4,426.67Zm-97.56-186,0-.55c-8.89-2.56-18.45-2.13-27.59-2.1-8.19,0-17.9-1.41-25.05,3.44,3.88.47,7.93-1,11.86-.73,4.38.35,7.62,3.66,11.66,3.89,3.71.21,8-2.27,11.86-2.69C242.32,241.26,248.11,241.06,253.84,240.62Zm86.58,39c-4,.91-11.45.43-14.75,2.63-2.77,1.85-3.87,8.26-.74,10.16,2.19,1.33,9.9-.61,11.83-1.72C341.15,288.16,340,285.05,340.42,279.63Zm-52.3,46.94c0-9.73-1.48-8.82-10.35-7.11-.95.19-19,3.9-13.3,9.18C266.56,330.58,284.37,326.83,288.12,326.57Zm-10-66.57c0-5.67-6.37-5.19-10-8.87-2.27-2.31-8-13.54-9.21-6.17C257.68,252.67,278.15,270,278.15,260Zm56.47,43.77c5.5-.38,6.46.11,7.08-5.61.77-7.25-2.41-4.69-8.54-3.57-3.6.66-9.58-.15-9.92,4.17C322.77,304.73,330.36,303.38,334.62,303.77Zm3.15,24.51c5.33-.4,8.47.52,6.68-5.73-1.68-5.84-8.19-4.82-13.74-2.62-2.62,1-3.89.67-3.69,4C327.31,328.84,334.1,327.87,337.77,328.28ZM267.56,226.52c4.47,4.3,12.31-3.36,18.23-2.29,3.49.64,10.4,6.6,11.37.36.76-4.85-7.85-3.17-11.32-4.35C277.36,217.35,274.46,220.58,267.56,226.52Zm77.56,76.6c7.27-1.94,16.32-3.26,22.16-8.32-1-2.57-14.07-2.53-17-2.29C343.53,293.06,345.56,296.29,345.12,303.12Zm-91.54-9.35c3.52,6,10.75,3.24,16,2.32,7.18-1.27,14.48-1.57,21.62-3-2.13-3.25-14.22-1.81-17.45-1.91A61.17,61.17,0,0,0,253.58,293.77Zm80.16,49.43c-.58,0-4.94-.22-5.22.75-.66,2.28,17.68,12.61,20.78,9.55.94-.92-.53-8.14-1.47-9C345.87,342.76,336.4,343.4,333.74,343.2Zm-103.9-28.07c4.38,3.79,5.25,4.5,10.42,2.73,3.94-1.35,9.71-3.59,13.13-6C244.43,305.82,238.4,310.51,229.84,315.13Zm34,110.15c-5.15,4.25-9,10-14.17,14.21-5.6,4.57-6.94,3.41-6.31,11C254.36,445.45,260,436.1,263.81,425.28Zm-5-81.12c-5.32,0-14.41,4.28-18.33,7.68,3,1.61,10.67,6.13,14.17,4.56S258.21,347.59,258.84,344.16ZM242.27,456.61a222.74,222.74,0,0,1-23.24-1.2C223,468.3,235.57,464.74,242.27,456.61Zm35.49-186.47,0-.22c-4.28.6-9.73.46-13.47,2.75,2.4,2.06,20.65,9.18,22.85,5S281.14,269.9,277.76,270.14Zm90.59,71.76c.23,1.49,8.95,5.65,10.91,5.93,2.69.38,8.16-2,8.52-5.85C388.56,333.37,371.87,340.67,368.35,341.9Zm-19,65.23c5.32,10.3,14.41,10.45,24.73,8.25C368.46,408.63,357.45,408.81,349.39,407.13Zm12.94-93,.08.42c5.27,1.37,18,7,19.69-1.39C384.06,303.31,366,311.43,362.33,314.12ZM237.19,401.2l.1.51C245,403.2,261,400.61,263,391,255.68,389.89,243,397,237.19,401.2Zm47.29-112.56v-.2c2.49,0,6.85.86,7.57-2.36,1.17-5.18-7.29-5.35-10.18-5.45-3.59-.13-6.91-.4-7.09,4.06C274.59,289.67,280.27,288.31,284.48,288.64ZM223,452c.85,2,10.32,1.23,12.18,1,5.85-.7,4.81-1.72,5.19-8C231.54,445.35,229.2,445.8,223,452Zm16.91-61.72c-3.53,1.18-7.92,2.25-10.85,4.69-3.18,2.66-4.18,1.38-1.56,4.11,3.08,3.21,19.78-4.33,19.16-6.53C246.26,391.19,240.65,390.48,239.9,390.29Zm-10-45.36,0,.48c8.79,6,11.78,2.55,21.17-1.65l0-.42C242,340.3,238.64,341.53,229.88,344.93Zm18,24c-3.54-2.34-7.41-4.15-11.43-3.11-1.37.35-7.75,3.49-8,5.05C227.46,379.12,245.57,370,247.86,368.93Zm-5.4-63c-2-1.36-5.15-4.52-7.6-4.7s-8.87,3.95-9.1,5.95C224.64,316.65,239.74,307.17,242.46,305.9Zm22.73-44.13c-3.55-4.33-9.22-14.92-12.35-4.83C249.41,268,259.08,263.48,265.19,261.77Zm88,27.53.14.46c5.17.51,16.56,5.89,18.54.11C375.76,278.62,356.7,288,353.22,289.3Zm-27.12-9.21c3.19-.81,23.31-5.61,14.78-9.8C337.25,268.51,320.78,277.58,326.1,280.09ZM234.4,388.55c-4.63-2-12.14-5.54-15.13,1.63C214.88,400.73,231.66,390.6,234.4,388.55Zm2.54-11.91c7.93,3.8,16.87,3.57,16.95-6.82C248.45,370.23,241.49,373.7,236.94,376.64Zm124.61,73.95-.19.29c4.67,10.5,20.24,8.16,25.81,0C377.19,453.51,371.5,453.27,361.55,450.59ZM378,367.17c-3.72.54-8.72,1-12,2.94,3.33,3.59,10.06,6.22,14.48,2.92C383.81,370.56,383.45,367.52,378,367.17ZM362,261c-.13-2.06-.67-8.37-3.23-7.66.35-.1-5.74,9.5-5.71,9.31-.32,1.87,1.3,3.85,4.2,3.88C361,266.61,361.22,264.27,362,261ZM228.26,359.18c-2.26.89-7.4,2.27-7.18,5.3s3.74,3.62,5.5,3.48C233.65,367.41,235.14,361.61,228.26,359.18ZM290.4,236.9c5.6-9-9.12-12.69-14.23-7.14C281.28,229.73,286.35,234.3,290.4,236.9Zm-14.21,30.76.05-.25c-4.27-1.85-8-3.26-12.73-2.45-3.2.54-8.8,1.53-5.65,4.63C261.25,272.92,272.08,268.21,276.19,267.66Zm-6.63,31v.61c3,1.13,22.77,3.58,22.61-1.33C292,294.45,272.66,298,269.56,298.71Zm-48.17,112c-3.09-2.61-12.15-11.79-11-1.76C211.4,417.59,216.57,413.52,221.39,410.72Zm145.87-14.14c-5.65-5.11-12.41-6.66-19.53-7.73C348.42,393.27,361.85,398.49,367.26,396.58Zm5.51,13.92c4,7.47,16.63-.07,20.49-4.49ZM218.1,351.87c-3.45-.09-3.15,10.7,3.28,8.26C228.64,357.36,222.22,353.42,218.1,351.87Zm5.24,31.42v-.65c-7.08-4.36-12.91-1.32-8,6.35Zm140.9,7.43-.07.54c1.75,1.48,14,8.82,14.25,2.93C378.62,388.79,366.48,390.58,364.24,390.72Zm-96.94-19.1c-3.91-1.75-12.63-3.31-11.75,3.8C256.26,381.17,265.12,374,267.3,371.62Zm-27.83,45.45c-1.94-.3-15.32-1.25-13.12,5.11C228,427,238.29,418.53,239.47,417.07ZM339.12,234l0-.39c-3.11-2.05-12-5.24-13.54.6C324.14,239.89,336.8,234.83,339.12,234Zm-118,186.85c3.54-1.07,10.57-7.23,3-7.76-1.09-.07-7,2.83-7.27,4C216.23,419.46,219.16,419.87,221.12,420.86Zm7.25-77.9c1.12-.44,8.39-2.85,8.68-3.68C239.91,331,215,341.75,228.37,343Zm165.8,16.28-.26-.16c-1.47.86-12.69,5.77-11.84,7.83C385.14,374.4,393.38,361.84,394.17,359.24Zm-48.73-85.59c-.12,1.56,11.17-2.48,10-5.29-.48-1.15-5.2-1.71-6.24-1.29C346.37,268.21,346.3,270.81,345.44,273.65Zm-86,15.4c-2-1.5-12.37-5.22-12.82-.25C246.05,294.81,257.73,289.85,259.41,289.05ZM236.14,423.7c5.32,1,14.63-4.29,15.33-8.64C248.64,415,239.07,420.36,236.14,423.7Zm156.09.84-.27-.28c-3.29,1.37-10.75,2.23-9.86,5.95C383.91,437.75,391.32,426.39,392.23,424.54ZM262.3,323.12c-3.86,1.61-7.77,2.49-11.27,4.91C257.43,332.22,261.6,329.51,262.3,323.12ZM388,391.42c-1.19-2.79-9.15-6.5-10.21-2.05-.25,1,3.86,4,4.5,4.15C384.35,394,386.3,392.3,388,391.42Zm8.68-11.26-.3-.3c-2.07,1.55-10,5.78-9.47,7.87C388.88,394.94,396.17,381.71,396.69,380.16Zm-73.61,11.63c0-.65-4.06-9.5-5.34-9.15-2.2.59-1.21,5.81-.6,6.72C318.46,391.35,321,391.39,323.08,391.79ZM209.77,450a24.93,24.93,0,0,0,1.07,9.84C217.55,457.49,214.71,452.35,209.77,450Zm38-13.27-.21-.41c-1.78,0-14.19,2.17-13.21,4.85C235.49,444.39,246.81,437.65,247.76,436.77Zm-6.35-159.95c0,3.26,1.06,6.17,2.28,9.21l5.46-2.81C246.49,281,244.46,278.37,241.41,276.82Zm-16.3,59.42c3.67-2,3.77-5.9-1.49-6C218.6,330.11,221.07,336.34,225.11,336.24ZM209.83,370l-.42.15c.17,2-.14,9.91,2.77,9.64C217.88,379.26,211.36,371.17,209.83,370Zm16.8,67.62v.14c-5.39,0-2.4,4.12,1.86,3.75C235.55,440.9,231.31,438.32,226.63,437.62Zm-2.51-141.45c1.08,2.94,4.63-1.41,4.59-3.19C228.56,286.64,224.31,293.62,224.12,296.17ZM221,436.39c-.63-1.8-4.19-3.76-5.24-1.53C214.4,437.81,221.1,440.74,221,436.39ZM377.82,305.84c.51.19,5.09,2.45,6,1.72s-.45-4.68-1.12-5.07C381.13,301.59,378.9,304.83,377.82,305.84ZM345,250.43c-2.18-.32-7.94,2.95-8.08,4.53C339.68,255.86,344.71,253.09,345,250.43ZM332.47,368.74l.24-.25c-1.82-2.22-6-7.43-9.32-7.23C323.78,364.28,330,367.63,332.47,368.74Zm-103.8-67.61c.37-.22,4.53-2.08,4-3.2C231.91,296.49,224.89,298.68,228.67,301.13Zm56.24,140.33-.26-.28C279.35,446.8,283.59,448.77,284.91,441.46Zm-37.72-16.23L247,425C241.06,426.45,241.79,430.73,247.19,425.23Zm-37.49,2.86c-.72,1.83,3.9,5.47,4.28,4.48C214.69,430.68,210.8,428.47,209.7,428.09Zm65.07-176.47c-.54-1.81-3.67-4.27-5.1-4C271.08,250.9,273.27,252.57,274.77,251.62Zm112.9,85.82c3.68,0-.16-3.64-.14-3.46C387.5,333.76,383.06,337.48,387.67,337.44Zm-15.48-56c.12-4.46-3.34.22-3.47.22C369.05,281.63,372.11,284.67,372.19,281.4Zm-57.85,96.79a5,5,0,0,0-.78,3.42C313.93,382.41,317.48,378.56,314.34,378.19ZM217.57,325.3a1.87,1.87,0,0,0,2.27,2.37A3.6,3.6,0,0,0,217.57,325.3Zm-2.39,22.23c-1.15.89-1.12,1.67.08,2.34C216.44,349.18,216.42,348.4,215.18,347.53ZM209.67,399a1.8,1.8,0,0,0-.07,2.3,1.33,1.33,0,0,0,1-.4A1.36,1.36,0,0,0,209.67,399Z" transform="translate(-169.77 -215.05)" stroke="#231f20" stroke-miterlimit="10" stroke-width="0.75"/><path d="M287.43,437.77c4.12,2,7.54,3.87,12.15,4.38,2.19.24,11.28-1.89,12.88-.69,2.57,1.94-2,5-3.89,5.66-4.94,1.75-11.46-.43-16.66.86,2.76,1.75,7.1,2.25,10.34,2.27,3.47,0,6.65-2.36,9.58-2.44,3.42-.11,15.09,3,9.32,8-2,1.75-4.88-.05-6.8,1.31-1.68,1.2-1,3.7-2.53,5.26-3.34,3.3-22,.53-22.29,1.15-2.67,5.9,23.39.87,24.6.75,0,10.9-10.52,6.15-17.89,7.56l-.12.35c9.13,4.42,18.39-3.12,27.19-.75,3.22.86,4.47,1.81,2.4,4.92-2.29,3.43-6.72,2.17-10,1.64,0,6.31-2.39,20.76,5.65,21.63,3.28.35,6.66-2.83,8.8,0,2.79,3.71-.36,6.4-2.81,7.48-3.31,1.46-8.54-.38-10.46,3.61-1.27,2.65,1.46,7.08,1.95,9.79.67,3.76-.18,6.35,4.62,7.35,3.44.72,7.94-4,10.28.37,3.53,6.62-10.82,4.17-13,7-3.71,4.75-3.09,20.35,5.84,18.22,3.7-.89,6-6.53,10.67-3.56,3.18,2,1.79,5-.4,7.22-4.92,5-20,5.78-8.57,13.69-11.24,5.75-31.1,7.67-42.17.27-1-.68-5-3.66-5.15-5.15-.31-3.18,3.38-2,2.19-6.17-1-3.5-14.32-7.23-9.75-12.78,2.64-3.22,10,2.73,11.66-3.86,1.72-6.8-6.64-6.25-10.41-7.46-7.34-2.34-2.53-7.35,2.74-8.35,2.11-.4,3.94,1.45,5.6-.1s.86-7.84,1-9.76c.12-1.77,1.54-7.42.43-9-1.59-2.3-5.64-.71-7.82-2-5.12-3-3.54-7.3,2.06-7.68,3.2-.21,4.45,2.19,6.5-.21,1.11-1.31.82-6.16.95-8.07.19-3,1.16-7.71-1.21-10-1.54-1.49-5.36-.46-6.82-2.19-1.6-1.91-2.17-4.39-.22-6.58,2.37-2.67,3.8.29,5.91-.53,3.5-1.36,6.26-10.55,3.56-14.51-1.74-2.55-14.06-2.75-5.87-8.06,1.37-.88,3.83.66,5.2-.51S287.32,439.41,287.43,437.77ZM317.6,554.68l-.2-.55c-4.69.32-9.12,1.77-13.87,1.76-5.2,0-9.74-1.77-14.76-2.76l-.16.39C295.16,559.62,310.6,559.63,317.6,554.68Zm-30.14-9.23c-2.94,7,26.05,4,29.45,1.09l-.18-.33C305.77,547.2,298.19,549.2,287.46,545.45Zm-.35-17-.1.62c6.16,3.34,26,4.49,30.1-2.57-4.12-.6-9.17,2.43-13.37,2.86C298.12,530,292.7,528.5,287.11,528.5Zm.23-11.73-.18.45c5.71,5.21,23.57,5.07,29.81.38l-.16-.3c-4.95,0-9.74,1.56-14.72,1.69C296.86,519.13,292.39,517.37,287.34,516.77Zm2.24-19c-1.12,5,21,1.14,23.48.12l-.14-.47A134.81,134.81,0,0,1,289.58,497.75Zm-.34-6.82c3.25,6.53,24.37.4,23.81-.87C304.36,490.61,298,493.71,289.24,490.93Z" transform="translate(-169.77 -215.05)" fill="#fff" stroke="#231f20" stroke-miterlimit="10" stroke-width="0.75"/><path d="M298.76,330.94l-7.05.43c-.33-7.08-.23-12.4,1.83-19.12s1.25-12.09,1-18.93c-.28-7.3.89-9.7,8-10.71,2.19-.31,14,.63,14.78-1-6.16-4.93-16.18-2.14-22.53,1-4.13-6.55-15.59-16.75-14.08-25.15.87-4.78,3.37-2.93,7.31-5.88,3.46-2.59,3.55-7.21,6.36-9.68,4.34,2.83,8.57,5.7,13.87,6.21,5,.47,10.1-3.11,14.41-1.26,9.68,4.15,10.91,17.42,5.25,24.83-3.14,4.11-6.84,5.71-8.06,11.27-1.07,4.87-.14,11.1.51,16,1.62,12.37,3.26,24.67,4.49,37.14,1,9.8-2.35,20.7-7.53,28.91A52.4,52.4,0,0,0,310.39,381c-1,4.12-1.88,8.69-6.14,4-2.86-3.15-3.53-11.89-4.49-15.92-1.38-5.76-3.44-8.54-6.54-13.44-3-4.67-5.35-10.18-4.29-15.83,1.42-7.62,4.84-4.69,10-8.25Zm7.74-16.7c-4.26-1.06-11,0-14.37,3C293.77,318,305.31,315.67,306.5,314.24ZM296,297c3.41-.55,9.62-.72,12.19-3.21C304.33,291.45,298.74,294.07,296,297Zm-3.84-38.63c-.45-10.4-6.53,6.21-.43,1.5Zm2.23,83.92,0,.16a3.64,3.64,0,0,0,3.72-1.86,7.17,7.17,0,0,0-5.57.82A1.71,1.71,0,0,0,294.35,342.24Zm1.58-75,1.64,2.34C299.59,267.35,298.34,265,295.93,267.24Zm2,5.25c-1.63-2.42,2.24,3.82,2.46,1.7.5-1.58,0-2.66-1.41-3.22ZM297.33,353a2.73,2.73,0,0,0,2.82-1.09c0-2.22-4.25.2-4.45.34Zm5.78,7.88c0-2.16-.78-3.4-2.86-2.09A3.34,3.34,0,0,0,303.11,360.86Zm12.73-95.45,1.35,1.47c1.27-1,1.29-1.93.06-2.9Zm-.73,6.41a2.14,2.14,0,0,0-.43-2.52C312.66,269,314.74,271.65,315.11,271.82Zm5.68-13.2c-1,1.38-.48,2.21,1,2Z" transform="translate(-169.77 -215.05)" fill="#fff" stroke="#231f20" stroke-miterlimit="10" stroke-width="0.75"/><path d="M288.59,388.33c-.38,1.88-2.24,3.34-1.15,5.58,2.46-1.31,10.6,3.65,13.6,4.12s10.54.58,12-2.87c-10.66,0-28.77,2.22-19.42-14.42,5.66-10.06,5.41,0,7.73,4.68,3.24,6.56,7.1,5.49,11.75,1.33.24,1.65.47,9.24,2.26,9.81,2,.64,1.6-2.06,3.41-2.47,8-1.81,10.67,10.7,13.26,16.12l-.28.23c-3.14-2.28-11.6-11.35-15.62-10.25-9.24,2.56-1.12,13.48,2.15,16.26,12.68,10.79,25.32,18,31.55,34.07l-.34.22c-9.08-8.42-17.75-17.67-27.34-25.49-3.93-3.2-5-3.46-9.23-2.63-6.08,1.18-9.8,3.36-16.53,2.42,3.76,5.21,8.6.13,13.07,1.32,2.9.77,5.87,7.34,4.6,10.73-2.32,6.2-21.91,4.37-24.84-.33-1.59-2.56.89-13.95,1.22-17.12.48-4.75,1.84-9,.66-13.71-.08-.29-1.86-7.06-3.14-6.79-1.05.23-.66,1.73-1.31,2.09-2.82,1.58-7.36,7.41-10.19,9.77l1.29,1.5c1.78-1.27,6.6-6,8.85-5.93,3.07.13,2.61,2.69,1.18,4.7-1.61,2.26-7.68,4.13-10.12,5.89-3.18,2.3-5.88,5.38-9.3,7.31A174,174,0,0,1,288.59,388.33Zm4.74,29.05c4.31,4.25,15.81,4.69,19.35-.05A70.06,70.06,0,0,1,293.33,417.38ZM310,402.7c-1.29-.79-14.28-1.09-15.52-.44C297.08,406.1,306.77,405.46,310,402.7Z" transform="translate(-169.77 -215.05)" fill="#fff" stroke="#231f20" stroke-miterlimit="10" stroke-width="0.75"/><path d="M289.53,356c3,3.13,6.35,7.17,7.35,11.5,1.11,4.81,0,4.58-3.4,8.11-6.36,6.6-11.79,15.38-16.58,23.15-7.64,12.37-16.53,36.8-35,35.12,4.25-4.42,6.21-8.21,8.94-12.72,3.74-6.15,13.44-8.84,15-16.46-2.34,1.48-16.74,11.41-19.43,8.75-1.91-1.9,2.1-7.49,3.32-8.5,3.53-2.89,8.34-2.94,11.82-6.29,1.89-1.81,7-7.56,4.91-10.24-2.38-3-7.37,1.72-10.77.42-8.78-3.34,7.71-10.36,10.12-11.94C274.78,371,282.17,363.61,289.53,356Zm-19.62,36,.91,2.1c5.24-3.66,8.14-11.65,11.7-16.9,2.72-4,10.64-10.37,10.41-15.09C284.2,363,273.7,384.85,269.91,392Z" transform="translate(-169.77 -215.05)" fill="#fff" stroke="#231f20" stroke-miterlimit="10" stroke-width="0.75"/><path d="M369.13,450c-7.7-2.74-16.54-4.75-21-12.2-4.06-6.8-6.31-15.13-9.64-22.34-3.56-7.7-7.31-15.4-11-23-2.85-5.87-12.48-15.87-9.66-22.45,7.87,3.73,13.7,15,18.76,21.75,3.23,4.31,5.58,7.19,7.66,12.1,1.79,4.22,3.64,8.63,7.29,11.63,13.2,10.88,39.25-.05,48.24-12l.35.06c1.88,22.39-34.71,28.67-49.43,19.14-1.83-1.19-5.28-6-6.86-1.77-.87,2.33,7.83,9.64,9.21,10.93a47.4,47.4,0,0,0,11.48,7.92C370,442.55,369.13,443.41,369.13,450Zm-3.39-28.78-.51.17q-.75,2.58,1.35,3.44Q367.63,422.88,365.74,421.17Z" transform="translate(-169.77 -215.05)" fill="#fff" stroke="#231f20" stroke-miterlimit="10" stroke-width="0.75"/><path d="M366,243c-7.85-.2-15.77,1.84-23.08,4.58-6.52,2.44-8.47,6.18-13.51,1.47-7.43-6.94-3.68-8.16,4.53-10.08a154.71,154.71,0,0,1,23.88-3.53c14.05-1,29-.71,42.78,2.18,12.4,2.6,30.31,8.46,37.16,20-4,1.57-12.5,3.82-16.81,2.5-5.06-1.55-9-7.66-13.88-10.19C394.69,243.56,379.55,243.64,366,243Z" transform="translate(-169.77 -215.05)" fill="#fff" stroke="#231f20" stroke-miterlimit="10" stroke-width="0.75"/><path d="M356.52,375c1.81-7.51,8.27-3.63,13.25-.08l0,.42a53.85,53.85,0,0,1-23-1.56c-6.44-1.88-9.47-5.95-14.28-10.15-3.4-3-12.44-7.27-5.54-12.59,4.13-3.19,8.42,2.36,13.22,3.78,11.85,3.51,30.71,3.68,41.7-2.59,13-7.4,6.61-17.93,13-28.33,6.81,11.08,3.18,28-7.71,35.2-5.26,3.5-11.82,5.36-17.93,6.61-4.24.86-16.18,0-18.83,3.41C353.55,371.46,354.55,371.2,356.52,375ZM354,358.55c-.39,2.17-.31,5.65,1.5,7.22C357,363.45,355.88,360.32,354,358.55Z" transform="translate(-169.77 -215.05)" fill="#fff" stroke="#231f20" stroke-miterlimit="10" stroke-width="0.75"/><path d="M361.1,387.76c-4.51-.45-17.84-6.09-16.81,1.15.91,6.45,13,9.82,18.17,10.59,7.93,1.16,16-.6,23.22-3.79,8.21-3.61,10.72-8.19,15.13-15.68,3.5,11.34-1.94,19.81-12.69,24.05-5,2-11.42,3.46-16.82,3.22-2.07-.09-2.92.14-4.66-.81-.81-.45.18-3.39-1.41-3.47-1-.06-1.39,2.94-1.65,3-3.14.59-2.42,1-6.32.17S349.74,404.55,347,402c-4.22-3.88-7.75-11.8-11.43-16.55-3.92-5.07-8.55-9.72-12.3-14.88-3.11-4.28-4.17-6.16,1.08-4.48,4.75,1.53,9.68,5.79,14.54,7.79a75.08,75.08,0,0,0,12.63,3.62C358.72,379.14,359.32,380.47,361.1,387.76Z" transform="translate(-169.77 -215.05)" fill="#fff" stroke="#231f20" stroke-miterlimit="10" stroke-width="0.75"/><path d="M228.37,282.6c0-4.24,1.76-13.84,6.56-15.8,6.14-2.49,2.82,9.8,3.52,13.33,2.43,12.18,14.45,16.39,23.9,20.84,3,1.42,7,4.63,3.08,8.49-3.33,3.29-11.62-1-15-2.67C239.7,301.58,231,294.82,228.37,282.6Z" transform="translate(-169.77 -215.05)" fill="#fff" stroke="#231f20" stroke-miterlimit="10" stroke-width="0.75"/><path d="M392.49,314.39C390.7,329,381,334.91,367.26,338.3c-1.72.42-9.63,3-11.28,2.45-2.72-.95-2-1-2.16-5.27-.23-8.36,5.74-5.45,12.65-7.64,10.66-3.38,22.28-10.36,20.17-23.27-.29-1.81-4.26-10.79.4-9C391.17,297.08,392.31,311.24,392.49,314.39Z" transform="translate(-169.77 -215.05)" fill="#fff" stroke="#231f20" stroke-miterlimit="10" stroke-width="0.75"/><path d="M221.19,293.17c1,6.91-.61,11.92,3.23,18.22a32.93,32.93,0,0,0,12,11.49c2.72,1.62,5.54,3.1,8.34,4.56,1.58.83,9.35,3.7,10.25,5.17,1.55,2.5-.41,6.35-3.22,7.28-7.8,2.58-26.83-11.22-31.59-16.46-8.37-9.23-5.23-20.94.37-30.58Z" transform="translate(-169.77 -215.05)" fill="#fff" stroke="#231f20" stroke-miterlimit="10" stroke-width="0.75"/><path d="M241.74,264.26c.23-7.53,5.82-17.64,13.17-20.39,2.4,6.87-7.71,12-5,19.95,1.43,4.16,5.82,7.68,9.41,9.91,3.11,1.94,9.79,3.13,11.84,5.93,2.33,3.16,1.18,5.89-2.7,7.29s-6.34-.51-9.87-2.32C250.73,280.57,241.6,274.17,241.74,264.26Z" transform="translate(-169.77 -215.05)" fill="#fff" stroke="#231f20" stroke-miterlimit="10" stroke-width="0.75"/><path d="M256.28,363.62c-.19,7.29-14,.22-17.87-1.4-3.47-1.47-6.32-3.7-9.32-6-1.11-.85-3.54-2-4.19-3.28-.21-.43-.37-4.2,0-3.71-2.23-2.73-1.86.24-4.73-.82-3.18-1.18-5.46-4.46-6.78-7.45-2.2-5-5.12-17.68-.15-21.91,2.7,4.33,2.9,10.87,5.55,15.69,3.16,5.73,6.78,10.71,12.11,14.56a61.77,61.77,0,0,0,16.95,8.38C251.9,359,256,358.7,256.28,363.62Z" transform="translate(-169.77 -215.05)" fill="#fff" stroke="#231f20" stroke-miterlimit="10" stroke-width="0.75"/><path d="M238.68,434.37c-14.44.84-25.24-3.64-33-16.4-2-3.31-9.46-31-2.41-30.36,2.76.24,3.39,11,3.55,12.82.56,6.58.86,11.85,5.53,17A28.08,28.08,0,0,0,226,425.59C234.29,427.92,238.68,424.67,238.68,434.37Z" transform="translate(-169.77 -215.05)" fill="#fff" stroke="#231f20" stroke-miterlimit="10" stroke-width="0.75"/><path d="M342.67,290.06c-.86-6.14-1.78-9.54,3.76-12.39,5.09-2.62,10.87-3.87,15.1-8,3.77-3.67,4.76-7.33,3.07-12.41-.2-.58-6.49-9.43-5-10.24,2.1-1.13,9.67,8.73,10.52,10.18,2.72,4.7,2,10-.05,14.93C365.5,282.94,352.69,286.08,342.67,290.06Z" transform="translate(-169.77 -215.05)" fill="#fff" stroke="#231f20" stroke-miterlimit="10" stroke-width="0.75"/><path d="M210,340.31c3.14,4,1.32,12.83,3.51,17.73,2.51,5.6,7.19,9.9,11.74,13.86,4.84,4.21,10.46,8,16.81,9.58,2.38.6,14.12,0,8.85,6.75-5,6.47-30.35-9.44-34.66-14C209.09,366.51,203.8,349.77,210,340.31Z" transform="translate(-169.77 -215.05)" fill="#fff" stroke="#231f20" stroke-miterlimit="10" stroke-width="0.75"/><path d="M382.34,288.73c1.8,11.4-12.9,18.7-21.43,21.91-4,1.52-7.88,4-9.7,0-2.74-6.1,5.08-6.81,8.75-8.26,11.57-4.6,17.79-9.08,14.77-22.13-.65-2.79-2.69-11.27,2.65-9.35C381.75,272.46,382.52,285.61,382.34,288.73Z" transform="translate(-169.77 -215.05)" fill="#fff" stroke="#231f20" stroke-miterlimit="10" stroke-width="0.75"/><path d="M206.26,362.82c.75,15,1.3,25.59,14.47,34.86,6.59,4.63,12.56,4.83,19.55,7.68,3.44,1.4,6.07,4.23,1.8,7.72-7.68,6.28-23.91-7.68-28.29-13.18-8.24-10.35-12.28-24.28-7.94-37.16Z" transform="translate(-169.77 -215.05)" fill="#fff" stroke="#231f20" stroke-miterlimit="10" stroke-width="0.75"/><path d="M353.71,470.83c-5-8.53-10.25-15.35-18.52-21.07-4-2.77-8.67-4.65-12.28-7.95-3-2.72-9.19-10.59-7.7-15.12,1.69-5.16,16.74,11.63,19.05,13.94,9.22,9.2,18.77,16.43,19.93,30.13Z" transform="translate(-169.77 -215.05)" fill="#fff" stroke="#231f20" stroke-miterlimit="10" stroke-width="0.75"/><path d="M283.46,347.82c9.41,2.6-.58,11.19-3.94,14.17-5,4.44-11.6,10.94-18.74,5.77-4.09-3-3-6.19,1.56-9.27,3.28-2.21,8.1-3.08,11.64-5.18C277.22,351.39,280,349.31,283.46,347.82Z" transform="translate(-169.77 -215.05)" fill="#fff" stroke="#231f20" stroke-miterlimit="10" stroke-width="0.75"/><path d="M397.82,359.32c.87,7.71-1,15.27-7.13,20.39-4.58,3.85-21,11.29-26.78,8-2.13-1.21-3.22-7.1-1.28-8.55,2.65-2,12.19-1.16,15.61-2.13C387.87,374.29,394.43,368.71,397.82,359.32Z" transform="translate(-169.77 -215.05)" fill="#fff" stroke="#231f20" stroke-miterlimit="10" stroke-width="0.75"/><path d="M254.3,452.68c1.93-4.24,4.18-8.25,6.42-12.33,1.91-3.47,3.93-10.09,6.64-13,1.69-1.83,18.95-14,20.35-13.08,7.09,4.53-29.3,35.07-33.13,38.57Z" transform="translate(-169.77 -215.05)" fill="#fff" stroke="#231f20" stroke-miterlimit="10" stroke-width="0.75"/><path d="M400.37,423.05c-1.39,9.66-2.29,16.53-11.19,22-4,2.45-20.37,9.58-17.38-1.65,1.24-4.66,10.7-3.79,15.22-7.44a33,33,0,0,0,7.07-8c1.75-2.9,2.07-7.59,5.43-9a6.28,6.28,0,0,1,.55,4Z" transform="translate(-169.77 -215.05)" fill="#fff" stroke="#231f20" stroke-miterlimit="10" stroke-width="0.75"/><path d="M256.89,340.9c2.57-8.83,5.17-8.65,14-10.27,4.06-.74,14.49-4.05,17.21-.28C296.26,341.69,260.19,340.9,256.89,340.9Z" transform="translate(-169.77 -215.05)" fill="#fff" stroke="#231f20" stroke-miterlimit="10" stroke-width="0.75"/><path d="M335.39,268.84c-5.54.3-.61-8.86,1.65-10.33,2.85-1.85,6-1.81,8.65-4.19s2.22-4.86,5.87-6.39c9.44-3.94,2.5,9.47-.1,12.72C347.46,265.65,341.66,268.25,335.39,268.84Z" transform="translate(-169.77 -215.05)" fill="#fff" stroke="#231f20" stroke-miterlimit="10" stroke-width="0.75"/><path d="M227.65,445.1c-2.9,2.52-5.92,6.57-9.5,6a75.35,75.35,0,0,1-7.23-4.26c-6.5-5.15-11-20.18-8.83-27.9,4.69,4.64,4.24,11.76,8.54,16.78S221.69,442.66,227.65,445.1Z" transform="translate(-169.77 -215.05)" fill="#fff" stroke="#231f20" stroke-miterlimit="10" stroke-width="0.75"/><path d="M352.44,327.83c-3.76,0-6.19-3.05-5.15-7,1.75-6.65,11.59-5.41,16.73-4.09,5,1.27,13.8,1.52,7.15,6C366.36,326,358,326.74,352.44,327.83Z" transform="translate(-169.77 -215.05)" fill="#fff" stroke="#231f20" stroke-miterlimit="10" stroke-width="0.75"/><path d="M394.92,446.66c0,9.78-11.82,20.18-21.47,20.15-8.62,0-20.09-9.77-20.48-18.7,4.19.2,6.61,5.34,9.37,8.07,3.58,3.53,6.43,5,11.63,4.86,10.12-.28,15.42-6.57,20.35-14.54Z" transform="translate(-169.77 -215.05)" fill="#fff" stroke="#231f20" stroke-miterlimit="10" stroke-width="0.75"/><path d="M345.25,341.06c-4-.39-12.34.39-15.58-2.57s-2.69-6.19.33-8c1.77-1.06,18.53-.65,20.44.88,1.62,1.3,1.74,3.25,1.46,5.21-.63,4.51-2.11,4.21-6.62,4.21Z" transform="translate(-169.77 -215.05)" fill="#fff" stroke="#231f20" stroke-miterlimit="10" stroke-width="0.75"/><path d="M267.94,312.68c1.31-7.47-.5-10.15,6.95-9.5,2.78.24,15.39-1.27,17.45,1,3.66,4.05-2.65,7.76-5.4,8.5C281.82,314.06,273,314.07,267.94,312.68Z" transform="translate(-169.77 -215.05)" fill="#fff" stroke="#231f20" stroke-miterlimit="10" stroke-width="0.75"/><path d="M278.2,317.16c-6.57,2.19-13.8,2.92-20.53,5.16-3,1-7.61,3.58-10.73,3.17-1.14-.15-7-2.53-6.71-4.23.59-3.11,15.14-7,17.5-7.37,6.18-.86,14.5,1.05,20.46,2.69Z" transform="translate(-169.77 -215.05)" fill="#fff" stroke="#231f20" stroke-miterlimit="10" stroke-width="0.75"/><path d="M325.3,307.15c2.95-.13,31.78-4.07,23.27,6.33-2.22,2.72-14.68,3.63-18,3C324.73,315.47,325.3,312.83,325.3,307.15Z" transform="translate(-169.77 -215.05)" fill="#fff" stroke="#231f20" stroke-miterlimit="10" stroke-width="0.75"/><path d="M359,354.72c-2.55,0-4.53.54-6.28-1.47-.49-.56-2.48-6.66-2-7.63,2.16-4.56,14.54-2.1,18.26-.67,5.77,2.23,13,5,3.23,7.84-2.16.61-18-1.24-17.87-1.48-.49,1.27,4,2.89,4.72,3.18Z" transform="translate(-169.77 -215.05)" fill="#fff" stroke="#231f20" stroke-miterlimit="10" stroke-width="0.75"/><path d="M340.78,430.06c-3.53-2.06-32.19-21.5-23.23-26.44,5.48-3,22.11,21.65,23.48,26.17Z" transform="translate(-169.77 -215.05)" fill="#fff" stroke="#231f20" stroke-miterlimit="10" stroke-width="0.75"/><path d="M412.42,257.84c-3.69-1.13-6.78-3.64-10.57-4.45-5.12-1.1-9.26,1.37-14.2,0-4.15-1.17-7.62-3-12.1-3.53s-8.29,0-11.44-3.75c12.45-2.57,40.53-.09,48.55,11.37Z" transform="translate(-169.77 -215.05)" fill="#fff" stroke="#231f20" stroke-miterlimit="10" stroke-width="0.75"/><path d="M260.22,352.05c1.35-9.64,3-8.17,12.25-9.07,2.27-.22,12.3-2.55,12.33.31,0,1.81-13.06,7.78-15.2,9-3.61,2-9.25,6.59-9.25-.21Z" transform="translate(-169.77 -215.05)" fill="#fff" stroke="#231f20" stroke-miterlimit="10" stroke-width="0.75"/><path d="M351.4,426.67c6.15,1.16,11.64,2.57,18,2.82s9.53.82,14.13,5.27c-12.36,5.42-23.45,1.95-32.34-7.66Z" transform="translate(-169.77 -215.05)" fill="#fff" stroke="#231f20" stroke-miterlimit="10" stroke-width="0.75"/><path d="M253.84,240.62c-5.2.4-10.41.73-15.6,1.14-4.17.33-9.56,3-13.49,2.81-3.69-.21-6.59-3.33-10.43-3.85-4.35-.6-8.79,1.21-13.09.69,7.13-4.85,16.89-3.42,25.05-3.44,9.15,0,18.7-.46,27.59,2.1Z" transform="translate(-169.77 -215.05)" fill="#fff" stroke="#231f20" stroke-miterlimit="10" stroke-width="0.75"/><path d="M340.42,279.63c-.26,3.66.55,8.35-2.34,10.73-1.74,1.44-11.06,3.32-13.15,2.06-2.73-1.65-2.17-7.78,0-9.8C327.23,280.44,337.07,280.39,340.42,279.63Z" transform="translate(-169.77 -215.05)" fill="#fff" stroke="#231f20" stroke-miterlimit="10" stroke-width="0.75"/><path d="M288.12,326.57c-3.75.26-21.56,4-23.65,2.07-5.66-5.28,12.35-9,13.3-9.18C286.64,317.75,288.12,316.84,288.12,326.57Z" transform="translate(-169.77 -215.05)" fill="#fff" stroke="#231f20" stroke-miterlimit="10" stroke-width="0.75"/><path d="M278.15,260c0,9.9-20.46-7.39-19.19-15,1.21-7.34,7.17,4.09,9.21,6.17C271.78,254.81,278.17,254.33,278.15,260Z" transform="translate(-169.77 -215.05)" fill="#fff" stroke="#231f20" stroke-miterlimit="10" stroke-width="0.75"/><path d="M334.62,303.77c-3.79-.34-11.26,1-11.36-4.12-.11-5.26,5.63-4.28,9.9-5.06,6-1.1,7.83-3.46,8.67,2.23C342.76,303.14,339.74,303.42,334.62,303.77Z" transform="translate(-169.77 -215.05)" fill="#fff" stroke="#231f20" stroke-miterlimit="10" stroke-width="0.75"/><path d="M337.77,328.28c-3.43-.38-9.37.28-10.64-3.38-1.35-3.89,1-3.86,3.58-5,4.35-1.86,11-2.8,13.32.82C348.67,328.05,342.76,327.9,337.77,328.28Z" transform="translate(-169.77 -215.05)" fill="#fff" stroke="#231f20" stroke-miterlimit="10" stroke-width="0.75"/><path d="M267.56,226.52c6.9-5.94,9.81-9.17,18.28-6.28,3.69,1.26,12.1-.64,11.32,4.35-1,6.21-8.05.24-11.37-.36C279.87,223.16,272,230.82,267.56,226.52Z" transform="translate(-169.77 -215.05)" fill="#fff" stroke="#231f20" stroke-miterlimit="10" stroke-width="0.75"/><path d="M345.12,303.12c.1-1.49-.29-8.38.52-9.54,1.46-2.09.45-.62,4.68-1.07,2.42-.26,15.94-.32,17,2.29C361.44,299.86,352.39,301.18,345.12,303.12Z" transform="translate(-169.77 -215.05)" fill="#fff" stroke="#231f20" stroke-miterlimit="10" stroke-width="0.75"/><path d="M253.58,293.77a61.57,61.57,0,0,1,20.13-2.58c3.08.1,15.5-1.06,17.45,1.91-7.14,1.42-14.44,1.7-21.62,3C264.3,297,257.07,299.74,253.58,293.77Z" transform="translate(-169.77 -215.05)" fill="#fff" stroke="#231f20" stroke-miterlimit="10" stroke-width="0.75"/><path d="M333.74,343.2c3.11.24,10.93-.69,13.26,1.14,1.16.91,3.9,7.59,2.3,9.16-3.15,3.11-21.47-7.19-20.78-9.55C328.8,343,333.16,343.23,333.74,343.2Z" transform="translate(-169.77 -215.05)" fill="#fff" stroke="#231f20" stroke-miterlimit="10" stroke-width="0.75"/><path d="M229.84,315.13c8.72-4.7,14.49-9.38,23.55-3.23-3.59,2.49-9,4.54-13.13,6C235,319.67,234.26,319,229.84,315.13Z" transform="translate(-169.77 -215.05)" fill="#fff" stroke="#231f20" stroke-miterlimit="10" stroke-width="0.75"/><path d="M263.81,425.28c-3.84,10.82-9.45,20.17-20.48,25.23-.62-7.52.65-6.4,6.31-11C254.81,435.26,258.66,429.53,263.81,425.28Z" transform="translate(-169.77 -215.05)" fill="#fff" stroke="#231f20" stroke-miterlimit="10" stroke-width="0.75"/><path d="M258.84,344.16c-.68,3.71-.63,10.41-4.16,12.24-3.28,1.7-11.35-3-14.17-4.56C244.43,348.44,253.52,344.16,258.84,344.16Z" transform="translate(-169.77 -215.05)" fill="#fff" stroke="#231f20" stroke-miterlimit="10" stroke-width="0.75"/><path d="M242.27,456.61c-6.7,8.14-19.28,11.73-23.24-1.2A222.74,222.74,0,0,0,242.27,456.61Z" transform="translate(-169.77 -215.05)" fill="#fff" stroke="#231f20" stroke-miterlimit="10" stroke-width="0.75"/><path d="M277.76,270.14c3.38-.24,11.6,3.34,9.35,7.57s-20.45-3-22.85-5c3.69-2.26,9.21-2.16,13.47-2.75Z" transform="translate(-169.77 -215.05)" fill="#fff" stroke="#231f20" stroke-miterlimit="10" stroke-width="0.75"/><path d="M368.35,341.9c3.35-1.17,20.2-8.59,19.43.08-.17,1.92-5.15,6.35-6.9,6.6C379.63,348.76,368.57,343.31,368.35,341.9Z" transform="translate(-169.77 -215.05)" fill="#fff" stroke="#231f20" stroke-miterlimit="10" stroke-width="0.75"/><path d="M349.39,407.13c8.06,1.68,19.07,1.5,24.73,8.25C363.82,417.58,354.72,417.45,349.39,407.13Z" transform="translate(-169.77 -215.05)" fill="#fff" stroke="#231f20" stroke-miterlimit="10" stroke-width="0.75"/><path d="M362.33,314.12c3.9-2.85,21.53-10.79,19.77-1-1.51,8.44-14.63,2.71-19.69,1.39Z" transform="translate(-169.77 -215.05)" fill="#fff" stroke="#231f20" stroke-miterlimit="10" stroke-width="0.75"/><path d="M237.19,401.2C243,397.06,255.51,389.86,263,391c-2,9.64-18,12.22-25.72,10.74Z" transform="translate(-169.77 -215.05)" fill="#fff" stroke="#231f20" stroke-miterlimit="10" stroke-width="0.75"/><path d="M284.48,288.64c-3.21-.25-9.11.6-9.93-2.85-1.24-5.24,4.07-5.28,7.33-5.16s9.86.05,10.09,4.42-4.39,3.39-7.48,3.39Z" transform="translate(-169.77 -215.05)" fill="#fff" stroke="#231f20" stroke-miterlimit="10" stroke-width="0.75"/><path d="M223,452c6.21-6.21,8.55-6.66,17.37-7-.38,6.36.91,7.43-5.19,8C232.78,453.25,223.93,454.27,223,452Z" transform="translate(-169.77 -215.05)" fill="#fff" stroke="#231f20" stroke-miterlimit="10" stroke-width="0.75"/><path d="M239.9,390.29c.75.19,6.36.9,6.75,2.27.62,2.2-16.08,9.74-19.16,6.53-2.62-2.73-1.62-1.45,1.56-4.11C232,392.54,236.37,391.47,239.9,390.29Z" transform="translate(-169.77 -215.05)" fill="#fff" stroke="#231f20" stroke-miterlimit="10" stroke-width="0.75"/><path d="M229.88,344.93c8.76-3.4,12.15-4.63,21.11-1.59l0,.42c-9.39,4.2-12.38,7.68-21.17,1.65Z" transform="translate(-169.77 -215.05)" fill="#fff" stroke="#231f20" stroke-miterlimit="10" stroke-width="0.75"/><path d="M247.86,368.93c-2,.89-20.4,10.24-19.38,1.94.18-1.47,5.48-4,6.73-4.44C239.88,364.7,243.53,366.06,247.86,368.93Z" transform="translate(-169.77 -215.05)" fill="#fff" stroke="#231f20" stroke-miterlimit="10" stroke-width="0.75"/><path d="M242.46,305.9c-2.84,1.33-17.82,10.76-16.7,1.25.27-2.34,5.37-5.1,7.77-5.34C237.16,301.46,239.15,303.65,242.46,305.9Z" transform="translate(-169.77 -215.05)" fill="#fff" stroke="#231f20" stroke-miterlimit="10" stroke-width="0.75"/><path d="M265.19,261.77c-6.11,1.71-15.78,6.25-12.35-4.83C256,246.85,261.64,257.44,265.19,261.77Z" transform="translate(-169.77 -215.05)" fill="#fff" stroke="#231f20" stroke-miterlimit="10" stroke-width="0.75"/><path d="M353.22,289.3c3.48-1.33,22.54-10.68,18.68.57-2,5.78-13.37.4-18.54-.11Z" transform="translate(-169.77 -215.05)" fill="#fff" stroke="#231f20" stroke-miterlimit="10" stroke-width="0.75"/><path d="M326.1,280.09c-5.3-2.51,11-11.25,14.78-9.8C350,273.83,328.29,279.54,326.1,280.09Z" transform="translate(-169.77 -215.05)" fill="#fff" stroke="#231f20" stroke-miterlimit="10" stroke-width="0.75"/><path d="M234.4,388.55c-2.81,2.1-19.56,12.19-15.13,1.63C222.24,383.1,229.77,386.54,234.4,388.55Z" transform="translate(-169.77 -215.05)" fill="#fff" stroke="#231f20" stroke-miterlimit="10" stroke-width="0.75"/><path d="M236.94,376.64c4.55-2.95,11.57-6.42,16.95-6.82C253.81,380.15,244.79,380.4,236.94,376.64Z" transform="translate(-169.77 -215.05)" fill="#fff" stroke="#231f20" stroke-miterlimit="10" stroke-width="0.75"/><path d="M361.55,450.59c9.95,2.68,15.64,2.92,25.62.32-5.57,8.14-21.15,10.46-25.81,0Z" transform="translate(-169.77 -215.05)" fill="#fff" stroke="#231f20" stroke-miterlimit="10" stroke-width="0.75"/><path d="M378,367.17c5.1.33,5.91,3.22,2.48,5.86-4.29,3.3-11.22.6-14.48-2.92C369.27,368.2,374.28,367.71,378,367.17Z" transform="translate(-169.77 -215.05)" fill="#fff" stroke="#231f20" stroke-miterlimit="10" stroke-width="0.75"/><path d="M362,261c-.65,2.77-.86,5.06-3.89,5.6s-5.37-2.05-5.05-3.95c0,.25,5.75-9.08,5.26-8.88C361.33,252.58,361.8,258.37,362,261Z" transform="translate(-169.77 -215.05)" fill="#fff" stroke="#231f20" stroke-miterlimit="10" stroke-width="0.75"/><path d="M228.26,359.18c6.49,2.29,6.3,8.64-1.68,8.78-1.91,0-5.21.33-5.5-3.48C220.85,361.45,226,360.07,228.26,359.18Z" transform="translate(-169.77 -215.05)" fill="#fff" stroke="#231f20" stroke-miterlimit="10" stroke-width="0.75"/><path d="M290.4,236.9c-4.08-2.62-9.13-7.17-14.23-7.14C281.27,224.21,296,227.84,290.4,236.9Z" transform="translate(-169.77 -215.05)" fill="#fff" stroke="#231f20" stroke-miterlimit="10" stroke-width="0.75"/><path d="M276.19,267.66c-4.15.55-15,5.23-18.33,1.93-2.84-2.77.8-3.36,4.06-4.19,5.38-1.38,9.32-.15,14.32,2Z" transform="translate(-169.77 -215.05)" fill="#fff" stroke="#231f20" stroke-miterlimit="10" stroke-width="0.75"/><path d="M269.56,298.71c2.83-.65,22.48-4.22,22.6-.72.16,4.93-19.47,2.52-22.61,1.33Z" transform="translate(-169.77 -215.05)" fill="#fff" stroke="#231f20" stroke-miterlimit="10" stroke-width="0.75"/><path d="M221.39,410.72c-4.82,2.8-9.95,7.33-11-1.76C209.29,399.19,218.18,408,221.39,410.72Z" transform="translate(-169.77 -215.05)" fill="#fff" stroke="#231f20" stroke-miterlimit="10" stroke-width="0.75"/><path d="M367.26,396.58c-5.41,1.91-18.84-3.31-19.53-7.73C354.85,389.92,361.61,391.47,367.26,396.58Z" transform="translate(-169.77 -215.05)" fill="#fff" stroke="#231f20" stroke-miterlimit="10" stroke-width="0.75"/><path d="M372.77,410.5,393.26,406C389.47,410.35,376.76,418,372.77,410.5Z" transform="translate(-169.77 -215.05)" fill="#fff" stroke="#231f20" stroke-miterlimit="10" stroke-width="0.75"/><path d="M218.1,351.87c3.88,1.46,10.51,5.62,3.28,8.26C215.14,362.41,214.7,351.78,218.1,351.87Z" transform="translate(-169.77 -215.05)" fill="#fff" stroke="#231f20" stroke-miterlimit="10" stroke-width="0.75"/><path d="M223.34,383.29l-8.05,5.7c-1.95-3.06-3.51-4-1.42-6.91,2.88-4,6.35-1.36,9.46.56Z" transform="translate(-169.77 -215.05)" fill="#fff" stroke="#231f20" stroke-miterlimit="10" stroke-width="0.75"/><path d="M364.24,390.72c2.54-.16,14.38-1.91,14.18,3.47-.21,5.72-12.67-1.59-14.25-2.93Z" transform="translate(-169.77 -215.05)" fill="#fff" stroke="#231f20" stroke-miterlimit="10" stroke-width="0.75"/><path d="M267.3,371.62c-2.23,2.4-11,9.44-11.75,3.8C254.6,368.51,263.47,369.91,267.3,371.62Z" transform="translate(-169.77 -215.05)" fill="#fff" stroke="#231f20" stroke-miterlimit="10" stroke-width="0.75"/><path d="M239.47,417.07c-1.48,1.82-10.57,9.65-13.12,5.11-.7-1.23,4-5.06,4.47-5.29C233.63,415.63,236.52,416.62,239.47,417.07Z" transform="translate(-169.77 -215.05)" fill="#fff" stroke="#231f20" stroke-miterlimit="10" stroke-width="0.75"/><path d="M339.12,234c-2.31.81-14.92,5.82-13.5.21,1.47-5.8,10.44-2.65,13.54-.6Z" transform="translate(-169.77 -215.05)" fill="#fff" stroke="#231f20" stroke-miterlimit="10" stroke-width="0.75"/><path d="M221.12,420.86c-2-1-4.88-1.4-4.25-3.76.39-1.49,6.13-4.08,7.27-4C231.39,413.62,224.82,419.75,221.12,420.86Z" transform="translate(-169.77 -215.05)" fill="#fff" stroke="#231f20" stroke-miterlimit="10" stroke-width="0.75"/><path d="M228.37,343c-6-.54-2.6-5.07,1.07-6.06,1.2-.32,8.79-1,7.61,2.38C236.76,340.11,229.49,342.52,228.37,343Z" transform="translate(-169.77 -215.05)" fill="#fff" stroke="#231f20" stroke-miterlimit="10" stroke-width="0.75"/><path d="M394.17,359.24c-.72,2.39-8.75,15.34-12.1,7.67-.88-2,10.26-6.91,11.84-7.83Z" transform="translate(-169.77 -215.05)" fill="#fff" stroke="#231f20" stroke-miterlimit="10" stroke-width="0.75"/><path d="M345.44,273.65c.6-2,.8-5.37,2.88-6.48,1.16-.62,6.59-.11,7.13,1.19C356.51,270.93,345.33,275.17,345.44,273.65Z" transform="translate(-169.77 -215.05)" fill="#fff" stroke="#231f20" stroke-miterlimit="10" stroke-width="0.75"/><path d="M259.41,289.05c-2.22,1.06-13.33,5.64-12.82-.25C247.05,283.5,257.91,287.9,259.41,289.05Z" transform="translate(-169.77 -215.05)" fill="#fff" stroke="#231f20" stroke-miterlimit="10" stroke-width="0.75"/><path d="M236.14,423.7c2.93-3.34,12.5-8.73,15.33-8.64C250.77,419.41,241.46,424.66,236.14,423.7Z" transform="translate(-169.77 -215.05)" fill="#fff" stroke="#231f20" stroke-miterlimit="10" stroke-width="0.75"/><path d="M392.23,424.54c-1.2,2.45-8.39,12.81-10.13,5.67-.85-3.46,6.77-4.67,9.86-5.95Z" transform="translate(-169.77 -215.05)" fill="#fff" stroke="#231f20" stroke-miterlimit="10" stroke-width="0.75"/><path d="M262.3,323.12c-.7,6.39-4.87,9.1-11.27,4.91C254.53,325.61,258.44,324.73,262.3,323.12Z" transform="translate(-169.77 -215.05)" fill="#fff" stroke="#231f20" stroke-miterlimit="10" stroke-width="0.75"/><path d="M388,391.42c-1.62.83-3.77,2.51-5.71,2.1-.32-.07-4.72-3.21-4.5-4.15C378.94,384.55,387,389,388,391.42Z" transform="translate(-169.77 -215.05)" fill="#fff" stroke="#231f20" stroke-miterlimit="10" stroke-width="0.75"/><path d="M396.69,380.16c-.55,1.63-7.08,14.81-9.77,7.57-.79-2.12,7.35-6.28,9.47-7.87Z" transform="translate(-169.77 -215.05)" fill="#fff" stroke="#231f20" stroke-miterlimit="10" stroke-width="0.75"/><path d="M323.08,391.79c-2.12-.4-4.59-.39-5.94-2.43-1-1.45-1.65-6.12.6-6.72C318.79,382.35,323.08,390.49,323.08,391.79Z" transform="translate(-169.77 -215.05)" fill="#fff" stroke="#231f20" stroke-miterlimit="10" stroke-width="0.75"/><path d="M209.77,450c4.94,2.31,7.78,7.45,1.07,9.84A24.93,24.93,0,0,1,209.77,450Z" transform="translate(-169.77 -215.05)" fill="#fff" stroke="#231f20" stroke-miterlimit="10" stroke-width="0.75"/><path d="M247.76,436.77c-.95.88-12.27,7.62-13.42,4.44-1-2.76,11.61-4.85,13.21-4.85Z" transform="translate(-169.77 -215.05)" fill="#fff" stroke="#231f20" stroke-miterlimit="10" stroke-width="0.75"/><path d="M241.41,276.82c3.05,1.55,5.08,4.14,7.74,6.4L243.69,286C242.47,283,241.41,280.08,241.41,276.82Z" transform="translate(-169.77 -215.05)" fill="#fff" stroke="#231f20" stroke-miterlimit="10" stroke-width="0.75"/><path d="M225.11,336.24c-3.8.09-6.77-6.26-1.49-6C228.62,330.46,229,334.09,225.11,336.24Z" transform="translate(-169.77 -215.05)" fill="#fff" stroke="#231f20" stroke-miterlimit="10" stroke-width="0.75"/><path d="M209.83,370c1.63,1.25,7.91,10,2.35,9.79-2.81-.13-2.61-7.79-2.77-9.64Z" transform="translate(-169.77 -215.05)" fill="#fff" stroke="#231f20" stroke-miterlimit="10" stroke-width="0.75"/><path d="M226.63,437.62c4.72.71,8.9,3.2,1.85,3.89-4.38.43-7.23-3.75-1.86-3.75Z" transform="translate(-169.77 -215.05)" fill="#fff" stroke="#231f20" stroke-miterlimit="10" stroke-width="0.75"/><path d="M224.12,296.17c.18-2.4,3.87-9.58,4.59-3.19C228.91,294.8,225.14,299,224.12,296.17Z" transform="translate(-169.77 -215.05)" fill="#fff" stroke="#231f20" stroke-miterlimit="10" stroke-width="0.75"/><path d="M221,436.39c.06,4.12-6.73,1.62-5.24-1.53C216.82,432.68,220.4,434.59,221,436.39Z" transform="translate(-169.77 -215.05)" fill="#fff" stroke="#231f20" stroke-miterlimit="10" stroke-width="0.75"/><path d="M377.82,305.84c1.08-1,3.31-4.25,4.84-3.35.67.39,1.9,4.42,1.12,5.07S378.33,306,377.82,305.84Z" transform="translate(-169.77 -215.05)" fill="#fff" stroke="#231f20" stroke-miterlimit="10" stroke-width="0.75"/><path d="M345,250.43c-.25,2.66-5.28,5.43-8.08,4.53C337,253.38,342.78,250.11,345,250.43Z" transform="translate(-169.77 -215.05)" fill="#fff" stroke="#231f20" stroke-miterlimit="10" stroke-width="0.75"/><path d="M332.47,368.74c-2.71-1.2-8.67-4.37-9.08-7.48,3.17-.19,7.43,4.93,9.32,7.23Z" transform="translate(-169.77 -215.05)" fill="#fff" stroke="#231f20" stroke-miterlimit="10" stroke-width="0.75"/><path d="M228.67,301.13c-3.79-2.46,3.21-4.7,4-3.2C233.2,299.05,229,300.91,228.67,301.13Z" transform="translate(-169.77 -215.05)" fill="#fff" stroke="#231f20" stroke-miterlimit="10" stroke-width="0.75"/><path d="M284.91,441.46c-1.22,6.78-6,5.8-.26-.28Z" transform="translate(-169.77 -215.05)" fill="#fff" stroke="#231f20" stroke-miterlimit="10" stroke-width="0.75"/><path d="M247.19,425.23c-5.4,5.5-6.13,1.22-.22-.25Z" transform="translate(-169.77 -215.05)" fill="#fff" stroke="#231f20" stroke-miterlimit="10" stroke-width="0.75"/><path d="M209.7,428.09c1.1.38,5,2.59,4.28,4.48C213.58,433.63,209,429.88,209.7,428.09Z" transform="translate(-169.77 -215.05)" fill="#fff" stroke="#231f20" stroke-miterlimit="10" stroke-width="0.75"/><path d="M274.77,251.62c-1.5.95-3.69-.72-5.1-4C271.1,247.35,274.23,249.81,274.77,251.62Z" transform="translate(-169.77 -215.05)" fill="#fff" stroke="#231f20" stroke-miterlimit="10" stroke-width="0.75"/><path d="M387.67,337.44c-4.61,0-.17-3.68-.14-3.46C387.51,333.8,391.35,337.4,387.67,337.44Z" transform="translate(-169.77 -215.05)" fill="#fff" stroke="#231f20" stroke-miterlimit="10" stroke-width="0.75"/><path d="M372.19,281.4c-.08,3.27-3.14.23-3.47.22C368.85,281.62,372.31,276.94,372.19,281.4Z" transform="translate(-169.77 -215.05)" fill="#fff" stroke="#231f20" stroke-miterlimit="10" stroke-width="0.75"/><path d="M314.34,378.19c3.14.37-.41,4.22-.78,3.42A5,5,0,0,1,314.34,378.19Z" transform="translate(-169.77 -215.05)" fill="#fff" stroke="#231f20" stroke-miterlimit="10" stroke-width="0.75"/><path d="M217.57,325.3a3.6,3.6,0,0,1,2.27,2.37A1.87,1.87,0,0,1,217.57,325.3Z" transform="translate(-169.77 -215.05)" fill="#fff" stroke="#231f20" stroke-miterlimit="10" stroke-width="0.75"/><path d="M215.18,347.53c1.24.87,1.26,1.65.08,2.34C214.06,349.2,214,348.42,215.18,347.53Z" transform="translate(-169.77 -215.05)" fill="#fff" stroke="#231f20" stroke-miterlimit="10" stroke-width="0.75"/><path d="M209.67,399a1.36,1.36,0,0,1,.92,1.9,1.33,1.33,0,0,1-1,.4A1.8,1.8,0,0,1,209.67,399Z" transform="translate(-169.77 -215.05)" fill="#fff" stroke="#231f20" stroke-miterlimit="10" stroke-width="0.75"/><path d="M317.6,554.68c-7,5-22.42,5-29-1.16l.16-.39c5.09,1,9.48,2.75,14.76,2.76,4.73,0,9.2-1.44,13.87-1.76Z" transform="translate(-169.77 -215.05)" stroke="#231f20" stroke-miterlimit="10" stroke-width="0.75"/><path d="M287.46,545.45c10.71,3.75,18.3,1.75,29.27.76l.18.33C313.46,549.49,284.57,552.35,287.46,545.45Z" transform="translate(-169.77 -215.05)" stroke="#231f20" stroke-miterlimit="10" stroke-width="0.75"/><path d="M287.11,528.5c5.6,0,11,1.49,16.63.91C308,529,313,526,317.11,526.55c-4.15,7.07-24,5.89-30.1,2.57Z" transform="translate(-169.77 -215.05)" stroke="#231f20" stroke-miterlimit="10" stroke-width="0.75"/><path d="M287.34,516.77c5.15.61,9.42,2.37,14.75,2.22,5-.13,9.77-1.69,14.72-1.69l.16.3c-6.2,4.66-24.09,4.83-29.81-.38Z" transform="translate(-169.77 -215.05)" stroke="#231f20" stroke-miterlimit="10" stroke-width="0.75"/><path d="M289.58,497.75a134.81,134.81,0,0,0,23.34-.35l.14.47C310.57,498.91,288.48,502.65,289.58,497.75Z" transform="translate(-169.77 -215.05)" stroke="#231f20" stroke-miterlimit="10" stroke-width="0.75"/><path d="M289.24,490.93c8.77,2.78,15.22-.33,23.81-.87C313.68,491.49,292.43,497.33,289.24,490.93Z" transform="translate(-169.77 -215.05)" stroke="#231f20" stroke-miterlimit="10" stroke-width="0.75"/><path d="M306.5,314.24c-1.19,1.43-12.73,3.73-14.37,3C295.5,314.28,302.3,313.19,306.5,314.24Z" transform="translate(-169.77 -215.05)" stroke="#231f20" stroke-miterlimit="10" stroke-width="0.75"/><path d="M296,297c2.8-2.9,8.38-5.5,12.19-3.21C305.64,296.18,299.45,296.38,296,297Z" transform="translate(-169.77 -215.05)" stroke="#231f20" stroke-miterlimit="10" stroke-width="0.75"/><path d="M292.12,258.32l-.43,1.5C285.59,264.53,291.67,247.92,292.12,258.32Z" transform="translate(-169.77 -215.05)" stroke="#231f20" stroke-miterlimit="10" stroke-width="0.75"/><path d="M294.35,342.24a1.71,1.71,0,0,1-1.81-.88,7.17,7.17,0,0,1,5.57-.82,3.64,3.64,0,0,1-3.72,1.86Z" transform="translate(-169.77 -215.05)" stroke="#231f20" stroke-miterlimit="10" stroke-width="0.75"/><path d="M295.93,267.24c2.41-2.25,3.66.11,1.64,2.34Z" transform="translate(-169.77 -215.05)" stroke="#231f20" stroke-miterlimit="10" stroke-width="0.75"/><path d="M297.94,272.49,299,271c1.44.56,1.91,1.64,1.41,3.22C300.18,276.31,296.31,270.07,297.94,272.49Z" transform="translate(-169.77 -215.05)" stroke="#231f20" stroke-miterlimit="10" stroke-width="0.75"/><path d="M297.33,353l-1.63-.75c.2-.14,4.41-2.56,4.45-.34A2.73,2.73,0,0,1,297.33,353Z" transform="translate(-169.77 -215.05)" stroke="#231f20" stroke-miterlimit="10" stroke-width="0.75"/><path d="M303.11,360.86a3.34,3.34,0,0,1-2.86-2.09C302.33,357.46,303.11,358.7,303.11,360.86Z" transform="translate(-169.77 -215.05)" stroke="#231f20" stroke-miterlimit="10" stroke-width="0.75"/><path d="M315.84,265.41l1.41-1.43c1.23,1,1.21,1.93-.06,2.9Z" transform="translate(-169.77 -215.05)" stroke="#231f20" stroke-miterlimit="10" stroke-width="0.75"/><path d="M315.11,271.82c-.37-.17-2.45-2.78-.43-2.52A2.14,2.14,0,0,1,315.11,271.82Z" transform="translate(-169.77 -215.05)" stroke="#231f20" stroke-miterlimit="10" stroke-width="0.75"/><path d="M320.79,258.62l1,2C320.31,260.83,319.84,260,320.79,258.62Z" transform="translate(-169.77 -215.05)" stroke="#231f20" stroke-miterlimit="10" stroke-width="0.75"/><path d="M293.33,417.38a70.06,70.06,0,0,0,19.35-.05C309.14,422.07,297.64,421.63,293.33,417.38Z" transform="translate(-169.77 -215.05)" stroke="#231f20" stroke-miterlimit="10" stroke-width="0.75"/><path d="M310,402.7c-3.21,2.76-12.9,3.4-15.52-.44C295.7,401.61,308.69,401.91,310,402.7Z" transform="translate(-169.77 -215.05)" stroke="#231f20" stroke-miterlimit="10" stroke-width="0.75"/><path d="M269.91,392c3.76-7.06,14.23-28.91,23-29.89.21,4.41-7.91,11.4-10.41,15.09-3.63,5.36-6.36,13.17-11.7,16.9Z" transform="translate(-169.77 -215.05)" stroke="#231f20" stroke-miterlimit="10" stroke-width="0.75"/><path d="M365.74,421.17q1.89,1.71.84,3.61-2.1-.86-1.35-3.44Z" transform="translate(-169.77 -215.05)" stroke="#231f20" stroke-miterlimit="10" stroke-width="0.75"/><path d="M354,358.55c1.92,1.77,3.07,4.9,1.5,7.22C353.65,364.2,353.57,360.72,354,358.55Z" transform="translate(-169.77 -215.05)" stroke="#231f20" stroke-miterlimit="10" stroke-width="0.75"/></svg>