<svg id="Layer_1" data-name="Layer 1" xmlns="http://www.w3.org/2000/svg" viewBox="0 0 132.72 83.04"><title>foot-bone-right</title><path d="M240.24,432.24v-78h119l-5.58.86c.23,1.54-2.78,6.5-3.71,7.49-2.86,3.05-5,2.75-8.84,1-4.14-1.84-14.39-10.75-19-8.53,2,20.09-19.67,28.33-32.8,38.28-9,6.79-17.88,15.95-28.06,20.79C251.73,418.71,242.61,419.55,240.24,432.24Z" transform="translate(-240.24 -354.24)" fill="#fff"/><path d="M373,371.76v65.52H260.64c4.82-.71,10.71.26,14.91-.65,3.13-.66,11.46-3,13.47-5.44l-2.78.65c1.72-3,6.55-6,9.12-8.61,3.88-3.94,9-5.78,13.12-9.35,3.28-2.85,4.16-4.12,8.09-5.93s9.58-3,12.71-5.71,4.2-6.33,7.75-8.93c4.26-3.11,8.19-4.06,13.2-5.28C361.27,385.33,370.61,383.9,373,371.76Z" transform="translate(-240.24 -354.24)" fill="#fff"/><path d="M373,371.76c-2.26,11.67-10.61,13.18-21.34,15.92-4.94,1.26-9,2.05-13.37,4.84s-5.29,6.72-9,9.72c-3,2.44-8.09,3.59-11.6,5.14-4,1.77-5,3-8.08,5.63-4.07,3.54-9.16,5.55-13.17,9.21-2,1.79-3.33,4.09-5.28,5.9-1.64,1.53-3.66,1.52-4.91,3.72l2.78-.65c-3,3.65-12.46,4.89-16.48,5.17-6.68.47-13.77,1.09-20.63.6-6-.43-12.94.1-10.85-7.47,2.26-8.17,8.52-11.32,15.73-13.65,8.75-2.84,15-9.16,22.11-14.63a244.7,244.7,0,0,1,22.64-15.16,81.21,81.21,0,0,0,15.4-13.1c4-4.4,5.82-12,5.22-17.85,4.56-2.2,15,6.74,19,8.53,3.36,1.49,5.65,2.14,8.56-.53.92-.84,4.19-6.7,4-8,5.6-.86,10.26-2,14.69,2.4C372.33,361.43,373,366.48,373,371.76ZM299.9,397.64c3-1.93,5.13,3.12,6.86,4.68,2.3,2.1,8.62,6.73,11.48,1.58,1.5-2.68-3.6-10-5.52-11.82-1.68-1.61-9.2-4.92-10.76-.95,1,.86,5.18,3.8,5.08,5.46-.12,1.9-1.53.66-2.06,1,0,0-3.29-1.46-4.33-1.24-2.06.43-3.56,3.88-4.44,5.4-2.76,4.73-4.92,9.14-9,13s-8.41,3.74-8.5,9.14c-.27,15.8,13.67-1.45,18.06-5,2.54-2.06,8.47-4,10.11-6.82C309.52,407.49,302.07,401.67,299.9,397.64Zm33.17-6,.28.22c9.68-6.7,21.29-6.09,31.07-11.59,6.7-3.77,6.11-16.79-.15-21.28-2.58-1.87-8.45-1.93-10.78.9-2.56,3.1,1.82,7.2-.57,11.43s-7.47,4.63-11.2,6.88C336.8,381.22,335.41,386.57,333.07,391.68Zm-12.17-15c1.13,2.84,4.43,8.64,7.79,9.49,4.22,1.06,3.64-1.24,6.18-4.8,2.7-3.79,5.37-5,9.29-6.84,2.13-1,8.76-4.31,6.48-7.85-1.22-1.9-5.54-.79-7.35-1-4.19-.57-7.63-2.66-11.23-4.74-4.31-2.48-4.94-3.41-7.36.95C322.43,366,321.86,372.11,320.9,376.69Zm4.54,24.41c4.35-.1,5.59-6.8,3.85-9.88-1.38-2.44-4.72-3.19-6.79-4.86s-3.38-5-5.43-6.05-4.55-1.81-5.74,1.25c-1.27,3.26,2.09,5.22,3.73,7.4C318.15,393.08,320.26,400.29,325.44,401.1Zm-55.55,30.62,0,.27c10.25,0,4.78-7.57-2.7-5.87-2.44.56-8.44,1.44-8,4.55C259.88,434.54,267.43,432,269.89,431.72ZM296,394.67l-.76-.54c-1.66,3.66-13.58,15.25-11.63,18.05C286.71,416.73,295.54,396.86,296,394.67Zm-6,3.31-.25-.37c-2.33.7-16.07,8.2-12.11,12.45C279.86,412.5,288.72,400.23,289.94,398ZM264,422.69l.09.4c5.13,0,13.32-3.09,16.15-7.7C276.47,414.06,267.2,420.57,264,422.69Zm-1.77-3.61c.78-.22,15.73-5,11-6.77C270.57,411.36,261,416.67,262.24,419.08Zm-11.05,2.64.12.51,6.3-1.52-.1-.42C255.27,420.15,253.06,420.16,251.19,421.72Zm-.94,10.46c1.54-.62.58-2-.81-1.79Z" transform="translate(-240.24 -354.24)"/><path d="M373,367.2c-1.34-5.83-3.68-10.67-9.6-13H373Z" transform="translate(-240.24 -354.24)" fill="#fff"/><path d="M240.24,432.48c.6,5.74,10.25,4.1,14.16,4.8H240.24Z" transform="translate(-240.24 -354.24)" fill="#fff"/><path d="M299.9,397.64c1.89,3.52,8.8,9.51,7.52,13.29-1.15,3.4-8,5.72-10.69,7.9-4.28,3.46-18.4,20.9-18.06,5,.11-5.08,3.29-4.75,7.34-8.14,4.72-3.95,7.23-8.75,10.2-14,.94-1.65,1.82-4,3.6-4.85,2.06-1,3.19.63,4.66.3,1.16-.26,2.1,2.24,2.57-.6.29-1.83-3.89-4.43-5.08-5.46.92-2.33,7.84-1.73,9.78-.36,2.53,1.78,7.82,10.26,6.5,13.13-1.79,3.93-8.51,1.43-10.65-.48C305.92,402,303.08,395.59,299.9,397.64Z" transform="translate(-240.24 -354.24)" fill="#fff"/><path d="M333.07,391.68c2.32-5.07,3.76-10.48,8.65-13.44,3.71-2.23,8.86-2.72,11.2-6.88,2.23-3.95-1.62-7.75-.08-10.69,1.92-3.65,8.72-3.5,11.43-1.64,6.5,4.44,6.64,17.44.15,21.28-4.56,2.7-11.36,3-16.44,4.55a50.7,50.7,0,0,0-14.63,7Z" transform="translate(-240.24 -354.24)" fill="#fff"/><path d="M320.9,376.69c.93-4.46,1.6-10.87,3.8-14.82s2-3.46,6.22-1.73c3.81,1.56,6.83,4.58,11.06,5.4,1.8.35,7.43-.89,8.66,1.15,3,5-12.72,10.63-15,13.57-2.66,3.45-2.42,7.07-7,5.92C325.23,385.3,322.09,379.66,320.9,376.69Z" transform="translate(-240.24 -354.24)" fill="#fff"/><path d="M325.44,401.1c-5.16-.81-6.5-6.84-9.43-10.93-1.74-2.44-6.06-5-4.68-8.61,1.08-2.79,3.72-2.29,5.74-1.25,1.77.91,3.81,4.75,5.43,6.05s5.09,2.2,6.3,4.13C330.82,393.71,330.54,401,325.44,401.1Z" transform="translate(-240.24 -354.24)" fill="#fff"/><path d="M269.89,431.72c-2.59.3-8.5,2.33-10.14-.18-2.51-3.83,5.14-4.89,7.47-5.42,7.56-1.71,12.84,5.87,2.7,5.87Z" transform="translate(-240.24 -354.24)" fill="#fff"/><path d="M296,394.67c-.46,2.44-9.2,22.11-12.39,17.51-1.88-2.7,10.06-14.59,11.63-18.05Z" transform="translate(-240.24 -354.24)" fill="#fff"/><path d="M289.94,398c-1.22,2.25-10.08,14.52-12.36,12.08-4-4.25,9.78-11.75,12.11-12.45Z" transform="translate(-240.24 -354.24)" fill="#fff"/><path d="M264,422.69c3.19-2.12,12.46-8.63,16.24-7.3-2.88,4.68-10.88,7.7-16.15,7.7Z" transform="translate(-240.24 -354.24)" fill="#fff"/><path d="M262.24,419.08c-1.18-2.37,8.45-7.67,11-6.77C278,414,263.18,418.82,262.24,419.08Z" transform="translate(-240.24 -354.24)" fill="#fff"/><path d="M251.19,421.72c1.87-1.56,4.08-1.57,6.32-1.43l.1.42-6.3,1.52Z" transform="translate(-240.24 -354.24)" fill="#fff"/><path d="M250.25,432.18l-.81-1.79C250.83,430.17,251.79,431.56,250.25,432.18Z" transform="translate(-240.24 -354.24)" fill="#fff"/></svg>