<svg id="Layer_1" data-name="Layer 1" xmlns="http://www.w3.org/2000/svg" viewBox="0 0 93.69 206.5"><title>forearm-bone-left</title><path d="M352.56,499.92c3.2-13.47-7.17-28.84-10.17-42.08-4.22-18.65-7.87-37.38-11.64-56.15-3.65-18.22-8.8-35.8-14-53.61a128.55,128.55,0,0,1-5-27.29c-.67-9.68,1.16-18,1.16-27.37-4.46,0-10.13,2.08-14.36,3.62-5.41,2-10.58,3.17-16,4.94-4.07,1.31-8.61,1.75-12.36,2.94-5.05,1.61-7.77,6.67-10.71,10.7,3.5,8.15,3.78,16,10.39,22.45,7.06,6.87,11.25,14.42,13.95,24.1,6.06,21.69,8,44.2,12.83,66.09,2.3,10.49,5.2,20.77,7,31.38,1.63,9.5,1.2,20.92,4.92,29.87s9.53,5,17,4.59c5.56-.33,8.33,3.26,13.42,4.57,4,1,8.72.81,12.86,1.25" transform="translate(-259.47 -293.42)" fill="#fff"/><path d="M351.84,499.92c-4-.43-8.93-.23-12.86-1.25-4.35-1.12-7.39-4.68-12-4.68-7,0-13.78,4.87-17.93-3.27-4.25-8.34-3.61-20.22-5.1-29.32-1.84-11.22-4.88-22.07-7.3-33.14-4.67-21.29-7.07-43-12.38-64.23C281.89,354.56,278,345.71,271,339c-7.28-7-7.67-14.38-11.51-23.33,3-4.05,5.65-9.08,10.71-10.7,3.7-1.18,8.33-1.68,12.36-2.94,5.46-1.72,10.65-3,16-4.94,4.07-1.49,10-3.62,14.36-3.62,0,8.79-1.79,16.56-1.26,25.62a126.16,126.16,0,0,0,4.59,27.42c5.26,18.38,10.72,36.45,14.48,55.23,3.71,18.46,6.92,37,11.35,55.27a154.38,154.38,0,0,0,4.25,15.6c3.25,9.16,8.58,17.41,6.21,27.36Zm-3.36-3.76.12,0c-1.94-13-7.3-25.3-10.42-38.06-3.8-15.56-7.18-31.15-9.92-46.94a461.71,461.71,0,0,0-10.34-46c-4.05-14.46-8.43-28.33-9.38-43.39-.34-5.34,1.18-11.49-4.93-12.59-2.69-.49-15.92,4.35-16.23,7.39-.2,2,7.82,9.49,9,12.16,2.7,6.26,4.06,13.28,5.56,19.91,6.73,29.72,14.46,59.19,19.92,89.38a145.59,145.59,0,0,1,2.67,25c.08,8.24-1.83,15.47-2.59,23.45-.8,8.41,7.61,6.22,13.83,8.67C338.82,496.28,348.48,502.41,348.48,496.16Zm-71.16-178c-20,7.56.21,16.93,4.83,26.78,6.66,14.25,8.68,31.71,11.42,47.1,3.25,18.2,6.42,36.2,10.5,54.23,1.15,5.09,5.16,47.31,11.6,47,9.58-.47-1.27-38.66-2.22-44.24-1.57-9.32-2.66-18.67-3.62-28.08-.76-7.38-3-16.16-2.19-23.53.24-2.13,1.45-3.49,1.63-5.69.32-3.91-1.93-9.48-2.93-13.25-2.14-8-5.19-15.76-6.75-23.94C297,340.92,294.33,319.6,277.32,318.14Zm26.46-12.37c3.63,1.12,11.86-12.11-2.87-7.95-10.06,2.84-21.56,5.66-31.08,10-3.29,1.5-9.44,6.49-5.39,10.77,2.68,2.84,5.7-.9,8-2,4.85-2.35,10.29-3.24,15.35-5.38C292.59,309.15,298.39,305.48,303.78,305.77Zm8,97.23-.16,0c0,21,2.68,44.88,9.23,64.94l.31-.05C323,446.44,316.33,423.8,311.8,403Z" transform="translate(-259.47 -293.42)"/><path d="M348.48,496.16c0,5.5-5.12,1.8-8,.62s-6.34-2.92-9.43-3.72c-2.57-.66-6.84.56-8.64-1.61-2.84-3.41,1.61-13.68,1.88-17.85a129.09,129.09,0,0,0-.62-24.55c-1.92-15.14-5.38-30.24-8.43-45.18-3-14.71-7.65-28.76-11.19-43.21-2.91-11.87-2.93-27.24-10.74-37.28-4.53-5.82-8.39-5.87-1-10.09,3.64-2.09,11.52-7.21,15.18-2.56,2.8,3.54,1.11,15.1,1.63,19.62.84,7.39,3.08,14.5,5.08,21.63,4.31,15.35,8.92,30.6,11.75,46.31,3.19,17.66,6.31,35.24,10.49,52.69,3.6,15.06,9.85,29.92,12.13,45.16Z" transform="translate(-259.47 -293.42)" fill="#fff"/><path d="M277.32,318.14c16.41,1.41,19.47,21.46,22,34.76,1.65,8.75,4.76,17,7,25.55,1,3.77,3.25,9.34,2.93,13.25-.16,2-1.33,3.11-1.57,4.9-1,7.58,1.35,16.71,2.13,24.32.9,8.78,1.89,17.52,3.31,26.23.94,5.71,12.17,45.62,2.53,46.09-6.46.32-10.1-40.25-11.2-45.22-4-18-7.36-36-10.58-54.2C291.1,378,288.78,361,282.66,346.17,278.44,335.9,257,325.83,277.32,318.14Z" transform="translate(-259.47 -293.42)" fill="#fff"/><path d="M303.78,305.77c-5-.27-9.9,2.82-14.29,4.69-5.06,2.15-11.24,2.83-16,5.31-2.42,1.26-6.09,6-9.06,2.82-4.24-4.48,2.29-9.37,5.39-10.77,9.24-4.19,20.1-6.57,29.79-9.57,2.31-.71,8.51-3.07,10-.3S306.68,306.67,303.78,305.77Z" transform="translate(-259.47 -293.42)" fill="#fff"/><path d="M311.8,403c4.53,20.8,11.22,43.43,9.38,64.92l-.31.05c-6.54-20-9.23-44-9.23-64.94Z" transform="translate(-259.47 -293.42)" fill="#fff"/></svg>