<svg id="Layer_1" data-name="Layer 1" xmlns="http://www.w3.org/2000/svg" viewBox="0 0 136.56 180.79"><title>head-bone</title><path d="M375.12,415.2c-2.55-6.7-2.45-12.29-2.87-19.48s-2.24-13.88-2.53-21c-.33-8.21.39-17-1-25.08-1.26-7.06-6.09-13.39-10.69-18.65-10.27-11.75-19.62-19.27-35.2-22.55-15.21-3.2-34.06-2.75-48.7,2.92-9.77,3.78-22.18,11.48-28,20.28-8.84,13.36-8,30.11-6,45.13,1,7.74,1.57,15.87,3.34,23.47,1.52,6.57,5.53,12.68,8,18.83,1,2.4,2.21,7.39,5.45,7.71,2.69.27,4.24-3.76,7.16-3.64,7.56.31,6.34,11.68,6.22,16.74-.19,8-2,15.45,3.73,21.85,3.58,4,7.89,5.11,12.45,6.95,7.28,2.92,11.59,8.48,17.87,12.92,9.06,6.41,18,2.15,27.82,5.61" transform="translate(-238.56 -306.41)" fill="#fff"/><path d="M332.16,487.2c-9.78-3.44-18.85.81-27.82-5.61-6.9-4.93-11.49-9.75-19.18-12.92-5.35-2.2-9.84-4.48-12.88-9.67-5-8.47-.55-18.57-2.16-28.06-.6-3.57-1.59-7.63-6.05-7.81-3.41-.15-4.65,4-8,3.14-4.48-1.1-4.26-8.41-5.66-11.63-1.7-3.91-4.76-7-6.2-11.19-2.81-8.16-3-18.18-4.09-26.69-1.41-10.5-2.78-21.07.45-31.38,4.94-15.78,15.45-25.93,30.69-32.82,16.81-7.6,39.21-7.64,56.77-2.9,16.26,4.39,32.25,19.1,39.14,34.56,3.5,7.86,2.2,18.2,2.46,26.6.3,9.5,2.4,18.57,2.8,28a84.9,84.9,0,0,0,1.72,13.82c.76,3.76,1.57,5.91-1.1,9.47-3.29,4.38-10.24,5-13.71,9.06s-.48,6.65-.19,11.26C360.08,457.79,351.23,487.2,332.16,487.2Zm-5.3-15,0-.56c6.42-2,17.72,2.24,23.05-1.25,1.88-1.24,4.06-9,2.53-10.94-2.34-2.93-5.42.27-8.39,1-7.83,2.05-16.37-.75-24-2.5s-16.09-7.64-23.61-7.64c.55.75,3.86,4.28,1.8,5.26s-7.56-15-7.79-16.9c-.37-3.15,1.61-5.92,1.47-8.62-.05-.88-2.13-4.08-1.8-4.67,2.4-4.34,15.64,1.45,16.39,5.52.28,1.53-1.55,3.5-1.28,4.34.81,2.63,6.49,4.45,8.86,5.37,6.28,2.44,13.63,4.71,20.42,4.91,4.16.12,16.78-.76,19.36-4.25,1.54-2.07-.42-5.84.42-8.34,1.19-3.49,3.28-4.82,6.4-6.78,5.56-3.49,11.34-4.5,9.78-12.43-.4-2-1.85-3.86-2.21-6.14-.51-3.2-.07-6.79-.1-10-.05-7.58-2.69-14.28-3-21.74-.74-16.19.29-28.14-10.3-41.51-9.87-12.48-20.37-20.07-36.28-23-13.61-2.52-34.34-1.75-46.61,4.87-12.7,6.85-26.35,18.79-28.21,33.91-1,8.23-.31,17.48.66,25.7.74,6.26.83,5.31,4.42,8.08,4,3.09,5.16,3.15,3.41,9.59-1-2-2-3.93.54-5.71-5.12-.61-5.81-1-6.17,3.69-.27,3.48,1.06,9.12,2.47,12.34,4.51,10.31,11,3.33,18.94,1.11,3.27-.91,8.31-.78,10.91-3.2s2.59-7.36,4.07-10.79c1.74-4.05,4-7.26,3.71-11.92-.12-1.73-5.32-12.09-4.55-13,2-2.5,6.89,6.79,7.19,7.68a19.25,19.25,0,0,1-.26,13.05c-2.63,6.87-4.64,16.37-11.83,19.34-4.87,2-21.74,2.95-22.3,10.5-.52,7,12.45,2.86,16.43,7.28,7.2,8,.38,21,3.41,30.35,3.35,10.35,14.5,12.77,22.5,18.47,4.26,3,8.39,8.41,13.3,10.27,4.63,1.75,11.1.63,16.08,1.13,9.91,1,15.1-2.64,21-10.61C340.76,472.34,333.79,473.23,326.86,472.21Zm1.5-19.47c-6.1.45-2.17,6.31,2.13,5C334.59,456.44,332.13,453.38,328.36,452.74Zm10.3.83c-.28.47-7.1,3.57-2,4.91C340,459.38,341.85,455.21,338.66,453.57Zm-25.15.58c3.23-1.9-1.81-6.64-3.8-5.21C307.06,450.84,311.34,454,313.51,454.15Zm-13.16-22.41c6.38,0-2.74-7.39-4.39-3.27C295.19,430.4,299.49,431.73,300.35,431.74Zm-7.7,1.73c.59,2.31,5,6.78,4.65,1.88C297.1,432.64,293.92,430.79,292.65,433.47Zm30.15,20.16c.29-2.45-5-2.84-5.81-1.09S322.78,458.21,322.8,453.63Zm30-2.87c-3.37-.05-3.24,5-.4,4.68C354.49,455.17,356,450.81,352.83,450.76Zm-55.95-6.06c0,3.75,4.79,2.2,4.5-.18C301.08,442,296.86,441.39,296.88,444.7Zm5.92,3.13c.53,2.41,3.69,4.28,3.76.4C306.62,445.15,302.47,445.1,302.8,447.83Zm41,7.44c.05,5.63,3.46,0,3.67,0S343.79,449.36,343.84,455.27Zm-41.19-17c0-3.37-4.35-2.18-3.6,0S302.6,442.06,302.65,438.26Zm1.47,3.49c-.11,4.49,3.36-.48,3.27-.46C307.55,441.25,304.26,436.21,304.12,441.75Zm18.57,5.18c-2.46-5.84-3.59,2.56-1.89,2.83A3,3,0,0,0,322.69,446.93ZM335.85,452m-18.94-3.35c-.05-.58.15-4.72-1.18-4.9C312.89,443.42,314.66,448.15,316.91,448.69Zm38.91-3.9c-3.31-4.24-2.93,2.83-2.18,3A3.26,3.26,0,0,0,355.82,444.79Zm-62.95-4.65,16.5,4c-.18,3.72,3.08-.11,3.19-.13C312.5,444,309.6,439.33,309.37,444.14Zm18,5.25,13.93,1.35c3.63-.05,0-3,0-2.9S338,450.57,341.29,450.74Zm4.41-1.13.77,0q1.33-2.73-.76-3.85Q344.21,447.36,345.7,449.61Zm-17.29-.38,1.44,1.5c1-1.4,1.26-1.07,0-2.89Zm20.12-2.89,1.38,1.45c1.14-1.26,1.2-.76-.38-2.58Z" transform="translate(-238.56 -306.41)"/><path d="M358.1,437.5a11.34,11.34,0,0,1,1-2.67l.16-3.62c-1.76,2.29-1.83,5.16-1.57,8.18A18,18,0,0,1,358.1,437.5Z" transform="translate(-238.56 -306.41)" fill="#fff"/><path d="M340.91,486.43c.33-.08.69-.15,1.07-.22a4.63,4.63,0,0,1,1.35-2.46c4.09-4,8.06-7.16,9.78-12.82,1.55-5.07,2.88-10.35,4.15-15.5a21.42,21.42,0,0,0,.56-4.95c-2.64,14.13-5.94,32.51-22.54,36.72h3.87A5.06,5.06,0,0,1,340.91,486.43Z" transform="translate(-238.56 -306.41)" fill="#fff"/><path d="M375.12,417.12" transform="translate(-238.56 -306.41)" fill="#fff"/><path d="M370.27,423.9" transform="translate(-238.56 -306.41)" fill="#fff"/><path d="M326.86,472.21c6.93,1,13.9.13,20.81,1.22-5.9,8-11.13,11.61-21,10.61-4.69-.47-10.28.59-14.69-.74-5.11-1.54-9.15-6.47-13.32-9.61-7.65-5.77-19.3-8.42-23.35-17.93-4.16-9.8,3.67-23.44-3.93-31.94-4.25-4.75-15.33-.1-16.19-6.33-1-7.52,16-9.64,20.86-11.12,8.3-2.56,10.17-12.2,13-19.67a19,19,0,0,0,.6-11.75c-.19-.72-5.1-12.05-7.53-9-1,1.3,3.89,9.33,4.26,11.44.82,4.75-.82,8.13-2.76,12.32-1.39,3-1.79,8.83-3.75,11.31-2.38,3-8.6,3-11.89,3.89-7,2-13.9,8.8-18.46.09-1.83-3.51-2.17-8-2.68-11.83-.81-6.05-.31-6.14,5.9-5.4-2.5,1.78-1.54,3.74-.54,5.71,2.91-10.71-3.15-6.23-6.92-12-3.5-5.38-1.77-19-1.75-25.15,0-13.71,7.28-25.24,18-33.56,22.05-17.06,64.5-18.47,85.11,2.08,10.56,10.54,17.94,22,18.43,37.12.26,8.11-.3,15.47,1.71,23.34,1.82,7.12.66,14.08,1.35,21.3.42,4.32,4.53,9.82,1.7,14.08-3.45,5.18-12.57,4.72-15.3,11.08-3.8,8.83,2.88,8.72-8,11.81-7.21,2-14,2.58-21.39.61-4.21-1.13-18.67-4.11-19.92-8.91-.56-2.13,2.27-3.47,0-6.7-2-2.77-7.62-4.29-10.77-4-6.05.59-2.21.43-2.92,3.29-.35,1.39-.77,4.7-1,6.52-.34,2.52,4.56,22.72,7.75,21.2,2.06-1-1.25-4.51-1.8-5.26,7.09,0,14.9,5.57,21.91,7.27,8,1.95,17.51,5,25.73,2.87,2.49-.65,5.7-3.55,7.94-1.63s.24,8.49-1.34,10.14c-4.77,4.94-16.94.55-23.79,2.64Zm-19.18-62.39c7.93-.9,15.07-5.71,15-14.51-.09-7.81-6.63-16.78-15-16C286.78,381.38,286.62,408.41,307.68,409.82Zm30.81-19c.89,7.33,2.95,15,10.91,17.47,7.69,2.42,15.77-5,16.14-12.7C366.34,378.8,338.83,372.51,338.49,390.85Zm-2.64,17,.52,0c.79,2,2.31,4.71,2.56,6.92.32,2.8-1,4.4-1.13,6.8-.11,2-.47,6.51,3.8,4.66,5.26-2.29,0-22-7.3-20-4.28,1.15-11.78,20.7-4,22,5.9,1,1.22-5.75.93-7.41C330.38,416.08,333.06,412.19,335.85,407.84Zm-86.91-28.11,36.11,5.62c-2.46-1.47-4.62-3-7.38-3.64C278.06,384.31,282.2,386.33,285.05,385.35Zm-11.11-6.68,1.33-34.34-6.42,32.74.16-11.84,1.49-15.89c1.86,1.92,3,.82,1.36-1.56Zm24.78-30.2c1.61-1.58,1-3.39-1.27-1.23Zm-15.06,14.59-22.74,67.59,13.08-14,1.35,1.45c1.16-1.27,1.21-.75-.37-2.61Zm3.91-48.08,1.07,1.07c1.52-1.82,1.48-1.32.33-2.52Zm-4.21,44.52c1.12-1.33,1.48-1,.14-2.63C269,382.59,269.32,382.34,270.26,383.78Zm14-54q-1.32-1.87-2.37,0C282.54,331,283.33,331,284.25,329.8Zm-14.37,31.41,1-5q1.78-1.4-.05-2.43Q269,354.87,270.88,356.2Zm15.94-32.85-24.9,47,30.27-49.45a1.15,1.15,0,0,0-1.76,1.49Zm-22,51c.81-1.64.5-2.08-1.22-1.85ZM256.4,397.71l.25-.49-1.26-1.54-.44.16C254.66,397.14,255.15,397.76,256.4,397.71Z" transform="translate(-238.56 -306.41)" fill="#fff"/><path d="M328.36,452.74c3.61.61,6.3,3.53,2.13,5C326.69,459,321.8,453.22,328.36,452.74Z" transform="translate(-238.56 -306.41)" fill="#fff"/><path d="M338.66,453.57c3.28,1.69.94,6.53-2,4.91C332.21,456.08,337.89,454.85,338.66,453.57Z" transform="translate(-238.56 -306.41)" fill="#fff"/><path d="M313.51,454.15c-2.18-.15-6.51-3.31-3.8-5.21C311.63,447.6,316.82,452.2,313.51,454.15Z" transform="translate(-238.56 -306.41)" fill="#fff"/><path d="M300.35,431.74c-.86,0-5.16-1.34-4.39-3.27C297.61,424.35,306.73,431.74,300.35,431.74Z" transform="translate(-238.56 -306.41)" fill="#fff"/><path d="M292.65,433.47c1.19-2.52,4.4-1.37,4.65,1.88C297.66,440,293.26,435.88,292.65,433.47Z" transform="translate(-238.56 -306.41)" fill="#fff"/><path d="M322.8,453.63c0,4.54-6.63.67-5.81-1.09S323.09,451.18,322.8,453.63Z" transform="translate(-238.56 -306.41)" fill="#fff"/><path d="M352.83,450.76c3,.05,1.85,4.39-.4,4.68C349.77,455.78,349.25,450.71,352.83,450.76Z" transform="translate(-238.56 -306.41)" fill="#fff"/><path d="M296.88,444.7c0-3.31,4.2-2.72,4.5-.18C301.67,446.9,296.9,448.45,296.88,444.7Z" transform="translate(-238.56 -306.41)" fill="#fff"/><path d="M302.8,447.83c-.31-2.57,3.84-2.93,3.76.4C306.48,451.76,303.39,450.48,302.8,447.83Z" transform="translate(-238.56 -306.41)" fill="#fff"/><path d="M343.84,455.27c0-5.91,3.91,0,3.67,0S343.89,460.9,343.84,455.27Z" transform="translate(-238.56 -306.41)" fill="#fff"/><path d="M302.65,438.26c0,3.8-2.82,2.26-3.6,0S302.68,434.89,302.65,438.26Z" transform="translate(-238.56 -306.41)" fill="#fff"/><path d="M304.12,441.75c.14-5.54,3.43-.5,3.27-.46C307.48,441.27,304,446.24,304.12,441.75Z" transform="translate(-238.56 -306.41)" fill="#fff"/><path d="M322.69,446.93a3,3,0,0,1-1.89,2.83C319.26,449.52,320.1,440.8,322.69,446.93Z" transform="translate(-238.56 -306.41)" fill="#fff"/><path d="M335.85,452" transform="translate(-238.56 -306.41)" fill="#fff"/><path d="M316.91,448.69c-2.25-.54-4-5.27-1.18-4.9C317.06,444,316.86,448.11,316.91,448.69Z" transform="translate(-238.56 -306.41)" fill="#fff"/><path d="M355.82,444.79a3.26,3.26,0,0,1-2.18,3C352.89,447.62,352.41,440.42,355.82,444.79Z" transform="translate(-238.56 -306.41)" fill="#fff"/><path d="M292.87,440.14" transform="translate(-238.56 -306.41)" fill="#fff"/><path d="M309.37,444.14c.23-4.81,3.13-.12,3.19-.13C312.45,444,309.19,447.86,309.37,444.14Z" transform="translate(-238.56 -306.41)" fill="#fff"/><path d="M327.36,449.39" transform="translate(-238.56 -306.41)" fill="#fff"/><path d="M341.29,450.74c-3.27-.17,0-2.77,0-2.9S344.92,450.69,341.29,450.74Z" transform="translate(-238.56 -306.41)" fill="#fff"/><path d="M345.7,449.61q-1.49-2.25,0-3.89,2.1,1.13.76,3.85Z" transform="translate(-238.56 -306.41)" fill="#fff"/><path d="M328.41,449.23l1.44-1.39c1.26,1.82,1,1.49,0,2.89Z" transform="translate(-238.56 -306.41)" fill="#fff"/><path d="M348.53,446.34l1-1.13c1.58,1.82,1.52,1.32.38,2.58Z" transform="translate(-238.56 -306.41)" fill="#fff"/><path d="M307.68,409.82c-21.08-1.41-20.85-28.48,0-30.48,8-.77,14,7.17,14.79,14.55C323.44,403.25,316.28,408.85,307.68,409.82Zm1.73-27c-6,1-15,3.74-15.36,11.32-.36,6.66,6.8,11.86,12.7,12.38C323.32,408,322.69,382.29,309.41,382.85Z" transform="translate(-238.56 -306.41)"/><path d="M338.49,390.85c.34-18.33,27.86-12.05,27.05,4.77-.35,7.17-7.53,14.39-14.82,13C341.94,407,339.42,398.51,338.49,390.85ZM362,393.66c-1.56-12-19.9-16.9-20.48-2.53-.2,5,4.11,13.89,9.78,14.87C357.34,407,361.94,399.09,362,393.66Z" transform="translate(-238.56 -306.41)"/><path d="M335.85,407.84c-1.82,2.84-5.86,8.37-5.42,11.73.2,1.53,6.62,8.52.49,8.85-8.34.45-1.24-21,3.38-22.26,7.07-1.91,11.89,15.81,7.85,19.35-3,2.64-4.69-.69-4.77-3.16-.06-1.86,2-3.93,1.94-6.21-.07-2.7-2-5.89-2.95-8.32Z" transform="translate(-238.56 -306.41)"/><path d="M248.94,379.73" transform="translate(-238.56 -306.41)"/><path d="M285.05,385.35c-2.85,1-7-1-7.38-3.64C280.43,382.36,282.59,383.88,285.05,385.35Z" transform="translate(-238.56 -306.41)"/><path d="M273.94,378.67" transform="translate(-238.56 -306.41)"/><path d="M275.27,344.33" transform="translate(-238.56 -306.41)"/><path d="M268.85,377.07" transform="translate(-238.56 -306.41)"/><path d="M269,365.23" transform="translate(-238.56 -306.41)"/><path d="M270.5,349.34l1.36-1.56C273.38,350,272.48,351.39,270.5,349.34Z" transform="translate(-238.56 -306.41)"/><path d="M295.28,319.14,294,317.91C296,316.07,297.12,317.34,295.28,319.14Z" transform="translate(-238.56 -306.41)"/><path d="M280.22,333.73" transform="translate(-238.56 -306.41)"/><path d="M257.48,401.32" transform="translate(-238.56 -306.41)"/><path d="M270.56,387.34l1-1.16c1.58,1.86,1.53,1.34.37,2.61Z" transform="translate(-238.56 -306.41)"/><path d="M274.47,339.26l1.4-1.45c1.15,1.2,1.19.7-.33,2.52Z" transform="translate(-238.56 -306.41)"/><path d="M270.26,383.78c-.94-1.44-1.31-1.19.14-2.63C271.74,382.74,271.38,382.45,270.26,383.78Z" transform="translate(-238.56 -306.41)"/><path d="M284.25,329.8c-.92,1.18-1.71,1.17-2.37,0Q282.93,327.93,284.25,329.8Z" transform="translate(-238.56 -306.41)"/><path d="M269.88,361.21" transform="translate(-238.56 -306.41)"/><path d="M270.88,356.2q-1.87-1.33-.05-2.43Q272.66,354.8,270.88,356.2Z" transform="translate(-238.56 -306.41)"/><path d="M286.82,323.35" transform="translate(-238.56 -306.41)"/><path d="M261.92,370.33" transform="translate(-238.56 -306.41)"/><path d="M292.19,320.88l-1.76,1.49A1.15,1.15,0,0,1,292.19,320.88Z" transform="translate(-238.56 -306.41)"/><path d="M270.22,371.86,269,370C270.72,369.78,271,370.22,270.22,371.86Z" transform="translate(-238.56 -306.41)"/><path d="M256.4,397.71c-1.25.05-1.74-.57-1.45-1.87l.44-.16,1.26,1.54Z" transform="translate(-238.56 -306.41)"/><path d="M309.41,382.85c13.28-.56,13.91,25.17-2.66,23.7-5.9-.52-13.06-5.72-12.7-12.38C294.45,386.59,303.38,383.81,309.41,382.85Z" transform="translate(-238.56 -306.41)" fill="#fff"/><path d="M362,393.66c-.07,5.43-4.67,13.39-10.7,12.34-5.73-1-10-9.78-9.78-14.87C342.1,376.89,360.44,381.56,362,393.66Z" transform="translate(-238.56 -306.41)" fill="#fff"/></svg>