<svg id="Layer_1" data-name="Layer 1" xmlns="http://www.w3.org/2000/svg" viewBox="0 0 218.25 167.04"><title>hip-bone</title><path d="M344.64,479.28H197v-167h39.12c-11.9,3.65-21.06,5.34-29.08,16.07-6.93,9.26-13.12,24.63-7.9,35.92,2.8,6.06,7.49,7.64,12.18,11.64,4.9,4.18,6,10.4,8,16.25,1.67,4.89,3.12,10.14,8.18,11.82,5.77,1.92,11.51.28,17.41,3.27,11.06,5.63,13.33,18.21,8.87,29.12-3.21,7.82-9.89,17.39-5.2,25.92,15.21,27.68,45.37,9.05,61.51-5.86,4.9,2.65,9.93,11.22,14.73,15.13,3.18,2.59,6.24,4.88,10.32,5.82C338.36,478.06,341.82,477.22,344.64,479.28Z" transform="translate(-196.95 -312.24)" fill="#fff"/><path d="M415.2,357.12V479.28H346.32c6.65-3.84,14.8-3.77,19.35-11.09,4.68-7.51.54-19.63,8.32-25.1-4.39-3.52-7.39-3.22-8.45-9.44-.92-5.41.41-7.9,2.68-12.45,4.1-8.21,10.71-19.26,21.06-19.26-4.07-3,3.76-6.22,5.41-8.32,2.93-3.73,3.08-9.13,4.89-13.36C403.47,371.18,413.24,367.34,415.2,357.12Z" transform="translate(-196.95 -312.24)" fill="#fff"/><path d="M241,312.24H415.2v43.68c-1.93-2.71-3.05-9.53-4.51-12.9-2.09-4.84-3.43-9.9-6.89-14-6.94-8.27-20.27-9.55-30.39-10.71s-21-.34-27.87,7.73c-6.16,7.2-10.74,22.75-22.14,22.78,4.25,3.15-12.61,7.19-15.43,7.79-6.42,1.37-15.51,1.33-21.87-.45a26.6,26.6,0,0,1-14-10.35c-1.41-2-1.83-2.77-3.54-4.91-1.54-1.93-4.38-4.77-4.38-7.44l.5,0c-3.91-4.3-4.19-10.61-8.32-14.94C252.12,314,246.86,313.16,241,312.24Z" transform="translate(-196.95 -312.24)" fill="#fff"/><path d="M241,312.24c5.86.92,11.15,1.78,15.45,6.28,4.13,4.34,4.41,10.64,8.32,14.94l-.5,0c0,2.74,2.88,5.42,4.38,7.44,2.4,3.2,1.36,1.74,3.54,4.91a26.51,26.51,0,0,0,14,10.35c6.44,1.8,15.44,1.77,21.87.45,2.5-.52,19.73-4.6,15.43-7.79,8.29,0,13.28-9.24,17.21-15.33,4.61-7.17,8.33-12.63,17.06-14.5,13.67-2.93,38-.88,47,11.16,4.27,5.73,7.6,14.46,9.58,21.28,1.86,6.45.06,11.23-4.38,16.3-5.34,6.09-9.27,9.63-11.81,17.54-1,3.29-1.83,6.62-4.19,9.23-1.58,1.76-8.48,4.53-4.55,7.46-10.29,0-17,11.12-21.06,19.26-2.28,4.56-3.51,7-2.68,12.45,1,6.32,4.1,6,8.45,9.44-7.39,5.2-3.91,16.62-7.72,23.94-3.07,5.86-13,12-19.76,12.14-5.74.16-14.28-2.2-19-5.55a75.05,75.05,0,0,1-10-8.9c-2-2-5.19-7.14-7.39-8.33-16.21,15-46.27,33.48-61.51,5.86-5-9,2.66-18.92,5.73-27.25,4.34-11.74-.08-24.69-12.27-29.15-4.81-1.76-11.68,0-16-2-4.74-2.17-6.43-10.79-7.85-15-2.08-6.25-3.76-10.54-9.23-14.52s-9.7-7.15-11.27-14.08C192,334.68,217.55,312.24,241,312.24Zm30.28,83.86.52-.35c-1.86-5.71-6.27-8.29-9.88-12.64-2.9-3.5-3.08-7-4.27-11.31s-3.27-8.4-3.37-12.83c-.16-7.51,4.58-10.26,8.35-15.45.45-.62,2.86,0,3.22-.77.53-1.12-3-5.69-3.32-6.21-2.43-4.47-3.57-10-6.49-14.14-6.74-9.6-20.59-8.76-30.42-4.7-16.07,6.63-36.05,36-19.33,51.43,3.22,3,7.24,4.51,10.07,8,3.77,4.64,4.2,10.24,6.25,15.66,4.54,12,13.5,7.52,22.79,12.79,8.1,4.6,14.54,16.11,12.83,25.53s-12.52,19.45-7.14,29.52c5.71,10.7,18.81,14.77,29.35,10.76a102.9,102.9,0,0,0,14.12-6.28c4.12-2.35,10.47-11.44,15-11.36,4,.08,7.84,6.34,10.35,9.05,3.46,3.73,6.93,6.95,11.71,8.95,10,4.22,24.49,3.68,30.82-6.49,3.16-5.07,6.19-19.42,4.28-24.88-.52-1.51-2.48-2.79-3.12-4.45-1.55-4,.81-6.86.54-10.57-.38-5.35-3.66-7.33-9.64-8-6.72-.76-14.58,1.64-21.22,2.43s-10.1,2-15.58,5.32c-6.67,4.1-11.11,2.48-17.94-.43-6.54-2.78-12.65-2.84-19.23-4.68-5.6-1.57-10.93-6-15-10-2.51-2.5-10.22-8.24-11.59-11.13-1.25-2.63-1-7.26,1.79-9.4C260.88,385.61,267.44,393.33,271.24,396.1ZM336.87,344c8.47,4.32,12.94,15.67,11.94,24.87a32.21,32.21,0,0,1-5.61,14.66c-2.75,4-7.4,7.9-7.94,12.95,4.82-1.27,19.95-21.29,21.2-5.88.69,8.5-16.61,19.51-21.42,26.05,7.57-.4,26.61-7.34,30.46,3.78,5.13-5.6,7-12.06,13.49-16.66a50.63,50.63,0,0,0,13.93-15.46C397,381,397.34,375,403.25,368.43c6.84-7.66,9.29-11.47,5.09-21.19-2.93-6.79-5.87-15.07-12.19-19.51S380.36,322.33,373,322c-7.92-.31-17.35-1.87-23.55,4.1C344.63,330.79,340.54,338.41,336.87,344Zm8.84,19c-.19-4.08-3.5-14.22-8.21-15.47-4.39-1.17-13.68,5.24-17.77,6.71-10.67,3.82-23.23,5-34.37,2.44-9.26-2.1-19.44-18.37-26.11-5.07-5.46,10.9,1.94,26.14,8.88,34.49s8.31,18.6,15.65,27c6,6.81,22.63,14.88,31.11,9.68,4.75-2.92,9.38-8,12.38-12.64,3.35-5.13,2.51-9.34,4.3-14.82C335.5,383.2,345.58,376.75,345.71,363Zm-63,54.29c.26-2.51-3.59-5.31-4.86-7.09-2.26-3.15-3.32-8.26-5.7-11-1.32-1.53-9.3-7.2-11.52-7.27-9.26-.26,1.8,10.59,4.08,13C270.07,410.37,274.85,415.79,282.75,417.26Zm44.51-.36.31.29c3.15-2.27,28.17-27.55,23.89-28.35-1.57-.3-12.78,9.42-14.16,10.83C333,404.07,330.58,411.6,327.26,416.9Z" transform="translate(-196.95 -312.24)"/><path d="M271.24,396.1c-3.39-2.47-8.95-8.9-13.65-7.54-3.15.92-4.76,4.44-4.31,7.53.51,3.51,3.56,4.87,6.31,7.53,5.08,4.92,9.18,10.16,15.44,13.73,4.78,2.73,8.55,2.61,13.76,3.49,5.55.94,10.17,4.07,15.42,5.79,6.17,2,9.06.86,14.43-2.27,6.21-3.62,11.16-4.14,18.38-5.06,6.65-.84,25.58-6.06,27.58,4.18.5,2.53-1.83,6-1.6,8.9.31,3.77,1.48,3.73,2.49,6.67.38,1.1,1.93,1.82,2.14,3.15.42,2.71-1.67,7.15-2.09,9.92-1.6,10.46-4.18,19.65-16.38,21.71-11.52,1.95-21.64-2.79-29.27-11-2.28-2.47-5.79-8.33-9.37-9.06-4.58-.94-9.95,7.43-13.4,9.79-8,5.51-21.26,12.25-31,8.92-12-4.11-18.26-12.95-14.87-24.84s10.24-18.46,3.93-31.15c-5-10-12.34-11.91-22.27-14-12.92-2.69-9.67-16.77-16.63-25.35-6.43-7.92-14.67-9.44-15.77-21.05-1-10.35,6-24.11,13.53-31,8.23-7.48,21.56-12.62,32.76-9.72,5,1.28,8.85,6,11,10.36,1,2.07,8.71,15.6,8,17-.13.26-3.62,1.32-3.22.77-1.91,2.64-4.79,4.13-6.41,7.41-2.7,5.47-1.9,10.16-.22,15.81,1.39,4.67,2,10.63,4.51,14.77,3.28,5.37,9.17,7.74,11.29,14.24Zm70.5,61.2a12.87,12.87,0,0,0,9.11-5.62c3.68-5.36.8-8.13-.35-13.6-1.46-7,7-12.26-3.17-10.8-7.82,1.12-17.74,4.17-19.93,12.88S333.89,455.87,341.74,457.3Zm-75.68-34c1.16,4,2.24,7.68,2.17,11.87s-1.64,8-.31,12c2.45,7.34,12,11.75,18.88,7.72,7.08-4.17,6.85-12.93,2.8-19.3C284.77,428,274.59,424.42,266.06,423.31Z" transform="translate(-196.95 -312.24)" fill="#fff"/><path d="M336.87,344c3.67-5.6,7.76-13.22,12.58-17.87,6.2-6,15.63-4.41,23.55-4.1,7.36.29,16.93,1.31,23.15,5.69s9.26,12.72,12.19,19.51c4.2,9.72,1.75,13.53-5.09,21.19C397.34,375,397,381,392.92,388.32A50.63,50.63,0,0,1,379,403.78c-6.46,4.6-8.36,11.06-13.49,16.66-3.86-11.14-22.89-4.18-30.46-3.78,5-6.8,21.73-17.24,21.42-26.05-.54-15.43-16.8,4.72-21.2,5.88.5-4.71,4.39-7.93,7-11.63a33.65,33.65,0,0,0,6.52-16C349.83,359.65,345.37,348.35,336.87,344Z" transform="translate(-196.95 -312.24)" fill="#fff"/><path d="M345.71,363c-.13,13.74-10.34,20.23-14.14,32.31-1.51,4.79-.88,8.91-3.45,13.41a44.13,44.13,0,0,1-12,13.1c-9,6.49-25.72-1.16-32.38-8.73-7.4-8.41-8.62-18.55-15.65-27s-14.32-23.64-8.88-34.49c6.63-13.22,16,2.29,24.81,4.73,11.34,3.13,24.72,1.84,35.67-2.1,4.23-1.52,13.39-7.88,17.77-6.71C342.18,348.75,345.53,359.06,345.71,363Zm-46.49,11c2.17-.19,32.15-2.39,29.58-7.24-.47-.89-22,4.44-24.63,4.68a52.45,52.45,0,0,1-13.71-.31c-2.58-.44-10.11-4-12.11-1.44C277.06,371.31,297.93,373.86,299.22,374Zm7.16,17.2c2.62-.17,14.82.65,16.13-3.35,1-3.16-7.67.46-9.59.69a70,70,0,0,1-19.12-.27c-1.9-.36-11.15-5.39-12.69-3.58C278.49,387.75,304.77,391.11,306.38,391.16Zm14.34,4.95c-5.49,1.78-10.41,4-16.25,4.5-4.74.42-10.79-2.4-15-1.28C293.76,406.59,322.79,401.4,320.72,396.11Zm-17,19.76c1-.15,18-1.5,16.1-5.16.21.41-22.48,1.54-24.45,2.5C296.94,415.79,301.06,415.48,303.71,415.87Z" transform="translate(-196.95 -312.24)" fill="#fff"/><path d="M282.75,417.26c-7.9-1.47-12.68-6.89-18-12.41-2.28-2.37-13.34-13.22-4.08-13,2.22.07,10.2,5.74,11.52,7.27,2.38,2.75,3.44,7.86,5.7,11C279.16,412,283,414.75,282.75,417.26Z" transform="translate(-196.95 -312.24)" fill="#fff"/><path d="M327.26,416.9c3.22-5.14,5.71-13.13,10-17.23,2.07-2,12.16-11.21,14.16-10.83,4.35.82-20.59,26-23.89,28.35Z" transform="translate(-196.95 -312.24)" fill="#fff"/><path d="M341.74,457.3c-7.3-1.33-15.83-7.64-14.65-15.95,1.34-9.48,12.22-12.92,20.24-14.07,9.73-1.4,2.1,2.82,3,9.25.75,5.59,4.26,8.39,1.27,14.09A12.89,12.89,0,0,1,341.74,457.3Zm7.11-10.89c-.74-4.14-.54-14.23-4.9-15.32-3.95-1-9.77,3.84-11.41,6.91C325.32,451.52,348.42,459.33,348.85,446.41Z" transform="translate(-196.95 -312.24)"/><path d="M266.06,423.31c8.1,1.06,17.67,4.35,22.72,11.17,4.69,6.35,5.66,15.92-2,20.41-6.4,3.75-15.52.15-18.49-6.52-1.75-3.92-.37-7.64-.14-11.66C268.44,431.85,267.39,427.9,266.06,423.31ZM279.7,454c17.72-.35,8.41-23.08-3.92-25.55-3.62-.73-2.63-1.82-4.62,1.11-1.15,1.7-.58,9.06-.61,11.31C270.47,447.55,272.66,452.41,279.7,454Z" transform="translate(-196.95 -312.24)"/><path d="M299.22,374c-1.65-.13-21.91-3-20.87-4.31,2-2.56,8,.6,10.72,1.13a52,52,0,0,0,15.1.62c3-.27,24.1-5.7,24.63-4.68C331.42,371.65,301.24,373.78,299.22,374Z" transform="translate(-196.95 -312.24)"/><path d="M306.38,391.16c-1.71-.06-27.9-3.4-25.27-6.51,1.57-1.85,10.79,3.23,12.69,3.58a71.16,71.16,0,0,0,19.12.27c1.58-.17,10.93-3.57,9.59-.69C320.58,392,309.5,391,306.38,391.16Z" transform="translate(-196.95 -312.24)"/><path d="M320.72,396.11c2.17,5.54-27,10.4-31.23,3.22,4.21-1.13,10.27,1.7,15,1.28C310.3,400.1,315.23,397.89,320.72,396.11Z" transform="translate(-196.95 -312.24)"/><path d="M303.71,415.87c-2.65-.39-6.77-.08-8.35-2.66,1.35-.66,24.58-2.25,24.45-2.5C321.74,414.37,304.75,415.72,303.71,415.87Z" transform="translate(-196.95 -312.24)"/><path d="M348.85,446.41c-.43,12.76-23.63,5.31-16.31-8.41,1.58-3,7.49-7.89,11.41-6.91C348.31,432.17,348.11,442.28,348.85,446.41Z" transform="translate(-196.95 -312.24)" fill="#fff"/><path d="M279.7,454c-6.23-1.38-8.84-5.44-9.29-11.55-.16-2.15-.36-11.24.75-12.89,2-2.93,1-1.84,4.62-1.11C288.09,430.88,297.43,453.62,279.7,454Z" transform="translate(-196.95 -312.24)" fill="#fff"/></svg>