<svg id="Layer_1" data-name="Layer 1" xmlns="http://www.w3.org/2000/svg" viewBox="0 0 105.36 294.96"><title>leg-bone-right</title><path d="M253.2,267.12v-18H358.56v295h-9.12c16.55-6.78,4-30.8,0-42.45A229.08,229.08,0,0,1,342,474.91c-1.88-8.85-2.3-17-7.06-24.82l3.17-.25c-1.94-18.37-5.55-36.85-9.18-55-4-19.86-12.84-38.22-14.37-58.59-.66-8.93-1.15-18.86,2.09-27.34,2.2-5.75,7.15-16.2,3.1-21.9-4.57-6.42-18.19-.13-25.17-1.06-11.23-1.5-9.81-6.37-13.09-15.45-3,7.77,2.67,14.78,9.58,16.15,7.49,1.47,24.84-3.88,26.69,6.86.79,4.59-2.69,10.64-4,14.87a67.83,67.83,0,0,0-3.33,16.14c-.81,11.61,1.77,23.67,3.66,35.08,3.8,23,8,45.9,12.25,68.79,4.17,22.49,7.85,44.56,16.07,66,2.39,6.24,23.26,55.1,2,45.49a91.31,91.31,0,0,1-11.53-6.39c-4.71-3.09-3.85-3.58-4.84-8.87-2-10.62-3.47-21.08-4.77-31.88-5.46-45.32-24.22-88.6-36.34-132.37-3.45-12.46-8.33-24.47-12.76-36.6-1.48-4.07-2.8-8.24-4-12.29s-4.62-9.93-3.78-14c.89-4.32,6.42-6.36,8-10.7,2-5.65,1.21-12.56,1.94-18.44.69-5.63,1.65-8.73-3.59-12.64-3.61-2.69-10-5-14.32-6.11C256.31,255.45,254.18,261,253.2,267.12Zm85.07,263.17c-.71-2.57-7-20.93-8.61-20.5-2.14.58,5.86,21,7.33,22.81Z" transform="translate(-253.2 -249.12)" fill="#fff"/><path d="M348.72,544.08H253.2V273.36c6.16,23.26,15,46.25,23.42,69.07,8.56,23.18,15.31,46.77,22.42,70.42,7.71,25.62,16.44,50.35,20,77,1.66,12.3,1.37,25.5,5.08,37.41,2,6.43,5.19,6.75,11,9.6C339.81,539.13,344.26,541.42,348.72,544.08Z" transform="translate(-253.2 -249.12)" fill="#fff"/><path d="M348.72,544.08c-4.46-2.66-8.91-5-13.57-7.23-7.37-3.61-9.75-4.25-11.82-12.69-3.32-13.47-3.16-27.92-5.31-41.62-4.58-29.22-15.52-56.77-23.5-85.15-7.56-26.84-17.48-52.7-26.59-79.05-2.2-6.38-4-12.91-6.15-19.28-1.83-5.44-5.13-10.15-6.67-15.75-3.42-12.44-1-21.92,3.32-33.67,6.75,1.68,18.76,5.76,19,13.93.26,8.75-1.14,22.26-6.89,28.91-3.8,4.4-4.56,4.14-3,10.33,1,3.85,2.68,7.49,3.8,11.22,3.09,10.36,7,20.56,10.6,30.85,7.61,21.54,13.33,43.93,20.16,65.76,6.88,22,14.45,44,18.93,66.72,2.11,10.64,2.92,21.55,4.14,32.33.79,7,1.09,18.89,6.61,23.3,4,3.2,16.62,11.57,21,6.55,6.1-6.95-1.66-23.81-4.47-30.64-17.59-42.72-23.18-87.78-31.43-133-2.23-12.23-4.31-24.5-5.87-36.84-1.67-13.26.66-24.14,4.79-36.69,5.62-17.1-7.17-14.62-20.09-15.38-3.73-.22-8.85,0-11.62-3.1-2.38-2.62-3.77-10.41-2.62-13.39,3,8.33,1.37,13.31,11.42,15.14,6.78,1.24,21.18-4.48,26.17.46s.22,16.21-1.89,21.56c-3.57,9.05-3.34,19-2.63,28.59,1.49,19.79,10,37.56,14,56.82,3.87,18.66,7.55,37.79,9.55,56.74l-3.17.25c4.48,7.35,5,14.81,6.71,23.12a234,234,0,0,0,8.39,30.07c2.89,8.29,9.34,20.5,8,29.37C357.47,536.65,353.25,544.08,348.72,544.08ZM275,262.94c.27-5.71-9.61-12-14.29-9.13-6.52,3.95-4.34,20-2.72,25.72,1.72,6.1,5.37,17.84,12.06,9.27C274.67,282.82,273.82,270.4,275,262.94Zm47.43,121c-.33,3.7,10.18,62.83,11.43,64.1,0-11.25-2.38-22.54-4.16-33.61-.82-5.08-1.67-10.11-2.85-15.13C325.86,395.32,325.92,386.6,322.38,384Zm12.21,68.21c-.87,1.32-.4,4.56.86,5.9C336.4,455.84,336,452.88,334.59,452.19Z" transform="translate(-253.2 -249.12)"/><path d="M338.27,530.29,337,532.6c-1.5-1.81-9.45-22.23-7.33-22.81C331.16,509.39,337.48,527.43,338.27,530.29Z" transform="translate(-253.2 -249.12)"/><path d="M275,262.94c-1.08,7.13-.2,18.75-4,24.87-6.41,10.27-11.15-1.75-13-8.28-1.8-6.36-3.39-19.47,1.94-24.71C264.27,250.5,275.25,256.67,275,262.94Z" transform="translate(-253.2 -249.12)" fill="#fff"/><path d="M322.38,384c3.61,2.67,3.18,9.89,4.05,13.83,1.22,5.56,2.32,11,3.22,16.66,1.78,11.06,4.16,22.37,4.16,33.61C332.56,446.81,322.05,387.68,322.38,384Z" transform="translate(-253.2 -249.12)" fill="#fff"/><path d="M334.59,452.19c1.38.69,1.81,3.65.86,5.9C334.19,456.75,333.72,453.51,334.59,452.19Z" transform="translate(-253.2 -249.12)" fill="#fff"/></svg>