<svg id="Layer_1" data-name="Layer 1" xmlns="http://www.w3.org/2000/svg" viewBox="0 0 80.64 376.56"><title>thigh-bone-right</title><path d="M346.8,584.64H266.16V208.08H346.8Zm-23.23-2.29c6.44-9.81,9.1-19.06,3.44-30.24-6-11.78-11.11-23.22-13.27-36.37-4.54-27.72-5.88-55.84-6-83.88a747.43,747.43,0,0,1,4.62-86c1.48-13.53,3.1-27,6.12-40.33a145.32,145.32,0,0,1,6.2-21.16c2.52-6.4,4.8-7.91,1.24-14.08-3.3-5.72-5.39-9.49-.24-14.24,3.88-3.57,11.54-4,14.93-7.65,2.06-2.2,3.69-8,4.55-10.87,2.45-8.18.59-12.92-3.76-19.37-4.63-6.87-14.19-11.39-23-9.52a16.07,16.07,0,0,0-8.38,4.81c-5.72,6.26,1.19,12.38-1.56,18.65-2.1,4.8-13.46-5.08-18.91,3.41-2.38,3.71-5,13.85-4.83,18.19.23,6.31,5.34,11.74,6.06,18.11,1.4,12.36-1.3,26.22-2,38.67-.78,14.68-1.63,29.33-2.89,44-2.76,31.91-5.4,63.84-7.08,95.83-1.72,32.86-4.31,65.23-12.52,97.21,7.61,3.27,14,5.19,18.84,11.81,1.77-4.38-4.87-8.76-8.15-10.25-6.75-3.07-6.87-2.85-5.06-11.29A448.71,448.71,0,0,0,279.5,492c3-28.22,4.68-56.64,6.33-85,1.81-31.18,4.89-62.27,6.52-93.47.74-14.26,3.65-30.86,1.55-45-.82-5.53-5.34-9.54-5.29-15.25,0-4.65,2.56-17.05,7.21-19,5.6-2.36,8.33,5.75,13.19,2.8,6-3.64-.09-11.9,1.34-17,3.16-11.21,19.86-10.22,27.18-4.32,8.91,7.19,10.05,20.82,1.35,28.5-10,8.83-25.92,9.15-17.34,25.9,3.23,6.32.88,10.44-1.26,17.09a221.78,221.78,0,0,0-6.23,23.38c-2.81,13.71-5.45,27.75-7.26,41.63-4,30.37-3.3,61.53-2.92,92.09.41,32.34,1.3,67.52,14.57,97.56,4.23,9.57,17,31.6,1.91,38.68-5.37,2.52-16.83,2.47-22.42.66-6.75-2.19-4.44-8.09-8.05-13.08l-.33.21c1.07,6.76,1.35,12.32,8.4,14.75C306.12,586,315.31,583.45,323.57,582.35Z" transform="translate(-266.16 -208.08)" fill="#fff"/><path d="M323.57,582.35c-8.26,1.1-17.45,3.66-25.62.84-7.05-2.43-7.33-8-8.4-14.75l.33-.21c2.61,3.61,1.47,9.41,5.41,12.22,4.45,3.17,15.1,1.92,20.15,1.22,14.38-2,13.17-18.81,8.11-29.18-13.28-27.19-17.49-55.49-19.12-85.55-3.2-59.16-2.5-122.76,15.85-179.63,1.79-5.57,4.56-10.5,2-16-3.07-6.52-6.36-10.94-.05-17.16,8.06-7.95,22.66-8.11,22.79-22.55.1-11.38-9.93-21-21.3-20.23-4.61.32-11.14,2.85-13.09,7.46-2.42,5.7,3.7,12-.61,17-5.07,5.91-7.93-4.16-14.18-1.52-4.9,2.07-6.45,12.94-6.94,17.55-.66,6.18,3.56,9.8,4.79,15.5,1.52,7.1,0,15.69-.3,22.92-1.13,31.11-3.79,62-6.24,93.05-2.53,32.2-3.38,64.53-6.42,96.7a449.58,449.58,0,0,1-7.16,50.5c-1.29,6.12-5.45,14.11.24,17.93,3.26,2.19,14.15,4.11,11.41,10.89-4.88-6.63-11.25-8.55-18.84-11.81,14.2-55.3,13-113.57,17.62-170.18q3.45-42.25,5.84-84.52c.37-6.76,1.75-14.26,1-21-.64-5.7-4.29-9.94-5.51-15.33-1.85-8.16,2.64-26.39,13.61-25.3,3.87.39,7.46,5.77,9.58.92s-3.36-11.48-.11-16.87c5.59-9.23,18-7.47,26.28-3.59s12.78,13.7,11.34,22.58c-.58,3.62-2.48,10.12-4.92,12.82-3.73,4.14-11,5-15.41,9-4.64,4.28-3.54,7.27-.62,12.69,3.27,6.07,3.34,6,.94,12.19-5.41,14-8.72,28.45-11,43.23a611.18,611.18,0,0,0-7.22,84.57c-.42,32.41.58,64.44,4.55,96.63,1.87,15.23,5.45,29.14,12.5,42.84C331.5,561.19,331.57,570.16,323.57,582.35Z" transform="translate(-266.16 -208.08)"/></svg>