<svg id="Layer_1" data-name="Layer 1" xmlns="http://www.w3.org/2000/svg" viewBox="0 0 133.44 378.96"><title>thigh-bone-left</title><path d="M372.48,256.8V586.08H239v-379H372.48v47c-2.47-7.17-.28-13.86-7-18.69-2-1.44-5.06-3.36-7.59-3.37-3.28,0-5.63,3.08-9.13,2.07-8.21-2.37-3.73-13.77-5.75-19.33-1.82-5-11.71-8.46-16.62-7.06-10.74,3.05-23.2,21.76-19.83,32.84,2,6.39,7.52,5.72,11.59,10.15,5.85,6.37,1.1,14.14-1.87,20.51-6.63,14.21-.76,33.08-2.95,48.41-2.58,18-6.41,36.38-10.3,54.18-7.63,34.92-15.28,69.48-25.31,103.87-5.65,19.39-12.52,35.46-25.86,50.76-5.81,6.67-12,14.65-12.46,23.81-.47,9.46,3.6,18.64,7.42,27,10.66-6.73,18.17-1.51,29.17.8,4.63,1,9.66-.34,14.18,1,4.9,1.43,8.86,3.59,14.07,4.72,3.15-6,6.5-11.59,7.23-18.47.87-8.16-.36-14.83-1.31-22.91a217.72,217.72,0,0,1-.22-45c2.65-28.81,9.12-56.5,14.72-84.78s10.75-56.49,18.24-84.26c3.45-12.8,6.84-24.73,11.74-37.09C359.62,280.65,366.74,269.11,372.48,256.8Z" transform="translate(-239.04 -207.12)" fill="#fff"/><path d="M372.48,256.8c-5.74,12.31-12.85,23.86-17.87,36.5-4.92,12.37-8.28,24.29-11.74,37.09-7.51,27.76-12.69,56.05-18.24,84.26s-12.06,56-14.72,84.78a219.83,219.83,0,0,0,.22,45c.86,7.43,2.17,13.78,1.42,21.31-.78,7.74-3.79,13.27-7.34,20.07-4.8-1-8.44-3.06-12.95-4.44-4.95-1.51-10.27-.2-15.3-1.25-11.08-2.33-18.42-7.59-29.17-.8-7.44-16.35-10.52-30.23.75-45.49,4.8-6.5,10.71-11.88,15-18.75a109.55,109.55,0,0,0,11.05-23.74,764.88,764.88,0,0,0,26.93-106.13c3.19-17.79,6.92-35.58,10.44-53.32,3.49-17.58,1-34.24,2.73-51.77.73-7.52,6.65-13.15,7.12-20.58.63-9.71-6.15-8.8-11.62-14-10.35-9.81,3.66-26.83,11.06-33.34,6.12-5.38,11.64-6.21,18.89-1.15,7.62,5.32.2,15.74,6.94,21.7,3.09,2.75,5.48.81,8.83.21,4-.72,5.75-.49,9.46,1.8C371.43,239.12,372.48,249.07,372.48,256.8ZM282,578.25c4.29,1,12.08,4.81,16.26,4.38,6-.61,8.3-10.51,8.72-15.13,1.33-14.8-2.72-29.79-3-44.63-.56-29.78,4.57-60.36,12.12-89.11C323.94,404,328,373.38,335,343.39c3.58-15.39,7.49-30.49,13.35-45.2,2.59-6.5,5.22-13.08,8.38-19.33,3.28-6.46,8.19-12,11.22-18.56,2.34-5.09.67-10.46-1.15-15.76a14.21,14.21,0,0,0-3.75-6.2c-3.57-3.24-4.34-1.45-7.93-.83-5.28.92-9.71.67-13.18-4.39-3.64-5.3-1.39-12.3-4.42-17.6-8.26-14.45-22.94,4.68-26.29,12.4-1.6,3.7-4.85,10.38-2.28,14.29,2.77,4.23,9.75,2.66,13.13,7.59,7,10.23,2.85,29.6.85,41-2.15,12.23-5.51,23.77-7.76,36.14-5.33,29.29-9.59,58.75-16.64,87.68-4.15,17.07-8.94,34-13.37,51-4.05,15.56-8.52,32.15-16.42,46.26-7.06,12.63-25.24,24.14-26.15,39.54-.26,4.42,1.7,16.21,4.56,19.73,3.67,4.52,13,3.4,18.46,4.45.49-8.56-3.83-16.15-1.71-25.06,2.67-11.25,10.88-9.86,20.38-6.89,7,2.21,15,6,12.93,14.58C295.37,566,287.37,572.7,282,578.25Zm12.07-23.5c-.1-6.49-15.43-11.06-20.54-10.37-9,1.21-7.83,14.1-6.29,20.35,1.78,7.24,4.24,16.36,12.94,11C286.36,571.89,294.14,562.27,294.09,554.75Zm24.16-255.43h.24c.41-2.6,5.24-30.18,3.78-30.48C313.41,267.07,317.74,296.23,318.25,299.32Z" transform="translate(-239.04 -207.12)"/><path d="M282,578.25c5.32-5.52,11.88-11.36,14.61-18.75,3.4-9.2-4.54-13.47-12.35-15.92-8.44-2.64-17.12-4.65-20.11,5.6-2.7,9.26,1.95,17.43,1.44,26.35-4.37-.83-12.32-.07-16.05-2-4.93-2.62-4.82-10.53-5.82-15.26-3.38-16.1,9.58-25.34,18.58-36.83,18-23,23-56.29,30.34-83.87a811.88,811.88,0,0,0,17.95-85.86c1.19-7.67,2.73-15.25,4.19-22.88,1.36-7.09,1.42-15,3.69-21.87a126.28,126.28,0,0,0,6.74-36.83c.14-6,.53-14-2.53-19.35-3.3-5.82-9.94-3.59-13.31-7.75-5.9-7.27,5.92-24.84,11.73-28.81,4.64-3.17,11.92-5.12,15.88.26,3.58,4.87,1.35,12.3,4.35,17.6,2.65,4.67,7.38,7.05,12.56,6,3-.61,3.92-2.79,7.28-1.29,2.37,1.06,4.27,4.4,5.19,6.64,1.86,4.51,3.74,11.24,2.22,15.73-2.23,6.55-7.88,12.21-11.09,18.29a223.34,223.34,0,0,0-16.27,41.08c-8.78,30.1-13.8,61.06-19.54,91.81-6.27,33.57-16.41,65.82-17.59,100.27-.59,17,2.81,33.36,3,50.2.09,6.34.17,16.7-6.39,20.39C296,583.79,287.48,579.53,282,578.25Z" transform="translate(-239.04 -207.12)" fill="#fff"/><path d="M294.09,554.75c.05,7.44-7.17,15.59-12.71,19.92-8.93,7-12.07-1.58-14.12-9.94-1.45-5.87-2.84-17.73,4.91-20.33C277.26,542.68,294,548.15,294.09,554.75Z" transform="translate(-239.04 -207.12)" fill="#fff"/><path d="M318.25,299.32c-.53-3.2-4.76-32.23,4-30.48,1.46.3-3.39,28-3.78,30.48Z" transform="translate(-239.04 -207.12)" fill="#fff"/></svg>