<svg id="Layer_1" data-name="Layer 1" xmlns="http://www.w3.org/2000/svg" viewBox="0 0 63.12 258.24"><title>upper-arm-bone-left</title><path d="M338.16,502.8v22.56H275V267.12h63.12v235c-4.61-21.37-15.67-40.62-19-62.53-3.5-22.87,3.11-47.3,3.2-70.43.09-22.06-2.1-43.47,1.25-65.26a80.82,80.82,0,0,1,1.75-10.21c1.37-4.86,2.51-6.3-1.34-11.11-2.35-2.94-16.64-12.35-15.85-14.75a42.28,42.28,0,0,0-15.62,1.39c-5.5,1.47-5.57,3-8.85,8-6.51,10-7.72,21.32,2.5,29.9,4.7,3.94,7.88,4.25,9.24,11.59,1.31,7,1,14.55,1.39,21.67q1.1,21.09.92,42.16c-.26,28.42-1.69,56.12-5.61,84.29-1.82,13.09-6.21,23.55-12.74,34.92-5.89,10.25-4.82,17.13,5.35,23.37,2.11-3.24,4.91-8.06,8.48-9.81,2.43-1.18,4.37-.11,6.79-.57,2.76-.52,5.17-2.4,7.81-3.27A285.11,285.11,0,0,1,338.16,502.8Z" transform="translate(-275.04 -267.12)" fill="#fff"/><path d="M338.16,502.8a282.77,282.77,0,0,0-30.34,8.66c-2.24.74-4.22,2.28-6.52,2.82s-4.82-.42-7,.33c-4.1,1.45-7.37,7.06-9.6,10.5-10.16-6.23-11.19-13.1-5.35-23.37,6.2-10.91,10.66-20.78,12.52-33.32,4.27-28.65,5.56-57,5.83-85.89q.19-21.11-.92-42.16c-.37-7,0-14.74-1.39-21.67-1.27-6.43-3.76-7.74-8.31-11.53-10.31-8.58-10.59-18.93-3.43-30,3.13-4.81,3.31-6.63,8.85-8a43.35,43.35,0,0,1,15.62-1.39c-.89,2.73,5.29,5.2,7.16,6.85,2.79,2.47,6.32,4.94,8.69,7.9,2.82,3.53,3.3,6.06,2,10.12a53.26,53.26,0,0,0-2.43,11.2c-3,22.41-1.08,44.34-1.25,67s-6.62,46.33-3.2,68.67c1.86,12.19,5.61,24.3,9.88,35.84C332.16,483.85,338.16,493.54,338.16,502.8Zm-18.08-14.46c-5.25-2.57-5.49-22.38-5.79-27.51a269,269,0,0,1,.82-36.13c1.62-20.79,4.34-41.25,3.65-62.12-.69-20.71-2.45-41.38.21-62,.47-3.7,2.41-8.57,2-12.18-.58-4.69-4.42-6.92-7.76-9.68-7-5.76-12.94-13.61-21.45-5.58-6,5.68-12.34,16-8.43,24.26,2.16,4.58,5.83,5.33,9.37,8.2,3.76,3,4.76,6.52,5.62,11.19,3.91,21.47,2.2,45,2.11,66.74-.1,22.09-.42,43.95-2.91,65.91-1.19,10.51-2.5,21.31-5.11,31.57-2.48,9.73-10.55,18.71-11.65,28.24C280.4,512,280,520.3,284.65,520c2.34-.14,5.8-4.79,8.2-6,10.58-5.16,24.08-8.29,35.58-10.59,3.87-.78,5.34.28,5.73-3.64.46-4.48-4.06-12-5.74-16.06-4.82-11.72-8.31-23.8-11.57-36-2.59,4.29.35,16,.94,20.47C318.64,474.62,320.73,481.88,320.08,488.34Z" transform="translate(-275.04 -267.12)"/><path d="M320.08,488.34c.66-6.51-1.43-13.69-2.29-20.13-.58-4.42-3.39-16.41-.94-20.47,2.64,9.9,5.33,19.78,8.93,29.38,1.54,4.1,11.53,21.87,8,25.6-1.6,1.69-9.36,1.84-12.09,2.6-5.78,1.62-11.63,3.05-17.4,4.7a68.79,68.79,0,0,0-11.41,4.05c-2.45,1.19-6.76,6.07-9.12,5.63-8.49-1.59-.12-17.91,1.55-20.93,5.33-9.63,7.81-19.9,9.57-30.67a448.43,448.43,0,0,0,5.4-67.77c.24-22,.3-43.95-.55-65.91-.32-8.38.69-20.72-5.27-27.39-2.72-3-7-3.8-9.58-7.16-3.5-4.55-3.4-9.58-1.34-14.7,2.7-6.73,10.34-18.79,19-15.18,4.94,2.06,17,11.83,18.27,17,1,3.82-1.36,9.72-1.84,13.54-.55,4.33-.87,8.68-1.09,13a323.2,323.2,0,0,0,.21,33.67c1.25,24-.45,46.93-2.44,70.81-1,11.87-1.77,23.71-1.57,35.63a127.76,127.76,0,0,0,1.31,17.8C315.9,474.75,316.66,486.66,320.08,488.34Zm-14.47-53.41c-3.86,2.19-2.74,13-3,16.94-.37,6.26-.21,12.51-.06,18.78.18,7.62-.53,30.37,7.29,34.33,1-4.33-1.84-10.11-2.68-14.39a136.09,136.09,0,0,1-2-19.11C304.53,459.46,307,446.79,305.61,434.93ZM285.56,294.6l-.22.22c3.89,5.07,4.72-2.89,6.81-5.94a15,15,0,0,1,7.31-5.81c1.3-.5,6.51-.52,7.05-1.9,1.65-4.24-10.21-.29-11.66.68A23.54,23.54,0,0,0,285.56,294.6Z" transform="translate(-275.04 -267.12)" fill="#fff"/><path d="M305.61,434.93c1.34,11.86-1.05,24.53-.44,36.55a141.1,141.1,0,0,0,1.7,17.54c.84,4.76,4.05,11.23,3,16-7.75-3.92-7.11-26.93-7.29-34.33-.15-6.27-.3-12.52.06-18.78C302.84,448.28,301.89,437,305.61,434.93Z" transform="translate(-275.04 -267.12)"/><path d="M285.56,294.6a23.9,23.9,0,0,1,8.29-12c1.48-1.17,14.44-6.05,12.66-1.47-.54,1.38-5.75,1.4-7.05,1.9a15,15,0,0,0-6.57,4.83c-2.39,2.94-3.5,12.2-7.55,6.92Z" transform="translate(-275.04 -267.12)"/></svg>