<?xml version="1.0" encoding="UTF-8" standalone="no"?>
<svg
   xmlns:dc="http://purl.org/dc/elements/1.1/"
   xmlns:cc="http://creativecommons.org/ns#"
   xmlns:rdf="http://www.w3.org/1999/02/22-rdf-syntax-ns#"
   xmlns:svg="http://www.w3.org/2000/svg"
   xmlns="http://www.w3.org/2000/svg"
   xmlns:sodipodi="http://sodipodi.sourceforge.net/DTD/sodipodi-0.dtd"
   xmlns:inkscape="http://www.inkscape.org/namespaces/inkscape"
   width="133"
   height="378"
   viewBox="0 0 133 378"
   version="1.2"
   id="svg18"
   sodipodi:docname="thigh-bone-left.svg"
   inkscape:version="0.92.3 (2405546, 2018-03-11)">
  <metadata
     id="metadata24">
    <rdf:RDF>
      <cc:Work
         rdf:about="">
        <dc:format>image/svg+xml</dc:format>
        <dc:type
           rdf:resource="http://purl.org/dc/dcmitype/StillImage" />
        <dc:title>thigh-bone-left.pdf copy</dc:title>
      </cc:Work>
    </rdf:RDF>
  </metadata>
  <defs
     id="defs22" />
  <sodipodi:namedview
     pagecolor="#ffffff"
     bordercolor="#666666"
     borderopacity="1"
     objecttolerance="10"
     gridtolerance="10"
     guidetolerance="10"
     inkscape:pageopacity="0"
     inkscape:pageshadow="2"
     inkscape:window-width="1853"
     inkscape:window-height="1025"
     id="namedview20"
     showgrid="false"
     inkscape:pagecheckerboard="true"
     inkscape:zoom="2"
     inkscape:cx="212.74561"
     inkscape:cy="207.30945"
     inkscape:window-x="67"
     inkscape:window-y="27"
     inkscape:window-maximized="1"
     inkscape:current-layer="svg18" />
  <title
     id="title2">thigh-bone-left.pdf copy</title>
  <g
     id="g32"
     transform="matrix(0.20517288,0,0,0.20517288,-1.6832494,305.90512)">
    <g
       transform="translate(0,-1494)"
       id="g8">
      <path
         style="fill:#ffffff"
         inkscape:connector-curvature="0"
         id="path6"
         d="m 278.748,1878.74 c 0,0 0,0 0,0 2.491,-0.83 5.057,-1.46 7.472,-2.49 1.092,-0.46 2.05,-1.22 2.97,-1.97 1.173,-0.95 1.979,-2.37 3.284,-3.13 0.6,-0.35 1.411,-0.18 2.086,-0.02 1.676,0.42 3.212,1.29 4.879,1.74 0.665,0.18 1.372,0.13 2.061,0.13 1.354,0 2.733,0.13 4.06,-0.13 1.688,-0.34 3.336,-0.92 4.888,-1.66 2.343,-1.13 4.652,-2.38 6.742,-3.93 1.552,-1.14 2.838,-2.63 4.095,-4.09 0.771,-0.9 1.496,-1.87 1.961,-2.96 2.019,-4.72 3.225,-9.79 5.461,-14.41 0.448,-0.92 1.749,-1.12 2.426,-1.89 1.866,-2.13 3.683,-4.33 5.153,-6.74 1.94,-3.19 3.497,-6.6 5.035,-10 1.198,-2.65 2.001,-5.46 3.164,-8.12 0.393,-0.9 0.889,-1.77 1.492,-2.54 0.673,-0.87 1.62,-1.49 2.308,-2.34 0.755,-0.94 1.412,-1.96 2.002,-3 1.092,-1.95 2.163,-3.91 3.037,-5.96 0.822,-1.93 1.486,-3.94 2.039,-5.96 2.964,-10.87 6.36,-21.65 8.506,-32.71 0.707,-3.64 0.381,-7.43 -0.002,-11.12 -0.177,-1.71 -0.979,-3.31 -1.66,-4.89 -0.849,-1.97 -1.673,-3.99 -2.919,-5.73 -1.122,-1.58 -2.576,-2.91 -4.098,-4.11 -1.542,-1.2 -3.19,-2.36 -5.025,-3.04 -4.133,-1.54 -8.521,-2.28 -12.739,-3.57 -0.568,-0.17 -1.122,-0.43 -1.591,-0.8 -0.755,-0.58 -1.754,-1.1 -2.039,-2.02 -0.982,-3.14 -1.331,-6.46 -1.635,-9.74 -0.033,-0.35 0.361,-0.64 0.656,-0.83 1.398,-0.9 3.029,-1.43 4.367,-2.42 1.178,-0.87 2.362,-1.85 3.109,-3.11 1.224,-2.07 2.178,-4.34 2.693,-6.69 0.36,-1.64 0.276,-3.41 -0.12,-5.05 -1.113,-4.6 -3.172,-8.93 -4.372,-13.51 -1.42,-5.42 -2.478,-10.93 -3.479,-16.44 -0.123,-0.67 -0.092,-1.4 0.119,-2.05 1.413,-4.35 3.699,-8.43 4.732,-12.88 0.606,-2.62 0.171,-5.37 0.12,-8.06 -0.009,-0.44 -0.105,-0.9 -0.3,-1.31 -1.092,-2.26 -2.57,-4.32 -3.542,-6.63 -0.178,-0.43 0.008,-0.94 0.175,-1.37 0.746,-1.92 2.196,-3.6 2.547,-5.63 0.517,-3 0.522,-6.13 0,-9.12 -0.355,-2.03 -1.545,-3.83 -2.574,-5.62 -0.887,-1.54 -2.214,-2.78 -3.144,-4.29 -0.181,-0.3 -0.132,-0.69 -0.132,-1.03 0,-0.68 -0.027,-1.37 0.132,-2.03 0.168,-0.69 0.806,-1.26 0.837,-1.97 0.256,-6 0.051,-12 0.015,-18 -0.008,-1.34 0.069,-2.7 -0.148,-4.03 -0.116,-0.7 -0.827,-1.26 -0.837,-1.97 -0.27,-19.33 -1.163,-38.7 -10e-4,-57.99 0.345,-5.74 3.367,-11.01 4.494,-16.64 1.313,-6.57 2.173,-13.22 2.813,-19.88 1.386,-14.43 2.01,-28.92 3.26,-43.36 0.707,-8.17 1.925,-16.29 2.61,-24.47 1.71,-20.39 2.605,-40.86 4.574,-61.23 1.63,-16.86 4.549,-33.58 6.221,-50.44 0.364,-3.66 0.442,-7.41 -0.12,-11.05 -0.364,-2.36 -1.499,-4.55 -2.615,-6.66 -0.48,-0.91 -1.701,-1.31 -2.103,-2.25 -0.393,-0.93 -0.296,-2.03 -0.134,-3.02 0.725,-4.45 1.759,-8.85 2.785,-13.24 0.517,-2.22 1.149,-4.41 1.844,-6.57 2.826,-8.83 5.932,-17.56 8.715,-26.4 1.458,-4.63 2.823,-9.29 4.005,-14 4.867,-19.4 9.277,-38.91 14.139,-58.3 2.519,-10.05 5.605,-19.96 8.003,-30.04 3.974,-16.7 7.216,-33.56 11.11,-50.28 3.069,-13.18 6.734,-26.21 9.775,-39.39 5.225,-22.65 10.651,-45.27 15.022,-68.096 2.363,-12.343 3.235,-24.928 5.166,-37.345 0.594,-3.823 1.844,-7.527 2.408,-11.355 0.242,-1.646 0.199,-3.339 -10e-4,-4.991 -0.127,-1.045 -0.859,-1.959 -0.97,-3.007 -0.178,-1.677 -0.183,-3.398 0.116,-5.059 5.171,-28.774 11.043,-57.419 16.284,-86.181 2.579,-14.152 4.588,-28.404 7.174,-42.555 1.724,-9.435 4.098,-18.744 5.754,-28.191 1.19,-6.791 1.988,-13.647 2.78,-20.496 0.751,-6.492 1.588,-12.988 1.847,-19.517 0.042,-1.049 -0.831,-1.959 -0.955,-3.001 -0.16,-1.343 -0.185,-2.738 0.116,-4.058 2.579,-11.296 5.499,-22.514 8.504,-33.705 2.743,-10.214 6.02,-20.28 8.737,-30.5 2.95,-11.095 5.238,-22.359 8.26,-33.434 0.985,-3.608 2.719,-6.98 3.749,-10.576 1.009,-3.52 1.401,-7.194 2.353,-10.729 1.377,-5.112 3.185,-10.1 4.629,-15.194 2.479,-8.75 4.868,-17.528 7.139,-26.335 1.821,-7.062 3.277,-14.215 5.136,-21.268 1.855,-7.039 3.81,-14.056 6.003,-20.997 3.487,-11.038 7.003,-22.075 11.033,-32.926 4.203,-11.318 9.252,-22.305 13.652,-33.548 1.602,-4.094 2.781,-8.345 4.348,-12.452 1.101,-2.887 2.597,-5.614 3.652,-8.518 3.327,-9.167 5.22,-18.907 9.488,-27.676 2.802,-5.757 8.266,-9.863 11.478,-15.402 2.787,-4.808 4.073,-10.349 6.382,-15.404 2.16,-4.731 4.293,-9.505 7.016,-13.936 0.513,-0.836 1.762,-0.907 2.5,-1.553 1.809,-1.584 3.71,-3.139 5.099,-5.101 2.674,-3.78 4.922,-7.86 6.997,-11.998 3.943,-7.86 7.497,-15.912 11.04,-23.96 0.922,-2.094 1.461,-4.341 2.347,-6.451 2.507,-5.97 5.104,-11.903 7.828,-17.777 1.291,-2.783 2.564,-5.594 4.21,-8.182 1.299,-2.041 3.141,-3.686 4.577,-5.632 0.501,-0.678 0.871,-1.448 1.216,-2.217 1.811,-4.037 3.018,-8.37 5.246,-12.192 1.083,-1.857 3.132,-2.956 4.535,-4.585 0.785,-0.912 1.411,-1.956 2.002,-3.005 1.053,-1.87 2.12,-3.746 2.92,-5.737 0.773,-1.922 1.608,-3.89 1.779,-5.954 0.387,-4.669 0.217,-9.381 -0.121,-14.053 -0.075,-1.046 -0.839,-1.931 -1.106,-2.945 -1.899,-7.217 -3.274,-14.572 -5.387,-21.729 -1.705,-5.776 -3.786,-11.443 -6.054,-17.021 -1.36,-3.347 -3.045,-6.56 -4.812,-9.711 -0.776,-1.383 -1.995,-2.481 -2.795,-3.851 -1.375,-2.356 -2.997,-4.662 -3.711,-7.295 -1.44,-5.321 -1.497,-10.934 -2.682,-16.317 -0.736,-3.341 -1.425,-6.793 -3.067,-9.794 -1.147,-2.095 -3.191,-3.588 -5.067,-5.067 -1.387,-1.092 -2.893,-2.254 -4.63,-2.573 -3.295,-0.605 -6.704,-0.284 -10.051,-0.123 -0.64,0.031 -1.282,1.081 -1.792,0.694 -1.218,-0.924 -1.456,-2.709 -2.423,-3.894 -1.223,-1.498 -2.575,-2.916 -4.103,-4.102 -1.034,-0.804 -2.251,-1.384 -3.494,-1.797 -2.25,-0.748 -5.044,-0.205 -6.915,-1.662 -1.926,-1.499 -2.074,-4.449 -3.488,-6.438 -1.045,-1.471 -2.306,-2.85 -3.816,-3.839 -2.453,-1.606 -5.072,-3.116 -7.914,-3.843 -2.299,-0.588 -4.785,-0.434 -7.119,-0.002 -2.64,0.49 -4.917,3.073 -7.58,2.728 -1.584,-0.206 -1.604,-2.773 -2.571,-4.044 -0.6,-0.79 -1.272,-1.564 -2.104,-2.104 -2.105,-1.369 -4.175,-3.0497 -6.63,-3.5743 -3.297,-0.7044 -6.767,-0.4174 -10.113,-0.0035 -1.558,0.1929 -3.661,3.2018 -4.356,1.7938 -2.73,-5.534 -2.006,-12.2063 -3.708,-18.138 -3.33,-11.605 -8.276,-22.7191 -11.364,-34.3909 -1.589,-6.0051 -1.343,-12.3707 -2.615,-18.4507 -0.316,-1.514 -1.178,-2.898 -2.11,-4.1327 -1.165,-1.5443 -2.565,-2.9314 -4.104,-4.1037 -1.18,-0.899 -2.593,-1.4523 -3.957,-2.0369 -2.111,-0.9048 -4.461,-1.2745 -6.448,-2.424 -2.079,-1.2021 -3.596,-3.2087 -5.595,-4.5394 -2.007,-1.3359 -4.322,-2.1522 -6.37,-3.42494 -2.366,-1.47118 -4.411,-3.4438 -6.849,-4.79271 -5.719,-3.16335 -11.502,-6.26831 -17.563,-8.71214 -3.479,-1.40288 -7.19,-2.2744 -10.909,-2.76799 -2.992,-0.39713 -6.06,-0.2679 -9.054,0.11842 -1.701,0.21951 -3.329,0.91145 -4.864,1.67778 -1.878,0.9382 -3.333,2.67149 -5.302,3.40002 -3.348,1.238514 -6.989,1.478153 -10.432,2.420796 -1.147,0.314178 -2.25,0.796534 -3.308,1.340954 -0.396,0.20392 -0.574,0.77091 -1.007,0.87954 -0.978,0.24586 -2.024,0.2738 -3.023,0.13334 -0.708,-0.09967 -1.277,-0.68948 -1.977,-0.83655 -0.681,-0.14294 -1.409,-0.16841 -2.088,-0.01681 -9.413,2.10161 -18.804,4.31901 -28.135,6.76384 -1.57,0.41141 -3.072,1.07336 -4.526,1.79425 -2.321,1.1503 -4.461,2.641 -6.773,3.8074 -2.361,1.1904 -4.912,1.9888 -7.231,3.2562 -2.085,1.139 -4.259,2.2594 -5.939,3.9391 -2.067,2.0678 -3.604,4.6224 -5.121,7.1222 -1.549,2.5519 -2.792,5.2801 -4.048,7.9878 -0.435,0.937 -0.751,1.9292 -1.017,2.9273 -1.372,5.1402 -2.807,10.2699 -3.894,15.4778 -1.079,5.1764 -1.538,10.4686 -2.598,15.6489 -0.46,2.2448 -1.147,4.4459 -1.953,6.5905 -0.692,1.8397 -1.795,3.5036 -2.529,5.3269 -1.453,3.6098 -2.938,7.2215 -4.027,10.9573 -1.68,5.7622 -2.679,11.7051 -4.268,17.4931 -0.583,2.126 -2.088,4.023 -2.241,6.222 -0.604,8.685 -0.579,17.43 -0.008,26.116 0.259,3.94 1.286,7.82 2.486,11.581 1.006,3.152 2.248,6.296 4.096,9.041 1.605,2.385 3.903,4.243 6.098,6.101 2.18,1.846 4.355,3.845 6.98,4.973 3.303,1.419 7.161,1.164 10.486,2.533 1.316,0.542 2.17,1.879 3.013,3.025 0.986,1.342 1.469,3.003 2.422,4.368 0.567,0.811 1.327,1.481 2.099,2.101 0.923,0.741 1.91,1.417 2.962,1.962 1.416,0.733 3.454,0.579 4.408,1.856 1.534,2.051 1.732,4.826 2.43,7.29 0.86,3.035 1.261,6.196 2.24,9.195 1.075,3.296 2.223,6.607 3.903,9.639 1.964,3.544 4.516,6.734 6.962,9.963 0.74,0.977 1.861,1.629 2.574,2.626 0.967,1.355 1.393,3.059 2.422,4.368 1.407,1.789 3.094,3.351 4.817,4.839 0.87,0.751 1.887,1.33 2.918,1.839 0.319,0.158 0.704,0.117 1.06,0.124 1.996,0.034 4.003,0.195 5.991,-10e-4 0.918,-0.091 1.816,-1.278 2.634,-0.851 1.638,0.857 2.276,2.946 3.679,4.151 0.919,0.79 2.745,0.62 3.188,1.749 2.904,7.396 3.976,15.4 6.502,22.935 1.105,3.297 3.189,6.203 4.362,9.477 0.343,0.957 0.404,2.07 0.124,3.048 -4.855,16.946 -10.619,33.623 -15.485,50.566 -2.199,7.657 -3.915,15.446 -5.702,23.21 -1.627,7.062 -2.77,14.234 -4.539,21.262 -1.964,7.807 -4.851,15.371 -6.656,23.216 -3.386,14.715 -6.088,29.58 -8.905,44.414 -0.713,3.756 -1.503,7.526 -1.685,11.345 -0.381,7.986 -0.607,16.014 0,23.986 0.276,3.636 1.279,7.232 2.633,10.617 0.949,2.372 4.561,3.897 4.182,6.423 -1.363,9.084 -6.333,17.253 -9.051,26.027 -2.108,6.805 -3.355,13.855 -5.418,20.675 -1.156,3.82 -2.92,7.432 -4.225,11.205 -0.189,0.546 0.222,1.378 -0.247,1.716 -2.139,1.541 -4.795,2.211 -7.065,3.551 -1.087,0.642 -2.064,1.474 -2.957,2.367 -1.153,1.153 -2.242,2.389 -3.154,3.742 -0.829,1.228 -1.525,2.561 -2.034,3.953 -1.17,3.195 -2.271,6.434 -2.986,9.761 -0.946,4.403 -1.499,8.887 -1.983,13.364 -1.386,12.837 -2.01,25.754 -3.626,38.563 -0.853,6.77 -2.4,13.436 -3.776,20.119 -1.82,8.845 -3.972,17.62 -5.81,26.462 -2.766,13.313 -5.414,26.651 -8.001,40 -5.744,29.626 -11.208,59.306 -16.992,88.924 -2.85,14.592 -6.122,29.1 -8.909,43.705 -3.913,20.509 -7.271,41.122 -11.19,61.63 -3.115,16.296 -6.726,32.494 -9.911,48.776 -1.701,8.691 -3.37,17.391 -4.747,26.139 -1.869,11.879 -3.484,23.798 -4.988,35.728 -1.484,11.78 -2.869,23.58 -3.976,35.41 -1.814,19.37 -2.933,38.8 -4.786,58.16 -0.24,2.51 -0.872,4.96 -1.49,7.4 -2.671,10.54 -5.721,20.99 -8.375,31.53 -0.214,0.85 0.509,2.13 -0.217,2.62 -2.707,1.82 -6.231,2.06 -9.085,3.64 -1.285,0.71 -2.249,1.93 -3.118,3.12 -0.829,1.12 -1.461,2.41 -1.915,3.74 -1.251,3.64 -2.272,7.37 -3.179,11.12 -1.564,6.46 -2.578,13.05 -4.23,19.49 -2.057,8.02 -4.829,15.85 -6.891,23.87 -3.606,14.02 -6.637,28.18 -10.109,42.24 -0.617,2.5 -0.868,5.19 -2.156,7.41 -0.311,0.54 -1.115,-0.64 -1.735,-0.68 -2.346,-0.14 -4.761,-0.4 -7.051,0.13 -1.721,0.39 -3.207,1.53 -4.63,2.57 -1.181,0.87 -2.383,1.84 -3.109,3.11 -1.315,2.31 -2.19,4.87 -2.892,7.43 -1.641,5.99 -3.02,12.06 -4.121,18.17 -3.313,18.39 -6.422,36.81 -9.118,55.3 -1.699,11.66 -2.582,23.41 -4.063,35.1 -1,7.89 -2.557,15.71 -3.379,23.62 -0.077,0.73 0.778,1.36 0.705,2.1 -0.656,6.57 -1.773,13.09 -2.873,19.6 -0.095,0.56 -0.232,1.23 -0.7,1.56 -0.253,0.18 -0.437,-0.51 -0.743,-0.55 -1.015,-0.15 -2.122,-0.39 -3.077,-0.01 -1.425,0.55 -2.714,1.53 -3.731,2.67 -1.587,1.78 -2.971,3.79 -3.962,5.96 -2.928,6.42 -4.89,13.25 -7.744,19.7 -0.133,0.3 -0.72,0.23 -0.984,0.03 -1.298,-0.96 -2.061,-2.62 -3.499,-3.35 -0.914,-0.47 -2.105,-0.33 -3.08,-0.01 -1.667,0.55 -3.252,1.43 -4.608,2.55 -0.791,0.65 -0.815,2 -1.648,2.59 -1.597,1.14 -3.811,1.23 -5.367,2.43 -1.346,1.03 -2.249,2.58 -3.07,4.06 -1.631,2.96 -2.702,6.19 -4.247,9.19 -1.269,2.47 -2.215,5.24 -4.185,7.19 -1.19,1.18 -3.235,0.93 -4.744,1.66 -1.053,0.51 -2.323,0.98 -2.87,2.01 -2.126,4.02 -3.503,8.4 -4.924,12.72 -1.697,5.16 -2.8395,10.49 -4.4212,15.69 -0.9462,3.11 -1.8633,6.25 -3.1594,9.23 -1.7856,4.1 -4.1897,7.92 -6.0642,11.98 -0.2394,0.52 0.1953,1.34 -0.2442,1.7 -1.8051,1.51 -4.2018,2.16 -6.0781,3.57 -1.5454,1.17 -2.9601,2.55 -4.1047,4.11 -1.6551,2.25 -2.9427,4.76 -4.2272,7.25 -1.1928,2.31 -2.0563,4.77 -3.1945,7.11 -0.1066,0.22 -0.3898,0.72 -0.52,0.51 -1.1559,-1.83 -1.616,-4.05 -2.8436,-5.82 -0.556,-0.81 -1.4269,-1.48 -2.3723,-1.73 -1.323,-0.36 -2.7787,-0.33 -4.1078,0 -1.0475,0.26 -2.0574,0.87 -2.7553,1.7 -0.9255,1.09 -1.4054,2.5 -1.9352,3.83 -0.4087,1.02 -0.6592,2.11 -0.866,3.2 -0.6694,3.5 -1.3534,7.02 -1.7601,10.57 -0.2509,2.19 0.8865,4.69 -0.2087,6.61 -0.9522,1.66 -3.4574,1.67 -5.0978,2.66 -0.432,0.26 -0.8489,0.61 -1.0724,1.07 -2.0566,4.16 -3.2688,8.75 -5.7284,12.69 -1.4539,2.33 -3.7166,4.07 -5.8317,5.81 -1.7365,1.44 -3.8505,2.36 -5.6626,3.7 -0.691,0.51 -1.2952,1.14 -1.8125,1.83 -1.0145,1.35 -1.494,3.12 -2.762,4.23 -1.4845,1.3 -3.7951,1.42 -5.2335,2.77 -0.9626,0.9 -1.4093,2.32 -1.5802,3.63 -0.1367,1.05 1.0135,2.08 0.7027,3.09 -0.6326,2.05 -2.4193,3.57 -3.3505,5.5 -2.7978,5.82 -5.3211,11.76 -7.81829,17.72 -1.07747,2.56 -2.1178,5.16 -2.90152,7.83 -1.32027,4.5 -2.07512,9.16 -3.40146,13.66 -0.92905,3.15 -2.632278,6.06 -3.355971,9.27 -0.370739,1.64 -0.240459,3.4 0.123321,5.04 0.221268,1 0.9502106,1.83 1.577469,2.64 0.595521,0.77 1.218761,1.58 2.063061,2.06 1.86032,1.06 4.48906,0.9 5.9215,2.5 0.61093,0.67 -1.62865,1.1 -1.90415,1.97 -0.91566,2.89 -0.87802,6.01 -1.55797,8.97 -0.06573,0.29 -0.10519,-0.62 -0.31526,-0.82 -0.62642,-0.61 -1.34666,-1.14 -2.11789,-1.55 -0.3928,-0.21 -0.87002,-0.38 -1.30658,-0.29 -0.725094,0.15 -1.3998986,0.53 -1.99815,0.97 -0.53815,0.39 -1.01131,0.9 -1.35118,1.47 -0.17665,0.3 -0.13098,0.69 -0.13341,1.03 -0.04207,6 -0.27669,12.01 -3e-5,18 0.04858,1.05 0.85523,1.96 0.96974,3 0.217364,1.99 0.164142,4.01 0.01512,6 -0.1755,2.35 -1.03521,4.64 -0.98623,6.99 0.28477,13.68 1.520505,27.33 1.985288179,41.01 0.192413821,5.66 0.239654821,11.34 -0.014221179,17 -0.032074,0.71 -0.737762,1.26 -0.836899,1.97 -0.188358,1.35 -0.319258,2.76 -0.010177,4.08 0.232711,1 0.9495235,1.83 1.577484,2.64 0.494465,0.64 0.996415,1.4 1.758545,1.66 0.96164,0.33 2.05492,0.2 3.05225,0 0.6217,-0.12 1.33468,-0.4 1.64898,-0.95 0.91028,-1.59 1.49002,-3.39 1.85344,-5.19 0.88942,-4.4 -1.51784,-16.28 1.88919,-13.35 4.7385,4.08 2.3257,12.3 3.9092,18.34 0.6789,2.6 1.6443,5.13 2.8611,7.52 1.4256,2.8 3.156,5.45 5.0272,7.97 1.0108,1.36 2.5998,2.24 3.5732,3.63 1.3825,1.97 2.1924,4.29 3.4252,6.36 0.1728,0.29 0.427,0.63 0.7625,0.67 1.6714,0.19 3.3746,0.18 5.0472,0 0.3171,-0.03 0.5713,-0.35 0.7239,-0.63 0.6383,-1.17 1.7022,-2.33 1.6131,-3.66 -0.2958,-4.42 -1.9567,-8.64 -2.7289,-13 -0.1779,-1 -0.1995,-2.04 -0.1152,-3.06 0.0382,-0.46 0.0699,-1.08 0.4768,-1.3 0.2947,-0.16 0.6161,0.33 0.7932,0.62 1.9075,3.06 3.4737,6.33 5.4251,9.36 1.0548,1.64 2.5532,2.97 3.5755,4.63 1.6544,2.69 2.8552,5.64 4.4268,8.37 0.1682,0.3 0.4279,0.62 0.7625,0.67 1.3373,0.19 2.7819,0.46 4.0503,0 1.0298,-0.37 1.6772,-1.44 2.3251,-2.32 0.2046,-0.28 0.1333,-0.69 0.1334,-1.03 1e-4,-1.68 0.097,-3.37 -0.1327,-5.03 -0.0983,-0.71 -0.8044,-1.26 -0.837,-1.97 -0.17,-3.73 -3.4955,-11.15 0.2365,-11.2 3.8099,-0.05 1.4598,7.49 2.49,11.16 0.4608,1.64 1.1973,3.2 1.9681,4.72 0.1538,0.3 0.4284,0.63 0.7663,0.67 1.6722,0.19 3.505,0.67 5.0503,0 1.4622,-0.63 1.7105,-2.96 3.1873,-3.56 0.7269,-0.29 0.9959,1.39 1.7601,1.56 1.6416,0.38 3.3842,0.23 5.0523,0 0.6125,-0.08 1.1595,-0.5 1.6075,-0.92 0.814,-0.78 1.3129,-3.41 2.1199,-2.63 1.8143,1.76 1.5581,4.82 2.5424,7.14 0.5949,1.41 1.2521,2.82 2.1817,4.03 1.0986,1.43 2.402,2.73 3.8388,3.82 1.3178,1 3.0891,1.32 4.3454,2.4 1.13,0.97 1.5847,2.55 2.6483,3.59 0.7317,0.72 1.6388,1.35 2.6358,1.58 1.3334,0.31 2.7752,0.31 4.1082,0 0.997,-0.23 1.824,-0.95 2.636,-1.58 0.746,-0.57 1.816,-1.06 2.004,-1.98 1.131,-5.56 -0.325,-11.67 1.844,-16.91 0.891,-2.15 1.436,4.45 2.448,6.54 0.59,1.23 1.36,2.4 2.324,3.35 0.726,0.73 1.648,1.31 2.636,1.58 0.999,0.28 2.143,0.38 3.108,0 1.425,-0.55 2.65,-1.59 3.731,-2.67 0.723,-0.72 1.441,-1.62 1.571,-2.64 0.135,-1.04 -0.761,-2 -0.841,-3.05 -0.202,-2.66 -0.35,-5.35 -0.001,-7.99 0.336,-2.55 0.66,-5.26 2.039,-7.43 0.409,-0.64 1.755,0.69 1.77,1.45 0.022,1.12 -1.499,1.81 -1.685,2.92 -0.393,2.33 -0.379,4.76 0,7.1 0.163,1.01 0.949,1.83 1.577,2.64 0.606,0.78 1.315,1.49 2.095,2.09 0.809,0.63 1.706,1.15 2.636,1.58 0.323,0.15 0.704,0.13 1.059,0.13 2.017,0 4.07,0.26 6.049,-0.13 1.005,-0.2 1.827,-0.95 2.636,-1.58 0.782,-0.6 1.558,-1.27 2.098,-2.1 1.317,-2.02 2.108,-4.35 3.425,-6.37 1.32,-2.02 2.107,-5.16 4.458,-5.7 1.56,-0.37 1.606,2.77 2.54,4.07 0.42,0.59 1.259,0.87 1.503,1.55 1.094,3.04 1.49,6.29 2.433,9.38 0.226,0.74 0.512,1.52 1.061,2.07 0.975,0.97 2.148,1.75 3.386,2.35 1.967,0.94 4.212,1.24 6.152,2.24 1.546,0.8 2.514,2.67 4.2,3.09 2.621,0.66 5.434,0.39 8.108,0 1.013,-0.15 1.861,-0.91 2.636,-1.58 1.819,-1.57 3.661,-3.17 5.098,-5.1 1.69,-2.26 1.558,-6.36 4.2,-7.37 1.745,-0.66 2.041,3.16 3.346,4.5 0.82,0.84 1.905,1.38 2.938,1.94 1.177,0.63 2.365,1.32 3.669,1.62 1.32,0.29 2.713,0.27 4.055,0.11 0.711,-0.08 1.276,-0.69 1.978,-0.83 0.842,-0.17 1.999,-0.71 2.573,-0.07 2.08,2.31 2.601,5.74 4.645,8.09 1.455,1.66 4.377,1.75 5.568,3.61 1.912,3 1.99,6.83 3.227,10.16 0.342,0.91 0.86,1.78 1.49,2.53 1.16,1.38 2.406,2.72 3.838,3.82 1.039,0.79 2.24,1.41 3.493,1.79 2.693,0.82 5.44,1.77 8.255,1.78 2.09,0.01 4.066,-1 6.025,-1.73 1.263,-0.47 2.48,-1.09 3.597,-1.84 0.863,-0.59 1.409,-1.57 2.288,-2.13 0.295,-0.19 0.722,-0.12 1.052,0 0.315,0.11 0.59,0.37 0.761,0.66 1.234,2.07 2.019,4.41 3.426,6.36 1.127,1.57 2.631,2.85 4.098,4.1 0.901,0.78 1.879,1.5 2.97,1.97 2.477,1.07 5.018,2.07 7.659,2.62 M 6.18274,1709.54 c 0,0 0,0 0,0 0.10471,-0.45 -0.14627,-1.33 0.31413,-1.35 0.45654,-0.01 0.43637,0.89 0.33254,1.33 M 472.977,76.4675 c 0,0 0,0 0,0 -0.148,0.4564 -0.03,1.1265 -0.444,1.3692 -0.403,0.2363 -1.09,0.0695 -1.367,-0.3068 -0.267,-0.3621 -0.036,-0.9327 0.155,-1.3397 0.333,-0.7075 0.597,-2.034 1.368,-1.9049" />
    </g>
    <g
       transform="translate(0,-1494)"
       id="g12">
      <path
         style="fill:#000000"
         inkscape:connector-curvature="0"
         id="path10"
         d="m 290.489,1850.88 c 0,0 0,0 0,0 4.807,-1.12 9.654,-2.08 14.421,-3.36 2.153,-0.58 4.267,-1.32 6.317,-2.2 2.051,-0.87 4.189,-1.67 5.957,-3.03 1.137,-0.88 1.558,-2.43 2.531,-3.48 0.693,-0.75 1.698,-1.16 2.419,-1.88 2.476,-2.49 4.888,-5.05 7.151,-7.74 0.624,-0.74 1.508,-1.54 1.476,-2.5 -0.031,-0.92 -1.705,-1.3 -1.632,-2.22 0.15,-1.88 1.63,-3.41 2.222,-5.2 1.254,-3.8 1.996,-7.75 3.305,-11.53 0.641,-1.85 1.794,-3.49 2.527,-5.3 0.757,-1.88 1.429,-3.8 1.937,-5.76 1.171,-4.51 2.208,-9.07 3.092,-13.65 0.738,-3.82 1.306,-7.67 1.773,-11.54 0.081,-0.67 0.024,-1.36 -0.133,-2.02 -0.166,-0.69 -0.821,-1.26 -0.821,-1.97 0,-0.71 0.653,-1.28 0.821,-1.97 0.159,-0.66 0.138,-1.35 0.147,-2.03 0.035,-2.67 0.208,-5.34 -0.014,-8 -0.061,-0.73 -0.88,-1.31 -0.826,-2.04 0.571,-7.67 2.045,-15.25 2.681,-22.92 0.034,-0.41 -0.585,-0.62 -0.693,-1.01 -0.177,-0.65 -0.188,-1.35 -0.132,-2.02 0.557,-6.68 1.445,-13.33 1.971,-20.02 0.131,-1.66 0.184,-3.33 -10e-4,-4.99 -0.08,-0.71 -0.75,-1.28 -0.784,-2 -0.019,-0.39 0.525,-0.6 0.642,-0.97 0.106,-0.34 0.114,-0.73 0,-1.06 -0.127,-0.37 -0.56,-0.57 -0.686,-0.94 -0.114,-0.34 -0.106,-0.72 0,-1.06 0.117,-0.37 0.644,-0.58 0.642,-0.97 -0.002,-0.39 -0.551,-0.6 -0.652,-0.97 -0.174,-0.66 -0.146,-1.35 -0.146,-2.03 0,-1.01 -0.045,-2.03 0.147,-3.03 0.135,-0.7 0.849,-1.26 0.822,-1.97 -0.306,-8 -1.45,-15.96 -1.813,-23.96 -0.019,-0.42 0.731,-0.66 0.678,-1.08 -0.969,-7.67 -2.618,-15.24 -3.704,-22.9 -0.145,-1.02 -0.151,-2.07 0.016,-3.09 0.064,-0.38 0.771,-0.6 0.652,-0.97 -0.259,-0.81 -1.339,-1.19 -1.598,-2 -0.119,-0.37 0.576,-0.59 0.651,-0.97 0.195,-0.99 0.27,-2.03 0.134,-3.02 -0.856,-6.29 -2.298,-12.5 -3.101,-18.79 -0.616,-4.83 -0.812,-9.71 -1.15,-14.56 -0.619,-8.89 -1.335,-17.77 -1.721,-26.67 -0.188,-4.32 -0.241,-8.66 10e-4,-12.99 0.04,-0.71 0.701,-1.27 0.837,-1.97 0.192,-0.99 0.269,-2.03 0.133,-3.03 -0.142,-1.04 -0.987,-1.95 -0.955,-3 0.303,-10.02 1.673,-19.99 1.955,-30.01 0.048,-1.69 -1.027,-3.29 -0.97,-4.98 0.524,-15.77 1.473,-31.53 2.709,-47.26 0.835,-10.65 2.514,-21.21 3.502,-31.83 1.283,-13.8 1.769,-27.68 3.31,-41.45 1.684,-15.07 3.729,-30.11 6.361,-45.04 2.728,-15.48 6.172,-30.83 9.708,-46.15 1.264,-5.47 3.367,-10.74 4.686,-16.2 1.76,-7.29 3.308,-14.64 4.546,-22.04 0.067,-0.4 -0.599,-0.62 -0.689,-1.01 -0.154,-0.68 -0.161,-1.41 -0.013,-2.09 0.224,-1.03 0.867,-1.94 1.11,-2.97 1.219,-5.16 2.346,-10.35 3.267,-15.57 1.974,-11.2 3.413,-22.48 5.416,-33.67 0.22,-1.23 0.993,-2.3 1.245,-3.53 1.668,-8.06 2.845,-16.21 4.509,-24.28 1.344,-6.51 3.261,-12.9 4.512,-19.43 1.755,-9.16 2.839,-18.44 4.502,-27.62 1.381,-7.62 3.195,-15.16 4.629,-22.77 1.593,-8.45 2.813,-16.96 4.451,-25.4 0.694,-3.57 1.94,-7.03 2.54,-10.62 1.761,-10.53 2.77,-21.18 4.538,-31.71 0.419,-2.49 1.488,-4.84 2.013,-7.31 0.145,-0.68 0.143,-1.41 -0.015,-2.09 -0.089,-0.38 -0.565,-0.57 -0.694,-0.94 -0.12,-0.34 -0.136,-0.75 -0.019,-1.09 0.459,-1.34 1.483,-2.49 1.721,-3.88 0.121,-0.71 -0.611,-1.32 -0.712,-2.03 -0.146,-1.02 -0.179,-2.08 -0.019,-3.09 1.124,-7.11 2.41,-14.19 3.866,-21.23 0.126,-0.61 0.756,-1.04 0.867,-1.657 0.182,-1.01 0.163,-2.068 -0.01,-3.079 -0.068,-0.403 -0.762,-0.612 -0.689,-1.014 1.953,-10.688 4.812,-21.199 6.703,-31.898 0.128,-0.725 -0.811,-1.369 -0.695,-2.096 0.224,-1.405 1.377,-2.538 1.658,-3.932 0.082,-0.407 -0.69,-0.648 -0.651,-1.062 0.066,-0.699 0.734,-1.217 0.929,-1.893 0.829,-2.882 1.525,-5.805 2.131,-8.743 2.657,-12.877 4.98,-25.823 7.658,-38.696 0.187,-0.904 0.868,-1.686 0.932,-2.607 0.028,-0.404 -0.591,-0.612 -0.68,-1.007 -0.153,-0.679 -0.158,-1.406 -0.017,-2.088 2.712,-13.036 5.59,-26.037 8.567,-39.015 1.602,-6.983 3.601,-13.872 5.17,-20.862 0.153,-0.679 0.136,-1.408 -0.016,-2.087 -0.088,-0.393 -0.702,-0.6 -0.673,-1.001 0.046,-0.655 0.72,-1.129 0.868,-1.768 4.731,-20.455 8.861,-41.047 13.756,-61.463 1.036,-4.321 2.973,-8.391 4.026,-12.708 0.096,-0.394 -0.592,-0.613 -0.681,-1.008 -0.153,-0.679 -0.143,-1.403 -0.017,-2.088 0.628,-3.394 1.619,-6.713 2.271,-10.103 1.603,-8.332 2.574,-16.79 4.491,-25.056 1.242,-5.353 3.686,-10.376 4.967,-15.72 0.168,-0.698 -0.588,-1.326 -0.712,-2.033 -0.12,-0.683 -0.191,-1.411 -0.01,-2.08 0.224,-0.825 0.897,-1.469 1.189,-2.273 0.695,-1.913 1.366,-3.851 1.76,-5.848 0.988,-5 1.413,-10.1 2.38,-15.103 0.353,-1.826 1.241,-3.522 1.575,-5.35 3.443,-18.836 5.921,-37.85 9.751,-56.611 2.042,-9.999 5.077,-19.771 7.85,-29.593 3.222,-11.414 6.662,-22.766 10.134,-34.106 2.539,-8.293 5.038,-16.603 7.898,-24.79 1.776,-5.084 3.901,-10.041 6,-15 0.619,-1.46 1.715,-2.718 2.147,-4.244 0.113,-0.397 -0.786,-0.669 -0.645,-1.057 1.227,-3.357 2.924,-6.528 4.576,-9.698 2.73,-5.24 5.99,-10.2 8.564,-15.518 2.434,-5.031 4.171,-10.373 6.436,-15.482 0.404,-0.912 1.179,-1.631 1.559,-2.552 1.959,-4.758 3.292,-9.77 5.439,-14.445 1.843,-4.014 4.529,-7.594 6.496,-11.549 1.684,-3.388 2.748,-7.062 4.44,-10.447 1.98,-3.96 4.536,-7.613 6.56,-11.552 4.652,-9.053 8.855,-18.33 13.461,-27.406 1.218,-2.399 2.563,-4.736 4.005,-7.008 1.494,-2.352 3.351,-4.465 4.793,-6.849 1.103,-1.824 2,-3.772 2.82,-5.739 1.574,-3.778 2.75,-7.715 4.356,-11.48 1.872,-4.392 3.876,-8.733 6.071,-12.973 1.014,-1.96 2.5,-3.648 3.539,-5.595 1.633,-3.062 2.779,-6.371 4.461,-9.406 1.637,-2.953 3.858,-5.559 5.475,-8.523 0.808,-1.479 1.03,-3.221 1.762,-4.738 1.433,-2.97 3.007,-5.878 4.721,-8.695 0.384,-0.63 1.192,-0.94 1.538,-1.592 1.54,-2.9 2.727,-5.974 4.07,-8.971 2.194,-4.894 4.781,-9.634 6.543,-14.699 0.447,-1.285 0.167,-2.732 -0.01,-4.08 -0.05,-0.388 -0.72,-0.59 -0.651,-0.975 0.096,-0.544 0.843,-0.77 1.052,-1.281 1.024,-2.496 1.919,-5.052 2.614,-7.658 0.179,-0.672 0.138,-1.408 -0.015,-2.086 -0.089,-0.396 -0.754,-0.609 -0.681,-1.008 0.433,-2.383 1.577,-4.589 2.128,-6.947 1.018,-4.36 1.521,-8.832 2.576,-13.183 0.802,-3.311 2.331,-6.432 2.988,-9.775 0.139,-0.708 -0.684,-1.34 -0.662,-2.061 0.021,-0.717 0.74,-1.288 0.784,-2.004 0.182,-3.014 0.231,-6.058 -0.115,-9.059 -0.627,-5.439 -1.713,-10.82 -2.795,-16.188 -0.206,-1.027 -0.881,-1.925 -1.062,-2.957 -1.469,-8.365 -1.941,-16.913 -3.879,-25.182 -1.315,-5.614 -3.454,-11.032 -5.837,-16.281 -1.917,-4.221 -4.411,-8.173 -7.009,-12.013 -0.951,-1.405 -2.487,-2.322 -3.573,-3.626 -0.593,-0.711 -0.822,-1.683 -1.43,-2.38 -1.58,-1.81 -3.263,-3.542 -5.095,-5.095 -2.543,-2.155 -5.268,-4.09 -8,-6 -3.926,-2.746 -7.742,-5.702 -11.966,-7.963 -3.033,-1.624 -6.261,-3.123 -9.666,-3.618 -5.295,-0.769 -10.716,-0.521 -16.052,-0.12 -2.388,0.18 -4.567,1.549 -6.944,1.85 -0.733,0.093 -1.367,-0.771 -2.103,-0.703 -3.193,0.296 -6.326,1.076 -9.455,1.776 -0.855,0.191 -1.597,0.836 -2.471,0.891 -0.402,0.025 -0.622,-0.546 -1.006,-0.671 -0.334,-0.109 -0.721,-0.11 -1.055,0 -0.386,0.127 -0.609,0.733 -1.012,0.68 -2.435,-0.32 -4.823,-0.985 -7.155,-1.753 -2.254,-0.743 -4.459,-1.663 -6.559,-2.766 -3.728,-1.958 -7.623,-3.744 -10.891,-6.399 -1.691,-1.374 -2.727,-3.447 -3.655,-5.418 -0.17,-0.363 0.728,-0.643 0.623,-1.03 -0.379,-1.394 -1.433,-2.521 -1.952,-3.869 -1.136,-2.957 -2.102,-5.979 -3.003,-9.0159 -0.98,-3.3064 -1.594,-6.7173 -2.639,-10.0043 -1.188,-3.7401 -2.979,-7.2789 -4.051,-11.054 -0.109,-0.3851 0.617,-0.6274 0.621,-1.0277 0.005,-0.3886 -0.603,-0.6117 -0.599,-1.0002 0.005,-0.4003 0.707,-0.6365 0.622,-1.0277 -0.476,-2.1908 -1.706,-4.166 -2.222,-6.3476 -1.09,-4.6075 -1.226,-9.4306 -2.582,-13.967 -0.907,-3.0365 -2.973,-5.6116 -4.147,-8.555 -0.796,-1.9954 -0.913,-4.2233 -1.742,-6.2052 -1.77,-4.2305 -3.725,-8.4013 -6.028,-12.3667 -0.857,-1.4759 -2.338,-2.4942 -3.386,-3.8408 -0.602,-0.773 -0.821,-1.8432 -1.55,-2.4977 -1.271,-1.1411 -2.955,-1.7303 -4.313,-2.7661 -0.662,-0.5048 -0.909,-1.5832 -1.706,-1.8245 -1.374,-0.4159 -2.922,-0.3763 -4.305,0.0042 -0.717,0.1971 -0.808,1.6686 -1.549,1.6053 -0.766,-0.0656 -0.818,-1.3226 -1.373,-1.8552 -0.566,-0.5425 -1.258,-0.9423 -1.942,-1.3252 -1.141,-0.6389 -2.305,-1.2503 -3.52,-1.733 -2.041,-0.8102 -4.124,-1.5167 -6.23,-2.13826 -2.762,-0.81523 -5.547,-1.56683 -8.363,-2.16881 -4.433,-0.94747 -8.879,-1.8715 -13.371,-2.47678 -1.328,-0.179 -2.695,-0.07464 -4.019,0.13363 -0.386,0.06068 -0.583,0.64963 -0.974,0.65165 -0.388,0.00201 -0.601,-0.52298 -0.971,-0.64158 -0.346,-0.11119 -0.74,-0.11908 -1.09,-0.02045 -3.012,0.84882 -5.894,2.15627 -8.945,2.84872 -0.983,0.22299 -2.034,0.07229 -3.02,-0.13372 -0.383,-0.08002 -0.577,-0.56646 -0.947,-0.69473 -0.332,-0.11522 -0.74,-0.15689 -1.055,4.9e-4 -1.163,0.58252 -2.1,1.55482 -3.254,2.15655 -1.838,0.95839 -3.691,1.95839 -5.69,2.50789 -0.401,0.1101 -0.662,-0.7639 -1.062,-0.6515 -1.986,0.558 -3.846,1.5251 -5.643,2.536 -0.637,0.3585 -0.924,1.1953 -1.577,1.5248 -1.414,0.7137 -3.164,0.6824 -4.496,1.54 -5.227,3.3665 -10.26,7.0561 -15.035,11.0383 -1.282,1.0691 -2.122,2.589 -3.004,4.0064 -2.932,4.7142 -5.288,9.7858 -8.422,14.3674 -1.225,1.7895 -3.22,2.9327 -4.574,4.6261 -1.328,1.661 -2.194,3.6495 -3.43,5.3804 -0.438,0.6137 -1.178,0.9839 -1.573,1.6257 -1.319,2.1375 -2.597,4.3239 -3.534,6.6539 -0.121,0.3004 0.722,0.5535 0.53,0.8141 -0.775,1.0507 -2.213,1.479 -2.993,2.526 -1.773,2.3798 -3.322,4.9468 -4.577,7.636 -0.381,0.8151 0.197,1.9019 -0.24,2.6875 -0.452,0.8108 -1.587,1.0079 -2.206,1.7002 -0.693,0.7763 -1.019,1.8256 -1.669,2.6386 -0.684,0.8554 -1.64,1.4699 -2.308,2.3378 -0.625,0.8121 -1.301,1.6646 -1.538,2.6613 -0.093,0.3899 0.544,0.6195 0.666,1.0013 0.107,0.3347 0.176,0.7556 -0.009,1.0543 -0.2,0.3228 -0.732,0.2831 -0.992,0.5601 -0.461,0.492 -0.832,1.0761 -1.115,1.6879 -1.922,4.1419 -4.096,8.2019 -5.491,12.5501 -1.473,4.591 -2.318,9.373 -3.071,14.136 -0.063,0.401 0.55,0.625 0.677,1.01 0.115,0.344 0.122,0.74 0.018,1.088 -0.793,2.668 -2.078,5.189 -2.693,7.904 -0.089,0.394 0.548,0.624 0.675,1.007 0.115,0.346 0.084,0.734 0.024,1.093 -0.551,3.326 -1.534,6.587 -1.852,9.944 -0.272,2.871 -0.319,5.797 0.092,8.652 0.109,0.759 1.191,1.081 1.414,1.815 0.158,0.52 -0.502,1.055 -0.381,1.585 0.981,4.295 2.255,8.524 3.645,12.705 0.546,1.64 1.296,3.216 2.15,4.719 0.514,0.907 1.58,1.48 1.928,2.463 0.395,1.119 -0.556,2.639 0.2,3.554 0.984,1.192 3.017,0.92 4.257,1.843 0.764,0.57 0.747,1.843 1.49,2.439 1.048,0.84 2.506,0.999 3.658,1.69 0.538,0.324 0.814,0.987 1.349,1.316 2.054,1.262 4.302,2.185 6.37,3.425 1.276,0.766 2.311,1.918 3.643,2.584 2.687,1.343 5.708,1.963 8.342,3.406 2.521,1.382 4.882,3.089 7.019,5.012 1.259,1.133 2.178,2.61 3.057,4.057 0.652,1.073 0.751,2.449 1.505,3.453 0.774,1.029 1.849,1.831 2.96,2.481 0.203,0.119 0.441,-0.605 0.574,-0.411 1.425,2.085 2.207,4.569 3.671,6.626 0.23,0.323 0.874,-0.077 1.173,0.182 0.871,0.755 1.508,1.75 2.153,2.705 1.157,1.712 2.311,3.44 3.243,5.284 0.958,1.893 1.392,4.029 2.409,5.891 0.587,1.077 1.707,1.788 2.352,2.832 2.289,3.703 4.146,7.66 6.425,11.369 0.386,0.628 1.157,0.959 1.537,1.591 0.648,1.074 0.858,2.374 1.501,3.45 0.36,0.601 1.264,0.835 1.464,1.506 1.608,5.389 2.203,11.051 3.886,16.416 0.247,0.789 1.542,0.92 1.798,1.706 0.379,1.164 0.14,2.463 -0.046,3.673 -0.108,0.704 -0.925,1.267 -0.822,1.971 0.255,1.74 1.488,3.221 1.836,4.944 0.269,1.335 0.169,2.736 -0.014,4.085 -0.054,0.4 -0.822,0.628 -0.675,1.003 0.578,1.477 2.032,2.498 2.622,3.97 0.145,0.361 -0.525,0.603 -0.642,0.974 -0.106,0.335 -0.11,0.72 0,1.054 0.126,0.386 0.741,0.611 0.678,1.012 -0.63,4.018 -2.114,7.874 -2.7,11.898 -0.105,0.715 0.685,1.341 0.664,2.063 -0.021,0.717 -0.722,1.289 -0.784,2.003 -0.202,2.323 -0.212,4.672 0,6.993 0.067,0.732 0.881,1.313 0.824,2.045 -0.284,3.695 -1.346,7.291 -1.824,10.966 -0.087,0.669 -0.044,1.368 0.132,2.019 0.108,0.395 0.737,0.608 0.692,1.015 -1.315,11.897 -3.011,23.749 -4.736,35.593 -0.166,1.141 -0.865,2.179 -0.935,3.329 -0.026,0.421 0.741,0.66 0.667,1.076 -1.613,9.028 -4.044,17.896 -5.67,26.922 -0.072,0.4 0.666,0.636 0.632,1.04 -0.025,0.305 -0.64,0.229 -0.76,0.509 -0.878,2.047 -1.613,4.162 -2.166,6.319 -1.866,7.276 -3.484,14.613 -5.083,21.952 -1.313,6.032 -2.761,12.048 -3.652,18.157 -0.104,0.71 0.695,1.317 0.707,2.035 0.011,0.708 -0.639,1.318 -0.642,2.027 -0.002,0.403 0.722,0.642 0.628,1.034 -1.742,7.286 -4.245,14.374 -6.05,21.645 -1.419,5.712 -2.67,11.473 -3.614,17.282 -0.065,0.401 0.784,0.662 0.634,1.039 -0.585,1.475 -2.045,2.494 -2.622,3.971 -0.152,0.389 0.725,0.655 0.656,1.066 -0.288,1.709 -1.381,3.216 -1.666,4.926 -0.069,0.415 0.762,0.664 0.666,1.074 -2.454,10.475 -5.792,20.731 -8.229,31.211 -3.047,13.101 -5.021,26.441 -8.216,39.506 -3.847,15.735 -8.963,31.139 -12.901,46.852 -1.793,7.151 -2.536,14.536 -4.283,21.698 -1.373,5.632 -3.818,10.976 -5.065,16.637 -0.229,1.04 0.769,2.05 0.717,3.113 -0.035,0.7 -0.764,1.197 -0.962,1.869 -1.369,4.645 -2.764,9.294 -3.727,14.04 -0.083,0.411 0.765,0.664 0.662,1.071 -0.609,2.394 -2.214,4.482 -2.69,6.907 -0.205,1.047 0.878,2.063 0.721,3.118 -0.371,2.506 -1.71,4.783 -2.259,7.256 -1.277,5.743 -2.023,11.593 -3.212,17.354 -0.3,1.453 -1.146,2.79 -1.252,4.27 -0.076,1.065 0.789,2.055 0.726,3.122 -0.08,1.353 -0.861,2.577 -1.141,3.903 -1.965,9.304 -3.911,18.615 -5.591,27.974 -0.182,1.013 -0.155,2.073 0.016,3.088 0.067,0.397 0.765,0.609 0.675,1.002 -0.383,1.678 -1.636,3.081 -1.992,4.765 -3.337,15.786 -6.562,31.608 -9.066,47.547 -2.344,14.926 -3.416,30.027 -5.471,44.995 -0.491,3.574 -1.56,7.047 -2.162,10.603 -0.116,0.686 -0.136,1.409 0.017,2.088 0.089,0.395 0.762,0.61 0.681,1.008 -0.42,2.072 -1.567,3.939 -2.1,5.985 -1.025,3.94 -1.98,7.912 -2.566,11.941 -0.061,0.419 0.721,0.658 0.672,1.078 -0.454,3.909 -1.604,7.711 -2.145,11.608 -1.351,9.748 -2.683,19.508 -3.53,29.312 -0.063,0.733 0.701,1.321 0.824,2.045 0.113,0.666 0.049,1.372 -0.132,2.023 -0.105,0.377 -0.693,0.555 -0.695,0.947 -0.004,0.725 0.78,1.348 0.68,2.066 -0.557,3.963 -1.272,7.947 -2.615,11.717 -0.389,1.095 -1.948,1.435 -2.444,2.486 -0.791,1.681 -0.967,3.593 -1.281,5.424 -0.7,4.09 -1.282,8.202 -1.756,12.325 -0.662,5.755 -0.866,11.561 -1.651,17.301 -0.665,4.858 -1.506,9.704 -2.695,14.461 -5.651,22.617 -12.903,44.837 -17.816,67.627 -2.248,10.43 -2.227,21.22 -3.618,31.8 -0.128,0.97 -0.509,1.9 -0.931,2.78 -0.192,0.41 -0.75,0.59 -0.882,1.01 -0.263,0.86 0.129,1.87 -0.25,2.68 -0.349,0.74 -1.416,0.97 -1.795,1.7 -0.256,0.5 -0.19,1.17 0.047,1.68 0.37,0.79 1.912,1.16 1.679,2 -2.641,9.51 -6.794,18.53 -9.978,27.87 -1.356,3.98 -2.201,8.12 -3.637,12.07 -2.586,7.11 -5.857,13.96 -8.419,21.09 -3.011,8.37 -5.384,16.95 -8.29,25.36 -0.773,2.24 -1.971,4.31 -2.74,6.55 -0.686,2 -0.908,4.14 -1.616,6.13 -0.993,2.79 -2.432,5.4 -3.475,8.17 -3.123,8.3 -6.194,16.62 -9.019,25.03 -1.568,4.66 -2.478,9.54 -4.156,14.17 -2.284,6.3 -5.388,12.29 -7.715,18.57 -1.439,3.89 -2.249,7.99 -3.568,11.92 -1.693,5.05 -3.929,9.91 -5.462,15.01 -2.79,9.28 -4.84,18.76 -7.496,28.08 -2.428,8.52 -5.104,16.96 -7.752,25.41 -0.664,2.12 -1.359,4.23 -2.18,6.3 -2.432,6.1 -5.477,11.97 -7.573,18.2 -4.48,13.31 -8.297,26.83 -12.133,40.34 -1.021,3.59 -1.42,7.34 -2.432,10.94 -3.46,12.28 -6.596,24.69 -10.977,36.68 -2.275,6.23 -5.661,12 -8.924,17.77 -1.914,3.38 -4.547,6.31 -6.574,9.62 -1.645,2.7 -2.804,5.67 -4.425,8.37 -0.379,0.64 -1.172,0.95 -1.538,1.6 -0.981,1.71 -1.544,3.64 -2.458,5.4 -1.243,2.38 -2.544,4.74 -4.004,7 -0.41,0.64 -1.133,1.02 -1.576,1.64 -0.5,0.69 -0.905,1.45 -1.226,2.25 -1.486,3.66 -2.344,7.6 -4.188,11.1 -0.794,1.51 -2.57,2.27 -3.583,3.64 -2.862,3.86 -5.43,7.94 -8.0023,12 -2.5716,4.07 -4.8235,8.33 -7.424,12.37 -0.4079,0.64 -1.1353,1.02 -1.5736,1.63 -1.2362,1.73 -2.0372,3.77 -3.4302,5.38 -2.9623,3.42 -6.5773,6.23 -9.5699,9.62 -2.0207,2.29 -3.4748,5.03 -5.4301,7.38 -4.7164,5.66 -9.8954,10.92 -14.5698,16.62 -1.5262,1.86 -2.7638,3.94 -4.0019,6 -1.2409,2.07 -2.1925,4.3 -3.4268,6.37 -0.1717,0.29 -0.4461,0.55 -0.7612,0.66 -0.3297,0.12 -0.713,0.09 -1.0525,0 -0.5711,-0.15 -1.222,-1.13 -1.6265,-0.7 -1.2473,1.33 -1.7042,3.23 -2.3526,4.93 -0.8936,2.34 -1.1066,4.95 -2.2622,7.17 -0.6605,1.28 -1.9353,2.13 -3.0416,3.04 -0.7058,0.59 -1.7086,0.77 -2.3554,1.41 -0.7315,0.73 -0.9357,1.89 -1.6688,2.62 -1.074,1.07 -2.5965,1.61 -3.6635,2.69 -1.0961,1.1 -1.9806,2.42 -2.7491,3.77 -1.0281,1.81 -2.021,3.68 -2.6151,5.68 -0.2929,0.98 -0.1557,2.06 0.0096,3.08 0.0629,0.38 0.8447,0.63 0.6517,0.97 -0.7445,1.31 -2.1402,2.13 -3.0841,3.31 -2.0772,2.59 -4.1817,5.17 -5.9678,7.97 -1.4525,2.27 -3.1615,4.55 -3.7148,7.19 -1.3381,6.39 -1.8167,12.96 -1.8747,19.49 -0.0078,0.87 1.2618,1.24 1.6836,2.01 0.1758,0.32 0.0745,0.73 0.0261,1.09 -0.8448,6.31 -2.0631,12.57 -2.7038,18.9 -0.0411,0.41 0.5823,0.62 0.6888,1.01 0.1762,0.66 0.2423,1.36 0.1313,2.03 -0.1729,1.03 -0.8838,1.95 -0.9686,3 -0.2415,2.99 -0.3289,6.01 -0.0013,8.99 0.6653,6.05 2.1175,11.99 2.9712,18.02 0.0947,0.66 0.0437,1.37 -0.1327,2.02 -0.1068,0.39 -0.7537,0.61 -0.689,1.01 1.5444,9.62 3.2447,19.23 5.4614,28.72 0.9596,4.11 2.5506,8.05 4.0485,11.99 1.5319,4.04 2.9023,8.18 5.0349,11.93 2.2434,3.94 5.2001,7.44 8.0069,11.01 0.9022,1.15 1.9726,2.16 3.095,3.09 0.7537,0.63 1.8066,0.86 2.4977,1.55 0.734,0.74 1.0254,1.82 1.6693,2.64 0.5331,0.68 1.1257,1.34 1.8392,1.82 1.4162,0.96 2.7992,2.25 4.4957,2.47 0.8991,0.11 1.2882,-1.46 2.1803,-1.62 0.6205,-0.12 1.1847,0.5 1.6421,0.93 0.665,0.64 0.8491,1.77 1.6589,2.2 1.7566,0.93 3.7506,1.39 5.7131,1.72 1.3336,0.21 2.7338,0.17 4.0522,-0.12 1.3031,-0.3 2.5356,-0.91 3.6665,-1.62 0.8685,-0.55 1.2951,-1.72 2.2487,-2.1 0.9457,-0.38 2.0478,-0.17 3.0522,0 0.3857,0.06 0.5834,0.64 0.974,0.65 0.4006,0 0.65,-0.75 1.0285,-0.62 2.2117,0.77 4.1069,2.27 6.274,3.16 2.4823,1.01 5.0508,1.82 7.6369,2.53 0.6636,0.18 1.3721,0.13 2.0603,0.13 4.0205,0 8.0761,0.4 12.0613,-0.13 2.234,-0.3 4.328,-1.34 6.345,-2.34 1.393,-0.7 2.269,-2.42 3.796,-2.73 6.174,-1.23 12.526,-1.31 18.805,-1.79 1.205,-0.09 2.533,-0.43 3.626,0.09 1.086,0.52 1.22,2.31 2.342,2.74 0.972,0.37 2.177,-1.24 3.05,-0.67 0.666,0.43 -0.544,1.54 -0.494,2.33 0.039,0.63 0.202,1.43 0.748,1.75 1.983,1.17 4.4,1.43 6.442,2.5 0.906,0.47 1.339,1.65 2.279,2.05 0.372,0.16 0.638,-0.7 1.037,-0.63 1.635,0.27 3.224,0.86 4.709,1.6 0.652,0.32 0.947,1.14 1.57,1.52 1.898,1.15 3.928,2.07 5.931,3.03 2.55,1.22 5.036,2.63 7.725,3.5 0.392,0.13 0.656,-0.74 1.057,-0.64 1.09,0.27 1.854,1.36 2.942,1.64 0.388,0.1 0.629,-0.64 1.029,-0.62 0.716,0.04 1.29,0.71 2.003,0.78 1.989,0.2 4.004,0.19 5.993,0 1.043,-0.09 1.985,-0.78 3.031,-0.82 0.401,-0.02 0.626,0.8 1.001,0.66 1.598,-0.6 3.062,-1.57 4.363,-2.68 0.304,-0.26 -0.121,-0.93 0.187,-1.18 0.982,-0.82 2.153,-1.47 3.388,-1.79 0.39,-0.1 0.631,0.63 1.034,0.63 0.388,0 0.602,-0.53 0.973,-0.64 0.335,-0.11 0.754,-0.18 1.054,0.01 0.316,0.19 0.279,0.71 0.546,0.96 1.176,1.13 2.39,2.24 3.743,3.16 1.221,0.82 2.573,1.45 3.928,2.03 2.723,1.16 5.485,2.24 8.291,3.18 5.097,1.72 10.222,3.37 15.407,4.8 2.647,0.74 5.35,1.27 8.065,1.68 0.666,0.11 1.363,0.03 2.019,-0.13 0.696,-0.17 1.267,-0.75 1.977,-0.84 1.344,-0.16 2.715,-0.03 4.06,0.12 3.913,0.44 7.82,0.98 11.697,1.67 6.752,1.22 13.395,3.03 20.177,4.07 0.714,0.1 1.341,-0.69 2.063,-0.67 0.714,0.02 1.286,0.78 2,0.77 0.713,-0.01 1.281,-0.66 1.974,-0.82 0.657,-0.16 1.354,-0.23 2.022,-0.13 m 7.084,-13.16 c 0,0 0,0 0,0 -2.359,0.04 -4.725,0.31 -7.077,0.12 -0.713,-0.05 -1.281,-0.66 -1.977,-0.83 -0.657,-0.16 -1.357,-0.25 -2.023,-0.13 -0.704,0.12 -1.268,0.73 -1.977,0.83 -1.658,0.23 -3.354,0.3 -5.02,0.14 -1.091,-0.11 -2.072,-0.76 -3.153,-0.94 -6.576,-1.1 -13.152,-2.28 -19.79,-2.92 -1.066,-0.1 -2.06,0.83 -3.126,0.74 -3.19,-0.27 -6.4,-0.78 -9.436,-1.79 -5.545,-1.86 -11.148,-3.8 -16.178,-6.79 -2.723,-1.61 -4.742,-4.25 -6.665,-6.76 -0.313,-0.41 0.089,-1.06 0.338,-1.51 0.658,-1.19 1.302,-2.46 2.342,-3.33 1.346,-1.13 2.981,-1.91 4.632,-2.51 0.304,-0.11 0.553,0.72 0.814,0.53 1.454,-1.06 2.384,-2.72 3.765,-3.88 1.694,-1.41 3.794,-2.31 5.421,-3.81 1.005,-0.92 1.366,-2.41 2.366,-3.33 1.592,-1.48 3.773,-2.24 5.308,-3.77 1.14,-1.14 1.532,-2.87 2.567,-4.1 1.695,-2.03 3.846,-3.63 5.574,-5.63 1.411,-1.63 2.681,-3.39 3.817,-5.22 1.012,-1.64 1.598,-3.51 2.605,-5.15 0.388,-0.63 1.16,-0.96 1.542,-1.6 0.648,-1.07 0.771,-2.43 1.501,-3.45 0.977,-1.36 2.487,-2.27 3.535,-3.58 1.617,-2.02 2.825,-4.35 4.432,-6.38 0.316,-0.4 1.052,-0.38 1.279,-0.84 1.127,-2.27 1.658,-4.8 2.672,-7.13 0.402,-0.93 1.223,-1.64 1.56,-2.59 2.07,-5.83 4.02,-11.72 5.637,-17.69 0.269,-0.99 0.154,-2.07 -0.013,-3.09 -0.063,-0.38 -0.651,-0.58 -0.651,-0.97 0,-0.39 0.588,-0.59 0.651,-0.97 0.168,-1.02 0.156,-2.07 0.019,-3.09 -0.76,-5.66 -2.067,-11.23 -2.706,-16.9 -0.045,-0.41 0.632,-0.61 0.687,-1.01 0.186,-1.35 0.325,-2.76 0.014,-4.09 -0.544,-2.31 -1.635,-4.47 -2.539,-6.67 -0.969,-2.35 -1.889,-4.74 -3.08,-7 -1.615,-3.06 -3.159,-6.2 -5.321,-8.9 -1.9,-2.38 -4.315,-4.32 -6.736,-6.16 -2.585,-1.96 -5.373,-3.66 -8.225,-5.22 -5.136,-2.79 -10.366,-5.43 -15.71,-7.81 -3.667,-1.63 -7.447,-3.02 -11.288,-4.19 -5.434,-1.64 -11.043,-2.66 -16.499,-4.23 -4.821,-1.39 -9.458,-3.4 -14.316,-4.65 -4.486,-1.17 -9.074,-1.92 -13.659,-2.6 -1.316,-0.19 -2.673,-0.18 -3.99,0 -0.708,0.1 -1.282,0.67 -1.977,0.84 -0.658,0.16 -1.349,0.15 -2.026,0.15 -0.677,0 -1.369,0.01 -2.026,-0.15 -0.695,-0.17 -1.264,-0.78 -1.978,-0.84 -2.989,-0.22 -6.003,-0.21 -8.993,0 -0.715,0.06 -1.287,0.75 -2.003,0.79 -0.405,0.02 -0.638,-0.7 -1.039,-0.64 -2.029,0.31 -3.892,1.39 -5.922,1.67 -0.42,0.06 -0.658,-0.72 -1.079,-0.67 -2.433,0.3 -4.862,0.82 -7.161,1.68 -3.613,1.34 -7.133,2.97 -10.483,4.87 -1.068,0.61 -1.608,1.9 -2.632,2.58 -1.934,1.28 -4.201,1.99 -6.158,3.24 -1.724,1.09 -3.144,2.62 -4.841,3.76 -1.382,0.93 -3.003,1.47 -4.369,2.42 -0.798,0.56 -1.571,1.23 -2.065,2.06 -0.874,1.48 -1.464,3.13 -1.966,4.77 -1.452,4.75 -2.875,9.52 -3.887,14.38 -0.948,4.56 -1.491,9.2 -1.983,13.82 -0.804,7.58 -1.399,15.17 -1.901,22.77 -0.132,1.99 -0.116,3.99 0,5.98 0.792,13.67 1.534,27.34 2.724,40.98 0.469,5.38 1.709,10.67 2.248,16.04 0.167,1.66 0.241,3.38 -0.135,5.02 -0.14,0.6 -0.794,0.99 -1.325,1.32 -0.294,0.18 -0.683,0.13 -1.03,0.13 -4.9959,0.05 -10.0058,0.37 -14.9892,0.01 -8.4887,-0.62 -16.9717,-1.52 -25.364,-2.94 -2.8761,-0.48 -5.7678,-1.31 -8.307,-2.75 -1.8803,-1.06 -2.8171,-3.35 -4.6114,-4.55 -2.3098,-1.55 -5.397,-1.8 -7.5315,-3.58 -1.7,-1.42 -2.6426,-3.61 -3.5159,-5.64 -0.1625,-0.38 0.6733,-0.65 0.644,-1.06 -0.0452,-0.63 -0.7202,-1.09 -0.8413,-1.72 -1.1038,-5.7 -2.142,-11.43 -2.8192,-17.21 -0.0474,-0.4 0.554,-0.63 0.6821,-1.01 0.1136,-0.34 0.1196,-0.74 0.0128,-1.08 -0.1838,-0.6 -0.7404,-1.05 -0.8603,-1.66 -1.4152,-7.2 -2.3859,-14.48 -3.729,-21.69 -1.2787,-6.86 -3.2837,-13.61 -4.1356,-20.54 -0.5716,-4.65 -0.5887,-9.39 -0.1164,-14.05 0.2471,-2.44 1.6537,-4.63 2.2498,-7 2.3249,-9.28 3.9974,-18.71 6.5084,-27.93 0.6451,-2.37 1.7214,-4.62 2.9346,-6.76 0.4904,-0.86 1.3238,-1.49 2.1029,-2.11 0.7267,-0.57 1.676,-0.83 2.3804,-1.43 1.4563,-1.24 2.9428,-2.5 4.0593,-4.06 1.4181,-1.97 1.9831,-4.48 3.4656,-6.41 1.8993,-2.47 4.922,-4 6.578,-6.63 2.3353,-3.72 3.1535,-8.22 5.1908,-12.11 1.641,-3.14 3.9994,-5.84 5.8029,-8.88 1.6093,-2.72 2.6284,-5.78 4.4249,-8.37 1.2343,-1.79 3.2513,-2.91 4.5732,-4.63 2.0293,-2.64 3.4724,-5.69 5.4301,-8.38 0.7195,-0.99 1.8225,-1.65 2.5699,-2.62 1.0479,-1.36 1.675,-3.02 2.7889,-4.32 0.8228,-0.97 2.0939,-1.47 2.9506,-2.4 0.7106,-0.77 1.0159,-1.86 1.6907,-2.66 1.0881,-1.3 2.573,-2.25 3.5698,-3.62 1.6863,-2.32 2.7481,-5.05 4.4261,-7.37 0.746,-1.04 1.663,-2.02 2.788,-2.62 0.344,-0.18 0.645,0.76 1.002,0.6 1.479,-0.65 2.867,-1.6 3.97,-2.78 2.858,-3.06 5.513,-6.33 7.814,-9.83 3.455,-5.25 5.916,-11.12 9.405,-16.35 0.575,-0.86 1.979,-0.86 2.62,-1.68 1.938,-2.46 3.486,-5.22 4.977,-7.97 3.183,-5.89 6.245,-11.85 9.031,-17.94 1.707,-3.73 2.703,-7.76 4.433,-11.47 0.918,-1.98 2.622,-3.53 3.477,-5.53 3.413,-7.99 6.412,-16.15 9.289,-24.35 0.965,-2.75 1.385,-5.66 2.225,-8.45 2.447,-8.13 5.337,-16.12 7.636,-24.28 1.33,-4.73 1.985,-9.63 3.242,-14.37 0.787,-2.97 1.815,-5.88 2.883,-8.76 0.892,-2.4 2.136,-4.67 2.992,-7.08 1.534,-4.33 2.673,-8.78 4.171,-13.12 0.28,-0.82 1.02,-1.46 1.156,-2.31 0.064,-0.4 -0.691,-0.64 -0.622,-1.03 0.093,-0.53 0.83,-0.74 1.021,-1.24 0.86,-2.26 1.251,-4.68 2.097,-6.95 2.488,-6.67 5.603,-13.11 7.899,-19.85 3.391,-9.96 6.222,-20.09 9.148,-30.19 2.549,-8.8 4.599,-17.74 7.274,-26.5 1.28,-4.2 3.204,-8.17 4.583,-12.33 1.241,-3.75 1.913,-7.67 3.27,-11.37 2.313,-6.31 5.314,-12.34 7.724,-18.61 1.346,-3.5 2.198,-7.18 3.536,-10.69 1.368,-3.58 3.224,-6.96 4.574,-10.54 2.294,-6.1 4.164,-12.35 6.348,-18.49 0.602,-1.69 1.213,-3.39 2.009,-5 1.155,-2.33 2.682,-4.47 3.833,-6.81 1.399,-2.84 2.679,-5.75 3.81,-8.7 2.148,-5.63 4.124,-11.32 6.02,-17.03 1.054,-3.18 1.983,-6.4 2.829,-9.63 0.954,-3.66 1.4,-7.45 2.568,-11.05 5.95,-18.3 12.768,-36.31 18.771,-54.59 1.967,-5.99 3.283,-12.17 5.131,-18.2 1.239,-4.04 2.593,-8.04 4.128,-11.98 1.003,-2.57 2.412,-4.97 3.475,-7.53 0.847,-2.03 1.594,-4.11 2.248,-6.21 2.193,-7.06 4.038,-14.23 6.288,-21.27 0.421,-1.32 1.267,-2.47 1.712,-3.78 1.469,-4.32 2.987,-8.65 4.022,-13.09 1.799,-7.73 3.275,-15.53 4.468,-23.38 0.3,-1.971 0.203,-4.001 -10e-4,-5.987 -0.075,-0.731 -0.877,-1.312 -0.824,-2.045 0.346,-4.861 1.471,-9.638 2.003,-14.482 1.037,-9.456 2.495,-18.901 2.703,-28.412 0.082,-3.738 -2.018,-7.33 -1.838,-11.064 0.532,-11.068 2.787,-21.988 3.957,-33.007 0.106,-1.002 0.067,-2.032 -0.134,-3.02 -0.081,-0.398 -0.715,-0.604 -0.684,-1.01 0.097,-1.284 0.815,-2.453 1.043,-3.721 1.25,-6.953 2.133,-13.97 3.388,-20.923 0.367,-2.033 1.203,-3.971 1.475,-6.019 2.393,-18.02 4.111,-36.125 6.512,-54.144 1.408,-10.565 3.078,-21.096 4.914,-31.595 1.209,-6.908 2.711,-13.763 4.218,-20.613 0.341,-1.55 1.028,-3.013 1.323,-4.572 2.334,-12.356 4.204,-24.796 6.56,-37.148 0.687,-3.605 1.837,-7.109 2.566,-10.706 0.675,-3.329 0.954,-6.732 1.643,-10.059 3.127,-15.114 6.377,-30.203 9.801,-45.252 1.103,-4.848 2.669,-9.582 3.777,-14.429 1.559,-6.811 2.529,-13.753 4.222,-20.532 2.612,-10.46 6.24,-20.656 8.687,-31.156 4.258,-18.264 7.312,-36.792 11.419,-55.091 2.393,-10.664 5.217,-21.229 8.076,-31.778 0.845,-3.116 2.302,-6.053 3.029,-9.198 0.094,-0.407 -0.729,-0.655 -0.656,-1.066 0.883,-4.966 2.204,-9.847 3.465,-14.731 1.744,-6.751 3.949,-13.382 5.55,-20.168 3.118,-13.217 5.408,-26.622 8.601,-39.822 0.367,-1.515 1.653,-2.697 2.048,-4.206 0.103,-0.392 -0.615,-0.608 -0.682,-1.008 -0.168,-1.003 -0.251,-2.067 0.002,-3.053 0.138,-0.538 0.871,-0.745 1.101,-1.251 0.764,-1.674 1.48,-3.399 1.843,-5.203 2.504,-12.444 4.773,-24.939 6.746,-37.478 0.063,-0.404 -0.6,-0.616 -0.691,-1.015 -0.155,-0.678 -0.182,-1.411 -0.015,-2.087 0.413,-1.675 1.321,-3.203 1.734,-4.879 0.167,-0.675 0.143,-1.409 -0.015,-2.086 -0.089,-0.38 -0.564,-0.576 -0.694,-0.945 -0.121,-0.343 -0.084,-0.733 -0.025,-1.092 0.879,-5.325 2.303,-10.57 2.837,-15.94 0.104,-1.044 -0.844,-1.957 -0.955,-3 -0.211,-1.986 -0.284,-4.014 -10e-4,-5.991 0.339,-2.371 1.612,-4.56 1.85,-6.944 0.106,-1.055 -0.742,-2.011 -0.849,-3.066 -0.135,-1.334 -0.088,-2.699 0.133,-4.022 0.064,-0.386 0.693,-0.555 0.695,-0.947 0.003,-0.725 -0.762,-1.346 -0.68,-2.067 0.309,-2.707 1.443,-5.269 1.823,-7.967 0.187,-1.327 0.075,-2.695 -0.134,-4.019 -0.06,-0.386 -0.669,-0.584 -0.651,-0.974 0.032,-0.716 0.728,-1.289 0.784,-2.004 0.208,-2.655 0.378,-5.353 10e-4,-7.99 -0.249,-1.743 -1.406,-3.244 -1.852,-4.948 -0.175,-0.672 -0.141,-1.407 0.014,-2.084 0.091,-0.4 0.72,-0.607 0.692,-1.016 -0.286,-4.291 -0.983,-8.547 -1.615,-12.801 -0.617,-4.146 -1.152,-8.319 -2.131,-12.395 -0.593,-2.468 -1.324,-4.956 -2.568,-7.168 -4.213,-7.491 -9.653,-14.258 -13.736,-21.821 -1.134,-2.099 -0.791,-4.762 -1.786,-6.93 -0.346,-0.755 -1.517,-0.781 -2.046,-1.42 -0.829,-1.003 -1.157,-2.345 -1.93,-3.39 -0.654,-0.884 -1.744,-1.41 -2.316,-2.349 -1.776,-2.912 -2.853,-6.218 -4.67,-9.105 -0.21,-0.335 -0.874,0.077 -1.172,-0.182 -0.872,-0.758 -1.541,-1.735 -2.157,-2.711 -2.249,-3.566 -4.019,-7.432 -6.425,-10.895 -0.178,-0.257 -0.462,0.459 -0.761,0.551 -0.345,0.105 -0.778,0.208 -1.082,0.014 -2.657,-1.694 -5.19,-3.586 -7.635,-5.573 -0.409,-0.332 -0.415,-1.041 -0.857,-1.328 -3.464,-2.251 -7.044,-4.336 -10.729,-6.204 -2.057,-1.042 -4.369,-1.507 -6.448,-2.502 -1.737,-0.832 -3.566,-1.633 -4.96,-2.96 -1.539,-1.467 -2.308,-3.581 -3.645,-5.235 -0.647,-0.8 -1.753,-1.2 -2.274,-2.087 -1.179,-2.009 -2.106,-4.188 -2.726,-6.433 -0.107,-0.389 0.547,-0.623 0.672,-1.007 0.109,-0.334 0.115,-0.722 0,-1.054 -0.129,-0.37 -0.59,-0.57 -0.695,-0.947 -0.181,-0.651 -0.249,-1.357 -0.132,-2.022 0.124,-0.705 0.668,-1.282 0.836,-1.978 0.159,-0.657 0.243,-1.356 0.132,-2.022 -0.173,-1.039 -0.795,-1.969 -0.968,-3.008 -0.111,-0.666 -0.039,-1.369 0.131,-2.022 0.099,-0.378 0.642,-0.584 0.652,-0.974 0.011,-0.388 -0.607,-0.612 -0.598,-1 0.008,-0.389 0.649,-0.584 0.642,-0.973 -0.013,-0.706 -0.599,-1.301 -0.695,-2.001 -0.139,-1.008 -0.252,-2.067 0,-3.052 0.138,-0.538 0.833,-0.763 1.101,-1.249 0.645,-1.169 1.402,-2.348 1.612,-3.666 0.115,-0.727 -0.795,-1.367 -0.694,-2.096 0.238,-1.717 1.378,-3.217 1.666,-4.926 0.069,-0.411 -0.795,-0.672 -0.655,-1.065 3.196,-9.002 6.895,-17.818 10.501,-26.6632 0.331,-0.8103 0.744,-1.6047 1.299,-2.2816 0.994,-1.213 2.456,-2.0277 3.31,-3.3432 2.275,-3.5049 4.109,-7.28 6.003,-11.0047 0.764,-1.5038 1.428,-3.0646 1.963,-4.6646 0.631,-1.8881 0.764,-3.9348 1.525,-5.7744 0.276,-0.6655 1.093,-0.9597 1.506,-1.5501 1.906,-2.7288 3.453,-5.7031 5.432,-8.3798 0.331,-0.4476 1.024,-0.4897 1.417,-0.8841 0.714,-0.7168 1.14,-1.6866 1.856,-2.4016 0.307,-0.307 0.923,-0.2374 1.154,-0.6054 2.045,-3.2574 3.605,-6.7985 5.569,-10.1049 1.229,-2.0679 2.416,-4.1958 4.002,-6.0045 0.944,-1.0767 2.388,-1.5925 3.475,-2.525 1.274,-1.093 2.189,-2.6032 3.586,-3.5346 1.645,-1.0976 3.659,-1.5201 5.4,-2.4596 0.294,-0.1591 0.596,-0.4562 0.62,-0.7903 0.023,-0.3099 -0.673,-0.523 -0.504,-0.784 0.426,-0.6593 1.15,-1.1682 1.905,-1.3838 0.444,-0.1268 0.853,0.5685 1.303,0.4669 0.537,-0.1212 0.789,-0.7916 1.275,-1.0491 1.182,-0.6261 2.379,-1.3156 3.691,-1.5796 0.395,-0.0796 0.64,0.5427 1.034,0.6286 0.183,0.0398 0.358,-0.1538 0.475,-0.2999 1.23,-1.5351 1.903,-3.6351 3.546,-4.7174 0.626,-0.4127 1.231,0.9762 1.974,1.0805 0.397,0.0559 0.604,-0.6562 1.005,-0.662 0.405,-0.0059 0.646,0.7373 1.037,0.6322 2.678,-0.7194 5.101,-2.2157 7.762,-2.9957 2.699,-0.7909 5.469,-2.0073 8.264,-1.7011 6.39,0.7 12.506,2.9861 18.712,4.6564 2.032,0.5467 4.053,1.1691 5.989,1.9909 1.579,0.6701 2.931,1.8104 4.515,2.4669 2.411,0.9991 5.142,1.2184 7.426,2.4811 0.842,0.4652 0.908,1.7086 1.51,2.4584 0.767,0.9558 1.851,1.6361 2.574,2.6266 1.128,1.5478 2.223,3.1611 2.94,4.9369 1.13,2.7936 1.499,5.8495 2.56,8.6697 0.897,2.3847 2.556,4.4583 3.296,6.8962 1.299,4.2771 2.173,8.6898 2.78,13.1182 0.1,0.7293 -0.834,1.3739 -0.694,2.0965 0.753,3.8727 2.11,7.6053 3.311,11.3633 1.13,3.536 2.613,6.9554 3.679,10.5112 2.371,7.9077 3.81,16.1037 6.628,23.8637 1.057,2.912 2.992,5.456 4.903,7.894 0.604,0.771 1.755,0.91 2.498,1.549 1.642,1.412 2.92,3.227 4.62,4.57 1.614,1.275 3.42,2.307 5.258,3.231 3.526,1.773 7.069,3.568 10.803,4.847 3.442,1.179 6.992,2.318 10.626,2.493 2.064,0.1 3.919,-1.394 5.964,-1.691 0.401,-0.058 0.625,0.549 1.009,0.677 0.346,0.115 0.738,0.107 1.092,0.022 1.99,-0.477 3.875,-1.4 5.899,-1.699 0.401,-0.059 0.625,0.55 1.01,0.677 0.344,0.115 0.738,0.114 1.088,0.018 2.988,-0.812 5.805,-2.364 8.879,-2.729 4.674,-0.554 9.451,-0.585 14.12,0.003 2.367,0.298 4.617,1.387 6.663,2.615 3.087,1.852 5.634,4.492 8.595,6.54 1.369,0.946 3.044,1.412 4.368,2.422 2.853,2.179 5.558,4.564 8.101,7.099 0.745,0.742 1.036,1.84 1.692,2.662 0.673,0.843 1.688,1.396 2.272,2.303 1.871,2.902 3.548,5.935 5.043,9.047 1.545,3.218 2.933,6.522 4.061,9.909 1.391,4.174 2.603,8.42 3.482,12.73 0.084,0.414 -0.725,0.658 -0.667,1.076 0.672,4.909 1.766,9.753 2.813,14.596 0.175,0.809 0.803,1.507 0.847,2.334 0.021,0.402 -0.545,0.621 -0.671,1.004 -0.112,0.343 -0.144,0.747 -0.013,1.084 0.783,2.015 2.026,3.84 2.721,5.886 0.224,0.658 0.134,1.406 -0.013,2.085 -0.083,0.381 -0.651,0.583 -0.651,0.974 0,0.391 0.591,0.588 0.651,0.974 0.208,1.325 0.283,2.689 0.133,4.022 -0.082,0.727 -0.919,1.314 -0.814,2.038 0.205,1.424 1.773,2.539 1.681,3.974 -0.264,4.108 -1.555,8.097 -2.712,12.048 -0.41,1.401 -1.593,2.503 -1.963,3.915 -0.102,0.39 0.609,0.605 0.675,1.003 0.17,1.012 0.216,2.074 0.01,3.08 -0.154,0.752 -0.82,1.317 -1.059,2.047 -0.931,2.852 -1.528,5.805 -2.437,8.664 -1.303,4.099 -3.09,8.045 -4.195,12.201 -0.104,0.392 0.592,0.612 0.681,1.008 0.152,0.678 0.2,1.415 0.013,2.084 -0.359,1.288 -1.021,2.475 -1.619,3.671 -1.107,2.211 -2.447,4.303 -3.493,6.544 -1.289,2.763 -1.988,5.805 -3.504,8.451 -1.194,2.086 -3.116,3.665 -4.542,5.599 -0.436,0.591 -0.733,1.276 -1.022,1.95 -1.205,2.804 -2.028,5.78 -3.457,8.476 -1.244,2.347 -3.151,4.287 -4.515,6.565 -1.621,2.709 -2.793,5.671 -4.426,8.372 -2.542,4.201 -5.68,8.033 -8.087,12.313 -0.19,0.339 0.772,0.653 0.599,1.002 -2.486,5.018 -5.783,9.603 -8.325,14.593 -0.992,1.946 -1.403,4.142 -2.247,6.157 -0.811,1.935 -1.634,3.88 -2.711,5.68 -1.436,2.401 -3.378,4.476 -4.803,6.883 -3.027,5.116 -5.989,10.287 -8.536,15.657 -0.172,0.363 0.753,0.651 0.622,1.029 -0.425,1.229 -1.561,2.101 -2.111,3.279 -1.553,3.325 -2.543,6.901 -4.178,10.187 -2.684,5.392 -6.052,10.425 -8.757,15.807 -1.699,3.38 -2.809,7.032 -4.44,10.446 -2.031,4.251 -4.58,8.246 -6.54,12.53 -1.402,3.065 -2.169,6.393 -3.526,9.478 -0.517,1.174 -1.659,2.029 -2.07,3.244 -0.129,0.38 0.701,0.636 0.622,1.03 -0.112,0.56 -0.819,0.82 -1.092,1.322 -1.409,2.592 -2.757,5.223 -3.936,7.928 -1.642,3.767 -2.593,7.84 -4.52,11.47 -1.126,2.122 -3.149,3.637 -4.54,5.595 -1.115,1.57 -2.133,3.221 -2.96,4.96 -1.026,2.158 -1.995,4.372 -2.58,6.69 -0.099,0.391 0.698,0.637 0.628,1.034 -0.093,0.534 -0.827,0.753 -1.031,1.255 -0.99,2.432 -1.506,5.042 -2.518,7.466 -0.667,1.599 -1.876,2.941 -2.5,4.558 -1.872,4.843 -3.399,9.813 -4.967,14.763 -1.514,4.78 -2.737,9.649 -4.276,14.421 -1.676,5.197 -3.952,10.204 -5.368,15.477 -0.187,0.697 0.883,1.375 0.66,2.06 -0.491,1.509 -2.044,2.494 -2.622,3.971 -0.152,0.387 0.745,0.658 0.652,1.063 -0.403,1.758 -1.457,3.304 -2.045,5.008 -0.811,2.356 -1.474,4.761 -2.148,7.16 -3.532,12.574 -7.276,25.095 -10.471,37.759 -0.104,0.411 0.75,0.662 0.672,1.079 -3.276,17.362 -7.397,34.558 -10.672,51.921 -0.076,0.401 0.597,0.615 0.687,1.013 0.153,0.678 0.193,1.413 0.013,2.084 -0.569,2.124 -1.612,4.097 -2.236,6.205 -0.945,3.199 -1.903,6.41 -2.464,9.698 -0.069,0.4 0.675,0.637 0.633,1.041 -0.033,0.316 -0.654,0.241 -0.796,0.525 -0.629,1.258 -1.028,2.62 -1.448,3.962 -1.192,3.805 -2.541,7.577 -3.387,11.474 -0.086,0.395 0.548,0.624 0.675,1.008 0.114,0.344 0.122,0.741 0.018,1.088 -0.58,1.94 -1.491,3.771 -2.054,5.716 -0.681,2.355 -1.417,4.724 -1.671,7.162 -0.077,0.735 0.817,1.373 0.703,2.103 -2.111,13.532 -4.794,26.969 -7.337,40.426 -0.568,3.009 -1.219,6.005 -1.997,8.966 -0.667,2.543 -1.831,4.953 -2.333,7.534 -0.077,0.395 0.546,0.622 0.671,1.005 0.113,0.343 0.128,0.741 0.014,1.083 -0.785,2.344 -2.081,4.514 -2.689,6.909 -0.103,0.406 0.739,0.658 0.662,1.071 -0.464,2.472 -1.584,4.778 -2.217,7.213 -0.922,3.545 -1.899,7.092 -2.447,10.714 -0.063,0.416 0.751,0.661 0.664,1.073 -0.829,3.903 -2.373,7.624 -3.332,11.497 -1.595,6.442 -3.161,12.899 -4.33,19.432 -0.071,0.398 0.548,0.624 0.675,1.007 0.115,0.346 0.114,0.74 0.022,1.092 -1.815,6.985 -3.988,13.874 -5.731,20.877 -0.168,0.675 -0.143,1.409 0.015,2.086 0.089,0.382 0.566,0.578 0.694,0.947 0.116,0.333 0.15,0.737 0,1.055 -0.231,0.492 -0.85,0.732 -1.074,1.227 -0.681,1.511 -1.335,3.072 -1.601,4.709 -0.067,0.414 0.739,0.658 0.662,1.071 -0.462,2.459 -1.63,4.741 -2.21,7.175 -1.978,8.3 -3.53,16.697 -5.46,25.009 -0.221,0.948 -0.906,1.778 -0.987,2.748 -0.034,0.401 0.545,0.622 0.67,1.005 0.114,0.344 0.11,0.737 0.018,1.088 -0.246,0.937 -0.792,1.781 -1.017,2.724 -1.27,5.31 -2.165,10.706 -3.463,16.009 -0.594,2.431 -1.749,4.714 -2.209,7.174 -0.077,0.414 0.745,0.66 0.667,1.074 -1.946,10.363 -4.716,20.56 -6.673,30.921 -0.076,0.398 0.627,0.633 0.634,1.039 0.007,0.388 -0.598,0.611 -0.598,1 0,0.389 0.668,0.618 0.598,1.001 -0.095,0.518 -0.913,0.7 -1.005,1.218 -2.413,13.557 -4.074,27.239 -6.473,40.801 -0.478,2.7 -1.691,5.24 -2.15,7.95 -0.067,0.39 0.647,0.63 0.628,1.03 -0.033,0.71 -0.777,1.29 -0.768,2 0.013,1.06 0.95,2.01 0.832,3.06 -0.193,1.71 -1.511,3.17 -1.726,4.88 -0.133,1.06 0.754,2.05 0.723,3.12 -0.025,0.84 -0.759,1.52 -0.885,2.35 -1.403,9.29 -2.267,18.65 -3.693,27.93 -0.855,5.57 -2.416,11.02 -3.146,16.6 -0.096,0.73 0.826,1.37 0.699,2.1 -4.217,24.18 -8.8,48.29 -13.685,72.35 -1.465,7.21 -3.806,14.22 -5.36,21.42 -1.328,6.15 -2.002,12.42 -3.281,18.58 -1.086,5.24 -2.747,10.35 -3.808,15.59 -1.365,6.73 -2.15,13.57 -3.465,20.32 -1.632,8.37 -3.75,16.64 -5.376,25.02 -1.62,8.34 -2.545,16.81 -4.359,25.11 -1.608,7.36 -4.247,14.47 -5.896,21.82 -3.476,15.49 -6.727,31.05 -9.471,46.69 -0.185,1.05 0.873,2.06 0.731,3.12 -1.868,14.02 -4.891,27.86 -6.73,41.88 -0.138,1.05 0.87,2 0.835,3.06 -0.3,9.11 -1.064,18.2 -1.835,27.29 -0.336,3.94 -0.783,7.89 -1.485,11.79 -0.301,1.67 -1.316,3.17 -1.513,4.86 -0.086,0.73 0.735,1.36 0.698,2.1 -0.08,1.54 -0.828,2.99 -1.037,4.53 -1.066,7.79 -2.044,15.6 -2.784,23.44 -0.188,1.98 -0.203,4 10e-4,5.99 0.075,0.73 0.828,1.31 0.824,2.04 -0.012,2.13 -0.699,4.21 -0.87,6.34 -0.77,9.53 -1.387,19.08 -1.954,28.63 -0.04,0.67 -0.039,1.36 0.132,2.02 0.099,0.37 0.65,0.58 0.652,0.97 0.002,0.39 -0.525,0.6 -0.642,0.97 -0.106,0.34 -0.091,0.72 0,1.06 0.185,0.68 0.839,1.26 0.813,1.97 -0.357,9.68 -1.406,19.33 -1.956,29.01 -0.057,1 -0.072,2.03 0.134,3.02 0.08,0.38 0.566,0.57 0.695,0.94 0.115,0.33 0.092,0.72 0,1.06 -0.189,0.69 -0.793,1.26 -0.828,1.97 -0.244,4.99 -0.201,10 -10e-4,14.99 0.502,12.54 1.245,25.06 2.107,37.58 0.079,1.15 0.705,2.23 0.715,3.39 0.003,0.41 -0.55,0.63 -0.678,1.01 -0.116,0.35 -0.065,0.73 -0.026,1.09 0.532,4.97 1.487,9.89 1.736,14.88 0.053,1.07 -1.034,2.05 -0.84,3.11 0.179,0.96 1.569,1.36 1.839,2.3 0.161,0.57 -0.612,1.04 -0.719,1.62 -0.182,0.99 -0.251,2.02 -0.134,3.02 1.165,10.03 2.808,19.99 3.972,30.02 0.116,1 0.411,2.17 -0.135,3.02 -1.385,2.14 -3.715,3.53 -5.353,5.49 -0.332,0.39 -0.612,0.98 -0.468,1.48 1.052,3.63 2.958,6.97 3.972,10.61 0.939,3.37 1.601,6.84 1.865,10.33 0.08,1.05 -0.74,2.01 -0.852,3.06 -0.175,1.66 -0.185,3.34 0,5 0.08,0.71 0.74,1.28 0.784,2 0.024,0.39 -0.598,0.61 -0.598,1 0,0.39 0.609,0.61 0.598,1 -0.01,0.39 -0.6,0.59 -0.652,0.97 -0.221,1.67 -0.146,3.35 -0.146,5.03 0,0.68 -0.015,1.37 0.147,2.03 0.171,0.69 0.814,1.26 0.837,1.97 0.258,8 0.549,16.02 10e-4,23.99 -0.206,2.99 -1.636,5.77 -2.248,8.7 -0.713,3.41 -1.358,6.85 -1.724,10.32 -0.21,1.98 -0.213,4 10e-4,5.99 0.113,1.04 0.796,1.96 0.969,3 0.111,0.67 0.025,1.37 -0.132,2.03 -0.165,0.69 -0.82,1.26 -0.821,1.97 -0.002,0.71 0.781,1.26 0.812,1.97 0.03,0.71 -0.642,1.32 -0.642,2.03 -0.001,0.41 0.678,0.64 0.639,1.04 -0.363,3.82 -0.852,7.65 -1.818,11.35 -1.879,7.22 -4.058,14.37 -6.697,21.34 -2.071,5.47 -4.199,11.01 -7.401,15.9 -1.286,1.96 -3.583,3.13 -5.707,4.12 M 182.58,1804.86 c 0,0 0,0 0,0 -4.713,0 -9.445,0.41 -14.141,0.01 -1.649,-0.15 -3.192,-0.93 -4.688,-1.64 -1.151,-0.55 -2.013,-1.63 -3.197,-2.09 -0.645,-0.26 -1.404,-0.15 -2.08,0.01 -0.399,0.09 -0.608,0.73 -1.014,0.69 -5.268,-0.6 -10.652,-0.95 -15.695,-2.59 -1.256,-0.41 -1.334,-2.32 -2.267,-3.25 -1.118,-1.12 -2.774,-1.64 -3.808,-2.84 -0.955,-1.11 -1.407,-2.57 -2.005,-3.9 -0.67,-1.5 -1.389,-2.99 -1.792,-4.58 -1.205,-4.75 -2.202,-9.56 -3.018,-14.4 -1.105,-6.54 -2.127,-13.11 -2.741,-19.72 -0.067,-0.71 0.591,-1.33 0.718,-2.03 0.122,-0.69 0.121,-1.4 0.019,-2.09 -0.795,-5.32 -2.067,-10.56 -2.708,-15.9 -0.048,-0.4 0.551,-0.63 0.679,-1.01 0.116,-0.35 0.095,-0.74 0.023,-1.09 -0.539,-2.67 -1.516,-5.25 -1.851,-7.95 -0.249,-2 -0.131,-4.05 0.115,-6.05 0.696,-5.67 1.432,-11.36 2.705,-16.93 0.616,-2.69 1.743,-5.26 2.935,-7.76 0.314,-0.65 1.115,-0.96 1.52,-1.57 2.291,-3.42 3.861,-7.36 6.545,-10.49 1.325,-1.54 3.391,-2.26 5.199,-3.19 2.982,-1.54 6.195,-2.61 9.145,-4.21 2.118,-1.15 4.077,-2.57 6.012,-4.01 0.838,-0.62 1.257,-1.95 2.284,-2.13 3.312,-0.58 6.732,-0.24 10.086,-0.02 1.053,0.07 1.992,0.75 3.036,0.9 7.472,1.1 15.004,1.76 22.476,2.86 1.507,0.22 2.924,0.9 4.434,1.1 1,0.13 2.033,0.06 3.02,-0.14 0.4,-0.08 0.612,-0.76 1.013,-0.69 6.723,1.25 13.391,2.81 19.994,4.58 3.981,1.07 7.845,2.54 11.723,3.93 1.69,0.61 3.399,1.21 4.971,2.08 2.848,1.58 5.706,3.19 8.246,5.23 2.51,2.01 4.653,4.45 6.812,6.83 1.108,1.22 2.138,2.54 2.965,3.96 1.042,1.81 2.194,3.64 2.612,5.68 0.476,2.32 0.349,4.76 0.005,7.11 -0.554,3.79 -1.647,7.49 -2.681,11.18 -0.544,1.94 -1.745,3.7 -2.047,5.7 -0.159,1.05 1.076,2.11 0.717,3.11 -1.919,5.36 -4.635,10.41 -7.352,15.42 -1.64,3.02 -4.24,5.48 -5.688,8.59 -2.642,5.69 -4.05,11.89 -6.504,17.66 -1.269,2.98 -3.386,5.56 -4.637,8.55 -2.097,5.02 -3.402,10.33 -5.377,15.4 -0.179,0.46 -0.57,0.9 -1.039,1.05 -7.773,2.51 -15.585,4.94 -23.521,6.87 m 91.444,-808.549 c 0,0 0,0 0,0 0.096,-0.459 -0.108,-1.122 0.286,-1.377 0.384,-0.248 1.17,-0.097 1.332,0.331 0.154,0.405 -0.462,0.769 -0.826,1.004 M 423.54,289.817 c 0,0 0,0 0,0 -0.448,-0.105 -1.333,0.146 -1.345,-0.314 -0.011,-0.457 0.884,-0.436 1.329,-0.332 M 407.517,17.7909 c 0,0 0,0 0,0 -0.439,-0.4304 -1.312,-0.6767 -1.316,-1.2913 -0.004,-0.6124 0.687,-1.299 1.299,-1.2989 0.612,10e-5 1.295,0.6868 1.299,1.2993 m 65.741,5.3172 c 0,0 0,0 0,0 -0.448,-0.1047 -1.333,0.1463 -1.345,-0.3141 -0.011,-0.4566 0.884,-0.4364 1.329,-0.3325 M 278.522,1040.98 c 0,0 0,0 0,0 -0.017,-0.27 -0.262,-0.64 -0.051,-0.81 0.274,-0.22 0.808,-0.25 1.058,0 0.328,0.32 0.661,1.06 0.301,1.35 m 4.629,-27.34 c 0,0 0,0 0,0 0.449,0.11 1.334,-0.14 1.346,0.32 0.011,0.45 -0.885,0.43 -1.329,0.33" />
    </g>
    <g
       transform="translate(0,-1494)"
       id="g16">
      <path
         style="fill:#ffffff"
         inkscape:connector-curvature="0"
         id="path14"
         d="m 169.484,1804.89 c 0,0 0,0 0,0 3.558,-0.84 7.15,-1.55 10.674,-2.52 1.147,-0.32 2.348,-0.64 3.307,-1.34 0.952,-0.7 1.295,-2.04 2.25,-2.74 0.253,-0.18 0.46,0.46 0.758,0.55 0.345,0.11 0.739,0.13 1.082,0.02 0.726,-0.25 1.321,-0.8 2.043,-1.06 2.666,-0.95 5.499,-1.44 8.097,-2.57 0.271,-0.12 -0.509,-0.41 -0.536,-0.71 -0.044,-0.47 -0.128,-1.44 0.343,-1.38 0.964,0.13 1.509,1.24 2.353,1.73 0.198,0.11 0.466,0.08 0.682,0.01 4.156,-1.39 8.505,-2.35 12.396,-4.37 3.829,-1.97 7.13,-4.85 10.539,-7.49 1.055,-0.81 2.033,-1.76 2.817,-2.84 0.979,-1.34 1.455,-3.01 2.422,-4.36 0.714,-1 1.869,-1.63 2.577,-2.64 0.807,-1.14 1.413,-2.43 1.916,-3.74 0.96,-2.49 1.432,-5.17 2.46,-7.64 3.936,-9.45 8.59,-18.6 12.42,-28.1 0.916,-2.28 1.404,-4.72 1.785,-7.14 0.213,-1.34 0.162,-2.74 -0.017,-4.09 -0.051,-0.38 -0.651,-0.58 -0.651,-0.97 0,-0.39 0.568,-0.59 0.651,-0.97 0.147,-0.68 0.274,-1.44 0.01,-2.08 -0.619,-1.51 -1.466,-2.96 -2.573,-4.16 -0.214,-0.23 -0.461,0.47 -0.761,0.56 -0.459,0.14 -1.306,0.59 -1.437,0.13 -1.403,-4.95 -1.694,-10.16 -2.826,-15.18 -0.071,-0.32 -0.421,-0.72 -0.739,-0.64 -2.676,0.63 -5.94,0.63 -7.81,2.65 -1.996,2.15 -1.217,5.79 -2.487,8.44 -0.957,1.99 -2.999,3.3 -4.08,5.22 -0.335,0.6 -0.268,1.43 0,2.06 0.337,0.79 1.252,1.21 1.702,1.94 0.18,0.3 0.168,0.69 0.117,1.03 -0.067,0.45 -0.042,1.49 -0.461,1.3 -1.018,-0.46 -1.183,-2.1 -2.221,-2.51 -0.506,-0.2 -1.046,0.64 -1.128,1.18 -0.107,0.7 0.643,1.32 0.641,2.03 -0.001,0.39 -0.554,0.59 -0.65,0.97 -0.141,0.56 -0.228,1.18 -0.034,1.72 0.194,0.55 1.1,0.75 1.124,1.32 0.022,0.52 -1.073,0.65 -1.019,1.16 0.177,1.67 1.224,3.14 1.648,4.77 0.173,0.67 0.223,1.38 0.13,2.06 -0.514,3.79 -0.878,7.64 -1.944,11.31 -1.529,5.27 -3.609,10.38 -5.805,15.41 -1.068,2.45 -2.399,4.8 -3.961,6.96 -0.599,0.83 -1.698,1.17 -2.422,1.89 -0.662,0.67 -1.004,1.61 -1.7,2.24 -0.773,0.69 -1.876,0.96 -2.638,1.67 -1.552,1.44 -2.622,3.37 -4.244,4.73 -0.24,0.2 -0.483,-0.45 -0.79,-0.51 -0.135,-0.02 -0.321,0.16 -0.293,0.3 0.145,0.7 0.765,1.28 0.768,2 0.003,0.63 -0.184,1.46 -0.751,1.75 -2.109,1.07 -4.466,1.6 -6.784,2.06 -5.836,1.17 -11.803,1.61 -17.632,2.8 -0.544,0.11 -0.733,1.24 -1.266,1.09 -0.916,-0.27 -1.215,-1.51 -2.009,-2.04 -0.301,-0.2 -0.749,-0.15 -1.082,-0.02 -0.935,0.39 -1.954,0.78 -2.611,1.55 -1.117,1.31 -1.456,3.16 -2.547,4.49 -0.415,0.51 -1.141,0.73 -1.79,0.8 -1.345,0.16 -2.726,0.12 -4.059,-0.11 -3.91,-0.67 -8.038,-0.87 -11.618,-2.58 -1.562,-0.75 -1.641,-3.11 -2.866,-4.33 -0.879,-0.88 -2.331,-0.98 -3.268,-1.8 -0.934,-0.81 -0.988,-3.14 -2.215,-2.98 -3.397,0.45 -7.315,1.67 -9.241,4.5 -1.125,1.66 1.304,3.84 2.457,5.48 0.567,0.8 1.776,0.89 2.503,1.55 3.002,2.74 5.397,6.14 8.638,8.59 1.471,1.11 3.416,1.42 5.206,1.86 3.095,0.75 6.235,1.38 9.403,1.71 m 92.031,-7.89 c 0,0 0,0 0,0 0.677,-0.33 1.498,-0.45 2.031,-0.98 1.116,-1.11 2.049,-2.42 2.788,-3.81 1.881,-3.55 3.531,-7.22 5.04,-10.94 6.235,-15.37 12.343,-30.79 18.183,-46.32 1.104,-2.94 1.92,-5.98 2.639,-9.03 0.821,-3.49 1.49,-7.02 1.975,-10.57 1.129,-8.25 2.067,-16.54 2.862,-24.84 0.159,-1.65 0.17,-3.33 -10e-4,-4.99 -0.108,-1.04 -1.007,-2 -0.827,-3.03 0.147,-0.84 1.243,-1.21 1.693,-1.94 0.182,-0.3 0.134,-0.69 0.134,-1.03 0.004,-7.36 0.635,-14.75 -0.119,-22.06 -0.238,-2.3 -1.487,-4.46 -2.814,-6.36 -0.302,-0.43 -1.076,-0.08 -1.581,0.07 -0.375,0.11 -0.559,0.63 -0.945,0.7 -1.002,0.18 -2.141,0.45 -3.052,0 -1.357,-0.67 -2.1,-2.19 -3.284,-3.13 -0.8,-0.64 -1.653,-1.29 -2.635,-1.58 -0.505,-0.14 -1.093,0.08 -1.536,0.36 -0.719,0.46 -1.152,1.27 -1.829,1.78 -0.735,0.57 -1.629,0.89 -2.38,1.44 -0.269,0.19 -0.537,0.44 -0.651,0.75 -0.123,0.34 -0.162,0.76 -0.015,1.08 0.72,1.62 1.593,3.16 2.567,4.63 0.417,0.63 1.129,1.02 1.574,1.63 1.418,1.94 2.694,3.98 3.998,6 0.556,0.86 1.151,1.7 1.579,2.64 0.149,0.32 0.123,0.7 0.124,1.06 0.002,3.35 0.26,6.72 -0.115,10.05 -1.279,11.36 -3.567,22.59 -4.841,33.94 -0.079,0.71 0.782,1.26 0.813,1.97 0.03,0.71 -0.638,1.32 -0.642,2.03 -0.003,0.4 0.743,0.65 0.621,1.03 -2.032,6.39 -4.756,12.53 -6.951,18.87 -0.704,2.03 -0.986,4.19 -1.742,6.2 -1.255,3.34 -3.021,6.46 -4.278,9.8 -0.897,2.38 -1.327,4.91 -2.175,7.31 -1.938,5.49 -4.299,10.82 -6.179,16.32 -1.94,5.69 -3.343,11.54 -5.276,17.23 -0.149,0.44 -1.24,0.69 -0.931,1.03 1.087,1.21 2.662,1.92 4.156,2.57 m -69.901,-8.04 c 0,0 0,0 0,0 -0.449,-0.1 -1.337,0.15 -1.348,-0.31 -0.015,-0.62 0.707,-1.45 1.308,-1.31 m -33.964,1.62 c 0,0 0,0 0,0 -0.449,-0.11 -1.334,0.14 -1.346,-0.32 -0.011,-0.45 0.884,-0.43 1.329,-0.33 m 110.966,-1 c 0,0 0,0 0,0 0.013,0.22 0.261,0.64 0.039,0.67 -0.777,0.11 -2.286,0.44 -2.331,-0.34 M 61.96,1785.52 c 0,0 0,0 0,0 1.0577,-0.86 2.2198,-1.61 3.1732,-2.59 0.682,-0.71 1.8234,-1.43 1.6891,-2.4 -0.2061,-1.49 -1.6044,-2.55 -2.5374,-3.72 -1.301,-1.64 -2.4255,-3.53 -4.152,-4.71 -0.7315,-0.5 -1.7884,-0.12 -2.659,0.05 -0.3838,0.07 -0.5847,0.68 -0.9744,0.65 -0.425,-0.03 -0.7559,-0.45 -0.9977,-0.8 -1.2111,-1.76 -2.8298,-3.4 -3.3244,-5.47 -0.1846,-0.78 0.9294,-1.35 1.5975,-1.78 1.0527,-0.68 2.3739,-0.86 3.4531,-1.5 0.9688,-0.58 1.8589,-1.3 2.6367,-2.12 0.1508,-0.16 0.1012,-0.46 0.0072,-0.66 -0.4442,-0.93 -0.945,-1.85 -1.5871,-2.66 -0.9388,-1.18 -2.6013,-1.87 -3.1269,-3.28 -0.328,-0.89 0.4686,-1.85 0.9161,-2.68 0.4665,-0.86 1.9177,-1.37 1.7904,-2.34 -0.1946,-1.49 -1.6,-2.56 -2.5795,-3.7 -1.413,-1.64 -3.2515,-2.91 -4.5729,-4.63 -0.9096,-1.18 -1.5476,-2.57 -2.0446,-3.98 -1.445,-4.09 -2.6387,-8.27 -3.7631,-12.46 -0.7228,-2.69 -1.4729,-5.4 -1.7743,-8.18 -0.2926,-2.69 -0.398,-5.44 0.0027,-8.12 0.2346,-1.57 0.4882,-3.59 1.8673,-4.38 1.2116,-0.68 2.8541,0.31 4.0553,1.02 1.0637,0.62 1.2544,3.18 2.4252,2.79 2.3913,-0.79 4.6921,-2.93 5.3188,-5.37 0.3756,-1.46 -2.2077,-2.09 -3.088,-3.32 -0.9702,-1.35 -1.5194,-2.97 -2.4226,-4.36 -0.9585,-1.49 -2.3667,-2.68 -3.1507,-4.27 -0.3077,-0.62 -0.1469,-1.4 0.0103,-2.08 0.0886,-0.38 0.5646,-0.57 0.6938,-0.94 0.1199,-0.34 0.1332,-0.75 0.0184,-1.09 -0.4275,-1.28 -2.2069,-2.5 -1.6205,-3.72 0.6577,-1.37 2.9461,-0.87 4.2241,-1.69 1.0977,-0.7 2.1614,-1.61 2.7564,-2.77 1.1915,-2.32 1.1616,-5.17 2.4773,-7.42 1.0896,-1.87 3.5961,-2.68 4.5529,-4.62 1.909,-3.86 2.0967,-8.4 3.8269,-12.35 0.4046,-0.92 1.67,-1.15 2.3952,-1.85 4.3491,-4.2 8.6814,-8.42 12.8121,-12.83 0.7186,-0.77 1.0352,-1.84 1.6921,-2.66 0.6839,-0.86 1.6401,-1.47 2.3077,-2.34 0.6248,-0.81 1.566,-1.64 1.5382,-2.66 -0.0236,-0.87 -1.2499,-1.24 -1.665,-2 -0.1683,-0.31 -0.2324,-0.79 0,-1.06 3.0575,-3.47 6.7591,-6.36 9.6841,-9.94 0.3259,-0.4 -0.1007,-1.05 -0.3397,-1.51 -0.4123,-0.79 -0.955,-1.52 -1.5761,-2.15 -0.7933,-0.82 -2.267,-1.09 -2.6343,-2.17 -0.2215,-0.64 1.3916,-0.84 1.3728,-1.53 -0.0278,-1.01 -1.1372,-1.69 -1.4876,-2.64 -0.0692,-0.19 0.1701,-0.38 0.3248,-0.51 0.5072,-0.41 1.1702,-0.63 1.6317,-1.09 1.4779,-1.49 2.8501,-3.09 4.1513,-4.74 0.6518,-0.83 0.9746,-1.89 1.6922,-2.66 3.9639,-4.25 8.3949,-8.05 12.3079,-12.34 1.467,-1.61 2.365,-3.67 3.789,-5.32 0.659,-0.77 1.686,-1.13 2.399,-1.85 1.296,-1.29 2.305,-2.86 3.601,-4.15 0.713,-0.72 1.672,-1.15 2.399,-1.85 4.096,-3.93 7.902,-8.17 12.055,-12.04 0.861,-0.81 2.089,-1.15 2.944,-1.96 5.587,-5.29 10.752,-11.01 16.338,-16.31 0.763,-0.72 1.864,-1 2.662,-1.69 1.547,-1.32 2.791,-2.98 4.338,-4.31 0.798,-0.68 1.877,-0.99 2.662,-1.69 2.126,-1.89 4.303,-3.78 6.028,-6.04 0.304,-0.4 -0.3,-0.98 -0.299,-1.48 0,-0.19 0.168,-0.34 0.299,-0.48 3.972,-4.04 8.155,-7.88 12,-12.05 0.214,-0.23 0.17,-0.68 -0.001,-0.95 -0.46,-0.71 -1.267,-1.15 -1.784,-1.83 -0.561,-0.74 -0.833,-1.67 -1.43,-2.38 -0.821,-0.97 -1.52,-2.74 -2.785,-2.61 -2.214,0.24 -3.912,2.16 -5.684,3.51 -1.35,1.03 -2.325,2.49 -3.626,3.57 -0.806,0.68 -1.89,0.98 -2.662,1.7 -2.921,2.69 -6.017,5.29 -8.37,8.49 -0.42,0.57 0.688,1.32 0.641,2.03 -0.029,0.44 -0.401,1.06 -0.841,1.02 -0.688,-0.05 -1.084,-1.61 -1.661,-1.23 -2.778,1.82 -4.621,4.79 -7.107,6.99 -0.692,0.62 -1.717,0.79 -2.38,1.43 -11.595,11.29 -22.739,23.03 -34.338,34.31 -0.844,0.82 -2.091,1.14 -2.944,1.96 -6.1621,5.87 -11.895,12.17 -18.0558,18.04 -0.7613,0.73 -1.8861,0.99 -2.6624,1.7 -3.0702,2.8 -6.0215,5.74 -8.8328,8.81 -0.7108,0.77 -0.9848,1.88 -1.6921,2.66 -2.6391,2.9 -5.6688,5.43 -8.3079,8.34 -0.7074,0.78 -0.9988,1.87 -1.6921,2.66 -1.7388,1.98 -3.9091,3.57 -5.5698,5.62 -1.2885,1.59 -2.2384,3.43 -3.221,5.23 -1.8211,3.32 -3.0488,6.99 -5.1843,10.12 -0.7612,1.12 -2.2853,1.46 -3.3114,2.34 -1.1833,1.02 -2.3055,2.12 -3.2915,3.32 -0.465,0.57 -0.7402,1.28 -1.0189,1.96 -1.0764,2.63 -2.1901,5.24 -3.0421,7.95 -1.9287,6.13 -3.2722,12.44 -5.2931,18.54 -1.1545,3.48 -3.4104,6.59 -4.2185,10.17 -0.6644,2.94 -0.4072,6.05 -0.1205,9.05 0.2912,3.05 1.9664,5.95 1.8441,9.01 -0.2163,5.41 -2.6303,10.59 -2.8431,16.01 -0.1324,3.37 1.4739,6.59 1.8231,9.95 0.044,0.42 -0.705,0.66 -0.6746,1.08 0.1476,2.05 0.9085,4.02 1.1878,6.05 0.9885,7.22 1.2102,14.54 2.6138,21.69 0.9882,5.02 2.8529,9.84 4.5337,14.69 0.8325,2.39 1.9151,4.7 2.997,7 0.4136,0.87 0.8668,1.75 1.4819,2.5 0.9929,1.21 2.3056,2.14 3.3076,3.34 0.6267,0.75 0.801,1.87 1.5493,2.5 1.691,1.43 3.4851,2.93 5.6114,3.55 2.2572,0.66 4.7016,0.22 7.0502,0.12 m 255.987,-28.14 c 0,0 0,0 0,0 0.167,-0.44 0.477,-0.86 0.5,-1.33 0.145,-3 0.193,-6.01 0.002,-9.01 -0.041,-0.63 -0.994,-1.22 -0.693,-1.78 0.618,-1.16 2.347,-1.41 3.006,-2.55 1.34,-2.31 2.082,-4.93 2.823,-7.49 1.159,-4.01 2.216,-8.07 2.865,-12.19 0.311,-1.97 0.177,-4 -10e-4,-5.99 -0.057,-0.64 -0.852,-1.17 -0.696,-1.79 0.224,-0.89 1.664,-1.25 1.693,-2.17 0.543,-17 1.148,-34.06 0.004,-51.03 -0.722,-10.72 -3.426,-21.22 -5.582,-31.74 -1.132,-5.52 -2.6,-10.98 -4.276,-16.37 -0.715,-2.3 -1.683,-4.53 -2.881,-6.62 -0.275,-0.48 -1.024,-0.48 -1.416,-0.87 -0.427,-0.43 -0.793,-0.95 -0.982,-1.52 -2.689,-8.17 -4.656,-16.58 -7.631,-24.65 -0.214,-0.58 -1.099,-0.73 -1.718,-0.71 -0.712,0.02 -1.274,0.69 -1.974,0.82 -1.201,0.23 -2.557,-0.28 -3.659,0.25 -0.875,0.42 -1.265,1.49 -1.729,2.35 -0.17,0.31 -0.122,0.7 -0.123,1.06 -10e-4,0.68 -0.055,1.39 0.117,2.05 0.431,1.66 0.959,3.31 1.678,4.86 0.512,1.11 1.595,1.92 1.989,3.08 0.126,0.37 -0.609,0.61 -0.598,1 0.01,0.39 0.524,0.6 0.65,0.97 0.176,0.51 -0.073,1.17 0.235,1.61 0.485,0.71 1.76,0.79 1.99,1.62 0.183,0.65 -0.834,1.11 -1.047,1.76 -0.115,0.35 -0.019,0.75 0.106,1.1 0.48,1.34 1.689,2.49 1.694,3.91 0.003,0.87 -1.456,1.16 -1.671,2 -0.176,0.69 0.631,1.32 0.641,2.03 0.006,0.39 -0.715,0.63 -0.598,1 0.302,0.96 2.276,1.67 1.7,2.49 -1.162,1.67 -3.423,2.36 -5.401,2.81 -0.603,0.14 -1.055,-0.73 -1.351,-1.27 -0.268,-0.49 0.097,-1.22 -0.25,-1.66 -0.607,-0.77 -1.418,-1.73 -2.4,-1.71 -1.16,0.03 -2.069,1.09 -2.971,1.82 -1.113,0.9 -2.155,1.91 -3.031,3.04 -0.316,0.41 -0.433,0.96 -0.467,1.48 -0.029,0.44 0.081,0.91 0.284,1.31 2.28,4.45 4.906,8.71 7.145,13.18 1.109,2.22 2.07,4.51 2.887,6.84 0.989,2.82 1.841,5.7 2.522,8.61 0.159,0.68 0.144,1.41 -0.016,2.09 -0.091,0.38 -0.598,0.56 -0.704,0.94 -0.183,0.65 -0.342,1.38 -0.132,2.03 0.463,1.41 1.577,2.55 2.085,3.95 0.484,1.34 0.709,2.76 0.859,4.17 0.812,7.61 1.673,15.24 2.026,22.89 0.323,6.99 0.282,14 -10e-4,20.99 -0.043,1.05 -0.849,1.96 -0.97,3 -0.177,1.54 -0.582,3.24 0.087,4.63 0.726,1.51 2.903,1.9 3.749,3.34 0.515,0.88 0.175,2.05 10e-4,3.06 -0.067,0.38 -0.566,0.57 -0.695,0.94 -0.115,0.33 -0.148,0.74 0.001,1.06 0.226,0.48 0.971,0.67 1.055,1.2 1.188,7.47 1.633,15.03 2.72,22.52 0.52,3.57 1.121,7.14 2.098,10.62 0.221,0.78 0.662,1.74 1.445,1.98 m -224.6339,-11.3 c 0,0 0,0 0,0 1.1215,-3.92 2.4674,-7.79 3.3647,-11.76 1.4367,-6.37 2.6851,-12.79 3.63,-19.25 0.0605,-0.41 -0.768,-0.66 -0.6588,-1.07 0.8995,-3.32 1.9031,-6.68 3.5709,-9.69 3.3971,-6.14 7.8871,-11.61 11.5381,-17.59 1.548,-2.55 2.821,-5.25 4.039,-7.96 0.94,-2.1 1.285,-4.46 2.425,-6.45 2.012,-3.52 4.553,-6.71 6.964,-9.97 1.436,-1.94 3.15,-3.67 4.57,-5.62 1.251,-1.72 2.178,-3.66 3.43,-5.38 1.016,-1.4 2.141,-2.72 3.359,-3.94 0.711,-0.72 1.668,-1.15 2.399,-1.85 3.186,-3.02 6.097,-6.34 9.337,-9.31 0.682,-0.62 1.688,-0.81 2.38,-1.43 2.324,-2.06 4.214,-4.6 6.62,-6.57 4.935,-4.03 10.431,-7.35 15.356,-11.4 0.756,-0.62 0.92,-1.75 1.549,-2.5 1.089,-1.3 2.546,-2.28 3.574,-3.63 1.348,-1.77 2.63,-3.63 3.51,-5.68 0.159,-0.37 -0.751,-0.65 -0.622,-1.03 0.412,-1.21 1.47,-2.11 2.07,-3.24 0.601,-1.14 2.258,-2.49 1.523,-3.55 -2.272,-3.25 -5.98,-5.25 -9.241,-7.52 -0.37,-0.26 -0.923,-0.01 -1.342,0.16 -2.429,0.95 -4.836,1.98 -7.155,3.17 -1.909,0.99 -3.54,2.48 -5.504,3.35 -0.428,0.19 -1.066,0.05 -1.369,-0.31 -0.344,-0.41 0.154,-1.21 -0.235,-1.58 -1.282,-1.19 -2.704,-2.72 -4.452,-2.77 -1.756,-0.05 -3.269,1.4 -4.634,2.51 -0.762,0.62 -0.9,1.77 -1.553,2.5 -2.068,2.32 -4.5,4.3 -6.57,6.62 -0.703,0.79 -0.965,1.92 -1.712,2.67 -0.231,0.23 -0.691,0.17 -0.978,0.02 -0.593,-0.32 -0.845,-1.19 -1.499,-1.35 -0.83,-0.2 -1.84,-0.12 -2.534,0.37 -0.858,0.62 -1.048,1.85 -1.707,2.67 -0.618,0.77 -1.272,1.56 -2.101,2.1 -2.019,1.31 -4.411,2.02 -6.368,3.42 -1.57,1.13 -2.827,2.65 -4.101,4.1 -1.1,1.25 -2.111,2.6 -3.004,4.01 -4.851,7.67 -9.68,15.36 -14.217,23.22 -2.3231,4.02 -4.6022,8.1 -6.3504,12.4 -0.2413,0.6 0.8146,1.25 0.5644,1.84 -0.3257,0.77 -1.5582,0.81 -1.989,1.53 -1.4514,2.41 -2.6457,4.99 -3.5417,7.66 -0.1276,0.38 0.8199,0.68 0.6221,1.03 -0.7456,1.31 -2.1887,2.1 -3.0881,3.32 -1.327,1.79 -2.5966,3.65 -3.5628,5.65 -0.2929,0.61 -0.2494,1.36 -0.1323,2.03 0.1239,0.7 0.7178,1.27 0.8359,1.97 0.1693,1.02 0.2897,2.1 0.0098,3.08 -0.961,3.4 -2.7511,6.52 -3.6907,9.92 -0.1075,0.38 0.5469,0.62 0.6718,1 0.1089,0.34 0.115,0.72 -4e-4,1.06 -0.1284,0.37 -0.6399,0.56 -0.6947,0.94 -0.1911,1.35 -0.1987,2.74 -0.0184,4.09 0.4147,3.11 1.0389,6.19 1.7962,9.23 0.4851,1.95 1.739,3.71 1.9234,5.71 0.1006,1.09 -0.8619,2.02 -1.1119,3.09 -1.3125,5.59 -2.652,11.2 -3.5696,16.87 -0.0673,0.42 0.7196,0.66 0.6676,1.08 -0.2954,2.38 -1.8815,4.6 -1.6695,6.99 0.07,0.79 1.5406,0.5 2.3307,0.45 0.6402,-0.03 1.1723,-0.85 1.7942,-0.69 0.8886,0.22 1.2831,1.45 2.1665,1.69 m 1.0877,-3.16 c 0,0 0,0 0,0 -0.7823,-0.1 -2.321,0.47 -2.3469,-0.32 -0.0257,-0.78 1.5494,-0.44 2.3252,-0.34 m -41.3475,-16.65 c 0,0 0,0 0,0 0.2189,-0.01 0.6032,-0.25 0.6566,-0.04 0.1115,0.44 0.1252,1.3 -0.3318,1.33 m 44.3321,-1.31 c 0,0 0,0 0,0 -0.2067,0.06 -0.4172,0.28 -0.62,0.2 -0.7147,-0.28 -2.0434,-0.43 -1.9642,-1.19 0.0894,-0.86 1.4189,-1.64 2.2259,-1.33 m 140.0668,-0.35 c 0,0 0,0 0,0 -0.449,-0.11 -1.334,0.14 -1.346,-0.32 -0.011,-0.45 0.884,-0.43 1.329,-0.33 m 20.021,-3.35 c 0,0 0,0 0,0 -0.679,0.06 -1.358,0.23 -2.036,0.16 -0.463,-0.04 -1.645,-0.15 -1.311,-0.48 0.559,-0.55 1.515,-0.48 2.298,-0.48 0.466,0 0.941,0.2 1.31,0.48 m 36.716,-5.71 c 0,0 0,0 0,0 -0.163,-0.43 -0.483,-0.83 -0.488,-1.28 -0.005,-0.46 -10e-4,-1.31 0.461,-1.31 0.614,0 1.298,0.69 1.304,1.3 m 2.22,-542.97 c 0,0 0,0 0,0 0.584,-1.92 1.018,-3.9 1.753,-5.78 0.111,-0.28 0.426,-0.56 0.73,-0.55 0.387,0.02 0.587,0.59 0.971,0.64 0.452,0.06 1.391,0.12 1.327,-0.33 -0.119,-0.86 -1.302,-1.2 -1.651,-1.98 -0.276,-0.62 -0.205,-1.35 -0.132,-2.03 0.053,-0.48 0.129,-1.69 0.502,-1.37 1.156,0.98 1.485,2.66 2.418,3.85 0.409,0.53 0.896,1.18 1.558,1.25 0.423,0.04 0.665,-0.61 0.774,-1.02 2.347,-8.85 4.661,-17.72 6.566,-26.67 0.084,-0.4 -0.661,-0.61 -0.678,-1.01 -0.028,-0.64 0.72,-1.21 0.555,-1.83 -0.174,-0.64 -1.527,-0.74 -1.425,-1.4 0.147,-0.95 1.47,-1.27 1.968,-2.09 0.508,-0.83 0.769,-1.79 0.988,-2.74 2.167,-9.38 4.278,-18.77 6.166,-28.21 1.629,-8.15 2.569,-16.43 4.381,-24.53 0.339,-1.52 1.647,-2.69 2.039,-4.2 0.106,-0.4 -0.731,-0.65 -0.666,-1.07 1.022,-6.57 2.848,-12.99 3.878,-19.56 1.073,-6.84 1.38,-13.79 2.428,-20.64 1.076,-7.03 2.731,-13.95 3.938,-20.96 1.214,-7.04 2.094,-14.136 3.324,-21.175 0.913,-5.218 2.343,-10.343 3.106,-15.585 0.058,-0.405 -0.583,-0.619 -0.69,-1.014 -0.176,-0.651 -0.29,-1.364 -0.132,-2.02 0.413,-1.715 1.565,-3.225 1.814,-4.972 0.103,-0.724 -0.731,-1.311 -0.814,-2.038 -0.154,-1.344 -0.158,-2.732 0.116,-4.058 2.348,-11.342 5.541,-22.504 7.738,-33.876 0.385,-1.993 0.344,-4.092 -0.018,-6.088 -0.111,-0.615 -0.744,-1.097 -1.325,-1.325 -0.637,-0.25 -1.383,-0.145 -2.052,-10e-4 -0.384,0.082 -0.602,0.544 -0.98,0.652 -0.138,0.04 -0.316,-0.133 -0.332,-0.276 -0.11,-1.023 -0.223,-2.075 -0.031,-3.086 0.382,-2.006 1.263,-3.888 1.737,-5.875 0.124,-0.524 0.489,-1.306 0.048,-1.615 -1.897,-1.332 -4.136,-2.155 -6.357,-2.814 -0.986,-0.292 -2.067,-0.139 -3.083,0.014 -0.324,0.049 -0.474,0.609 -0.8,0.572 -0.379,-0.043 -0.721,-1.117 -0.855,-0.76 -1.589,4.228 -2.309,8.74 -3.753,13.02 -0.196,0.58 -0.903,0.881 -1.129,1.45 -0.962,2.428 -1.486,5.013 -2.402,7.458 -0.342,0.911 -1.177,1.628 -1.36,2.584 -0.075,0.395 0.587,0.609 0.675,1.002 0.152,0.679 0.123,1.4 0.018,2.088 -0.946,6.214 -2.223,12.374 -3.166,18.588 -1.212,7.983 -1.912,16.043 -3.299,23.998 -0.615,3.524 -2.003,6.879 -2.7,10.388 -2.272,11.437 -3.894,22.994 -6.203,34.424 -3.131,15.5 -6.492,30.95 -10.114,46.33 -1.426,6.06 -3.244,12.02 -5.024,17.98 -0.627,2.1 -1.741,4.05 -2.193,6.2 -0.087,0.41 0.736,0.65 0.662,1.07 -0.96,5.35 -2.965,10.51 -3.703,15.9 -0.502,3.67 -0.783,7.49 0.008,11.11 0.497,2.28 2.822,3.77 3.713,5.92 0.394,0.95 0.29,2.1 0.015,3.09 -1.963,7.05 -4.758,13.85 -6.695,20.91 -0.111,0.4 0.762,0.66 0.662,1.07 -3.932,16.05 -8.733,31.87 -12.666,47.92 -0.096,0.4 0.549,0.63 0.675,1.01 0.114,0.34 0.157,0.75 0.014,1.08 -0.441,1.03 -1.307,1.85 -1.717,2.89 -0.197,0.51 -0.386,1.2 -0.055,1.62 0.636,0.82 2.14,0.76 2.616,1.68 0.245,0.48 -0.678,0.95 -1.199,1.06 -0.38,0.08 -0.611,-0.58 -0.998,-0.6 -0.296,-0.01 -0.641,0.25 -0.714,0.53 -1.075,4.21 -3.963,8.6 -2.68,12.75 0.769,2.49 4.848,1.98 7.398,2.51 1.312,0.27 2.736,0.25 4.019,-0.14 0.739,-0.22 1.5,-0.83 1.689,-1.58 2.206,-8.77 3.439,-17.76 5.399,-26.59 1.185,-5.34 2.584,-10.63 4.032,-15.91 0.304,-1.1 0.929,-2.1 1.219,-3.21 M 54.8819,1548.5 c 0,0 0,0 0,0 -1.7336,3.42 -3.5688,6.78 -5.2009,10.25 -2.6039,5.52 -5.3048,11.02 -7.5037,16.72 -0.1485,0.39 0.7786,0.67 0.6454,1.06 -1.0904,3.2 -2.9454,6.09 -4.1577,9.24 -1.3144,3.42 -1.9525,7.09 -3.4117,10.45 -0.4094,0.94 -1.5745,1.37 -2.1039,2.25 -0.2886,0.48 0.1149,1.24 -0.2497,1.66 -1.5148,1.77 -3.6518,2.93 -5.1846,4.68 -2.3923,2.73 -6.1125,5.11 -6.538,8.72 -0.3669,3.11 2.2473,6.09 4.5393,8.22 0.7413,0.69 1.8721,-0.87 2.5913,-1.58 0.7389,-0.74 1.0034,-1.84 1.6693,-2.64 1.0025,-1.21 2.3085,-2.13 3.3079,-3.34 0.5906,-0.71 0.8278,-1.68 1.4302,-2.38 1.4096,-1.64 3.1496,-2.98 4.5698,-4.62 1.2808,-1.47 2.6304,-2.95 3.5143,-4.69 0.1757,-0.35 -0.5239,-0.6 -0.6418,-0.97 -0.1097,-0.35 -0.1272,-0.74 -0.0134,-1.08 0.2419,-0.73 0.8102,-1.32 1.0533,-2.05 0.9717,-2.91 1.4078,-6 2.5805,-8.84 3.5433,-8.57 7.8507,-16.8 11.5403,-25.31 1.6403,-3.78 3.4955,-7.52 4.4432,-11.54 0.6295,-2.66 0.2898,-5.47 0.223,-8.21 -0.0116,-0.47 -0.0011,-1.21 -0.4564,-1.34 -1.4501,-0.42 -3.3513,-1.04 -4.5277,-0.1 M 329.175,903.508 c 0,0 0,0 0,0 0.219,-0.013 0.604,-0.251 0.657,-0.038 0.112,0.443 0.125,1.305 -0.332,1.332 m -42.714,38.718 c 0,0 0,0 0,0 -0.428,-0.167 -0.829,-0.432 -1.282,-0.502 -0.659,-0.101 -1.348,-0.14 -2,-0.003 -0.701,0.147 -1.275,0.703 -1.978,0.837 -1.157,0.22 -2.633,-0.558 -3.526,0.21 -1.204,1.036 -1.49,2.849 -1.833,4.401 -0.087,0.395 0.626,0.632 0.632,1.037 0.007,0.388 -0.622,0.612 -0.598,1 0.044,0.716 0.696,1.292 0.784,2.003 0.148,1.201 0.421,2.532 -0.088,3.63 -0.408,0.882 -1.412,1.568 -2.376,1.69 -0.469,0.059 -0.45,-0.857 -0.505,-1.327 -0.116,-0.989 -0.105,-1.998 -0.002,-2.989 0.554,-5.35 1.506,-10.656 1.972,-16.014 0.145,-1.668 0.296,-3.405 -0.143,-5.021 -0.125,-0.457 -0.874,-0.426 -1.347,-0.456 -1.811,-0.115 -5.019,-1.739 -5.445,0.025 -3.417,14.18 -3.549,28.956 -5.037,43.466 -0.223,2.168 0.736,4.523 -0.092,6.539 -0.496,1.205 -2.418,1.077 -3.393,1.94 -0.4,0.354 -0.5,0.984 -0.514,1.517 -0.158,5.996 -0.277,12.002 0,17.997 0.049,1.05 0.913,1.95 0.97,3 0.269,4.99 0.139,10 -0.001,15 -0.013,0.47 -0.015,1.17 -0.456,1.34 -1.064,0.42 -3.147,-0.93 -3.425,0.17 -1.962,7.84 -1.544,16.09 -2.65,24.09 -1.218,8.81 -3.196,17.51 -4.318,26.34 -0.093,0.73 0.8,1.37 0.703,2.1 -0.622,4.71 -2.042,9.28 -2.824,13.97 -0.14,0.83 -0.356,1.81 0.065,2.54 0.617,1.09 2.705,1.23 2.801,2.47 0.164,2.11 -1.58,3.94 -2.145,5.98 -1.013,3.65 -1.539,7.43 -2.581,11.07 -0.483,1.7 -1.893,3.14 -1.983,4.9 -0.045,0.86 1.349,1.21 1.628,2.03 0.125,0.37 -0.803,0.67 -0.598,1 0.195,0.32 0.762,-0.38 1.089,-0.21 0.658,0.35 0.829,1.42 1.551,1.6 1.515,0.38 3.388,0.83 4.685,-0.04 2.674,-1.79 4.487,-4.66 6.296,-7.32 0.225,-0.33 -0.695,-0.64 -0.622,-1.03 0.101,-0.54 0.814,-0.78 1.049,-1.28 1.98,-4.17 4.014,-8.34 5.574,-12.69 0.135,-0.38 -0.542,-0.62 -0.666,-1 -0.112,-0.34 -0.156,-0.75 -0.014,-1.09 0.441,-1.02 1.485,-1.79 1.713,-2.89 0.149,-0.71 -0.868,-1.37 -0.678,-2.08 1.063,-3.96 3.061,-7.61 4.328,-11.5 1.14,-3.51 2.091,-7.08 2.883,-10.68 1.396,-6.34 2.928,-12.68 3.675,-19.13 1.459,-12.6 1.159,-25.38 2.936,-37.95 1.009,-7.13 3.743,-13.922 5.391,-20.941 0.717,-3.051 1.29,-6.141 1.7,-9.248 1.073,-8.141 2.713,-16.27 2.746,-24.481 0.006,-1.342 -2.035,-1.842 -2.635,-3.042 -0.15,-0.298 0.655,-0.265 0.841,-0.541 0.719,-1.065 1.683,-2.121 1.817,-3.398 0.168,-1.597 -0.357,-3.233 -0.966,-4.718 -0.282,-0.689 -1.283,-0.88 -1.604,-1.552 M 51.4767,1703.04 c 0,0 0,0 0,0 0.3308,-0.3 0.5529,-0.82 0.9924,-0.89 0.7948,-0.13 2.3629,-0.45 2.3883,0.35 0.0346,1.1 -1.3408,1.83 -2.3029,2.36 -0.417,0.22 -1.1461,0.08 -1.3891,-0.33 M 164.508,1521.82 c 0,0 0,0 0,0 -0.013,-0.21 -0.251,-0.6 -0.039,-0.65 0.444,-0.11 1.306,-0.13 1.333,0.33 m 9.38,-5.96 c 0,0 0,0 0,0 0.28,-0.68 0.321,-1.52 0.838,-2.04 0.362,-0.37 0.994,-0.33 1.509,-0.34 0.146,0 0.314,0.17 0.313,0.31 -0.007,0.79 0.144,1.71 -0.336,2.33 -0.24,0.31 -0.616,-0.6 -1.006,-0.6 -0.392,0 -0.63,0.5 -1.009,0.6 m 98.054,-310.98 c 0,0 0,0 0,0 -0.449,-0.1 -1.337,0.15 -1.348,-0.31 -0.015,-0.62 0.691,-1.32 1.308,-1.31 0.458,0.01 0.319,0.87 0.33,1.33 m 0.692,-1.74 c 0,0 0,0 0,0 -0.12,-0.44 -0.351,-0.86 -0.359,-1.31 -0.002,-0.15 0.255,-0.4 0.332,-0.28 0.245,0.38 0.325,0.87 0.332,1.33 m 1.69,-2.74 c 0,0 0,0 0,0 -0.119,-0.44 -0.598,-0.93 -0.359,-1.31 0.245,-0.4 0.926,-0.47 1.362,-0.31 0.251,0.09 0.116,0.58 -0.025,0.8 m 0.041,-24.15 c 0,0 0,0 0,0 -0.449,-0.11 -1.334,0.14 -1.346,-0.32 -0.011,-0.45 0.884,-0.43 1.329,-0.33 m -242.7344,505.3 c 0,0 0,0 0,0 -0.4367,0.12 -0.8573,0.35 -1.31,0.36 -0.1452,0 -0.4045,-0.25 -0.2817,-0.33 0.3869,-0.25 0.8749,-0.32 1.3326,-0.33 m 87.9255,-110.01 c 0,0 0,0 0,0 0.683,-0.32 1.325,-0.75 2.05,-0.96 0.136,-0.04 0.324,0.13 0.324,0.27 -0.001,0.52 -0.08,1.06 -0.327,1.51 -0.21,0.38 -0.553,0.76 -0.975,0.86 -0.454,0.11 -1.112,0.08 -1.362,-0.31 m 200.01,-520.04 c 0,0 0,0 0,0 0.218,0.01 0.603,0.25 0.656,0.04 0.112,-0.44 0.125,-1.31 -0.332,-1.33 M 29.5267,1607.79 c 0,0 0,0 0,0 -0.1195,-0.44 -0.3511,-0.86 -0.3586,-1.31 -0.0024,-0.15 0.2548,-0.4 0.3324,-0.28 0.2445,0.38 0.3241,0.87 0.3317,1.33 m 57.6458,12.49 c 0,0 0,0 0,0 0.0168,0.27 0.2608,0.64 0.0504,0.81 -0.2723,0.22 -0.768,0.21 -1.0561,0.01 -0.8913,-0.62 -1.9111,-1.32 -2.2728,-2.35 -0.1517,-0.43 0.9138,-0.52 1.3279,-0.33 m 219.9576,-18.99 c 0,0 0,0 0,0 0.117,0.45 0.595,0.95 0.353,1.35 -0.243,0.4 -0.971,0.56 -1.367,0.31 -0.394,-0.24 -0.547,-0.96 -0.305,-1.36 m -221.7112,16.71 c 0,0 0,0 0,0 0.4602,0.09 1.1249,-0.11 1.3807,0.29 0.2539,0.39 0.0873,1.11 -0.3067,1.36 -0.393,0.25 -1.1098,0.09 -1.3631,-0.3 m -5.6924,6.68 c 0,0 0,0 0,0 0.1195,0.44 0.3511,0.86 0.3586,1.31 0.0024,0.15 -0.2548,0.4 -0.3324,0.28 -0.2446,-0.38 -0.3242,-0.87 -0.3317,-1.33 m -6.713,15.71 c 0,0 0,0 0,0 0.4494,0.1 1.3368,-0.15 1.3482,0.31 0.0152,0.62 -0.7074,1.45 -1.3082,1.31" />
    </g>
  </g>
</svg>
